%TF.GenerationSoftware,KiCad,Pcbnew,9.0.4*%
%TF.CreationDate,2026-05-19T20:31:22+03:00*%
%TF.ProjectId,AAG2_FSBB,41414732-5f46-4534-9242-2e6b69636164,rev?*%
%TF.SameCoordinates,Original*%
%TF.FileFunction,Paste,Top*%
%TF.FilePolarity,Positive*%
%FSLAX46Y46*%
G04 Gerber Fmt 4.6, Leading zero omitted, Abs format (unit mm)*
G04 Created by KiCad (PCBNEW 9.0.4) date 2026-05-19 20:31:22*
%MOMM*%
%LPD*%
G01*
G04 APERTURE LIST*
G04 Aperture macros list*
%AMRoundRect*
0 Rectangle with rounded corners*
0 $1 Rounding radius*
0 $2 $3 $4 $5 $6 $7 $8 $9 X,Y pos of 4 corners*
0 Add a 4 corners polygon primitive as box body*
4,1,4,$2,$3,$4,$5,$6,$7,$8,$9,$2,$3,0*
0 Add four circle primitives for the rounded corners*
1,1,$1+$1,$2,$3*
1,1,$1+$1,$4,$5*
1,1,$1+$1,$6,$7*
1,1,$1+$1,$8,$9*
0 Add four rect primitives between the rounded corners*
20,1,$1+$1,$2,$3,$4,$5,0*
20,1,$1+$1,$4,$5,$6,$7,0*
20,1,$1+$1,$6,$7,$8,$9,0*
20,1,$1+$1,$8,$9,$2,$3,0*%
G04 Aperture macros list end*
%ADD10R,1.803400X2.641600*%
%ADD11RoundRect,0.200000X-0.200000X-0.275000X0.200000X-0.275000X0.200000X0.275000X-0.200000X0.275000X0*%
%ADD12R,2.000000X0.800000*%
%ADD13RoundRect,0.200000X-0.275000X0.200000X-0.275000X-0.200000X0.275000X-0.200000X0.275000X0.200000X0*%
%ADD14R,5.700000X2.000000*%
%ADD15RoundRect,0.225000X-0.250000X0.225000X-0.250000X-0.225000X0.250000X-0.225000X0.250000X0.225000X0*%
%ADD16R,1.528000X0.650000*%
%ADD17RoundRect,0.250000X-0.475000X0.250000X-0.475000X-0.250000X0.475000X-0.250000X0.475000X0.250000X0*%
%ADD18RoundRect,0.200000X0.200000X0.275000X-0.200000X0.275000X-0.200000X-0.275000X0.200000X-0.275000X0*%
%ADD19RoundRect,0.250000X2.375000X-2.025000X2.375000X2.025000X-2.375000X2.025000X-2.375000X-2.025000X0*%
%ADD20RoundRect,0.200000X0.200000X-2.100000X0.200000X2.100000X-0.200000X2.100000X-0.200000X-2.100000X0*%
%ADD21RoundRect,0.250000X-0.650000X1.000000X-0.650000X-1.000000X0.650000X-1.000000X0.650000X1.000000X0*%
%ADD22RoundRect,0.225000X0.225000X0.250000X-0.225000X0.250000X-0.225000X-0.250000X0.225000X-0.250000X0*%
%ADD23RoundRect,0.250000X-0.650000X0.325000X-0.650000X-0.325000X0.650000X-0.325000X0.650000X0.325000X0*%
%ADD24RoundRect,0.150000X0.150000X-0.512500X0.150000X0.512500X-0.150000X0.512500X-0.150000X-0.512500X0*%
%ADD25R,5.330000X5.590000*%
%ADD26R,6.350000X5.280000*%
%ADD27RoundRect,0.225000X-0.225000X-0.250000X0.225000X-0.250000X0.225000X0.250000X-0.225000X0.250000X0*%
%ADD28RoundRect,0.250000X-2.450000X0.650000X-2.450000X-0.650000X2.450000X-0.650000X2.450000X0.650000X0*%
%ADD29R,5.650000X2.350000*%
%ADD30RoundRect,0.250000X0.362500X1.425000X-0.362500X1.425000X-0.362500X-1.425000X0.362500X-1.425000X0*%
%ADD31RoundRect,0.243750X-0.243750X-0.456250X0.243750X-0.456250X0.243750X0.456250X-0.243750X0.456250X0*%
%ADD32RoundRect,0.243750X0.243750X0.456250X-0.243750X0.456250X-0.243750X-0.456250X0.243750X-0.456250X0*%
%ADD33RoundRect,0.250000X-0.362500X-1.425000X0.362500X-1.425000X0.362500X1.425000X-0.362500X1.425000X0*%
G04 APERTURE END LIST*
D10*
%TO.C,F1*%
X95022200Y-75070000D03*
X100280000Y-75070000D03*
%TD*%
D11*
%TO.C,R10*%
X142975000Y-110720000D03*
X144625000Y-110720000D03*
%TD*%
D12*
%TO.C,SW2*%
X136570000Y-117200000D03*
X136570000Y-113000000D03*
%TD*%
D10*
%TO.C,F2*%
X194608900Y-75230000D03*
X189351100Y-75230000D03*
%TD*%
D13*
%TO.C,R2*%
X158620000Y-104675000D03*
X158620000Y-106325000D03*
%TD*%
D12*
%TO.C,SW4*%
X148570000Y-117200000D03*
X148570000Y-113000000D03*
%TD*%
D14*
%TO.C,C9*%
X103660000Y-91270000D03*
X113360000Y-91270000D03*
%TD*%
D13*
%TO.C,R20*%
X138770000Y-103895000D03*
X138770000Y-105545000D03*
%TD*%
D15*
%TO.C,C17*%
X140470000Y-100589420D03*
X140470000Y-102139420D03*
%TD*%
D16*
%TO.C,Q8*%
X182371000Y-110015000D03*
X182371000Y-108745000D03*
X182371000Y-107475000D03*
X182371000Y-106205000D03*
X176949000Y-106205000D03*
X176949000Y-107475000D03*
X176949000Y-108745000D03*
X176949000Y-110015000D03*
%TD*%
D17*
%TO.C,C34*%
X174410000Y-112620000D03*
X174410000Y-114520000D03*
%TD*%
%TO.C,C36*%
X176521000Y-112620000D03*
X176521000Y-114520000D03*
%TD*%
D18*
%TO.C,R28*%
X147830000Y-110330000D03*
X146180000Y-110330000D03*
%TD*%
D13*
%TO.C,R15*%
X138790000Y-100585000D03*
X138790000Y-102235000D03*
%TD*%
D19*
%TO.C,Q2*%
X121755000Y-91625000D03*
X127305000Y-91625000D03*
X121755000Y-86775000D03*
X127305000Y-86775000D03*
D20*
X120720000Y-98350000D03*
X121990000Y-98350000D03*
X123260000Y-98350000D03*
X125800000Y-98350000D03*
X127070000Y-98350000D03*
X128340000Y-98350000D03*
%TD*%
D21*
%TO.C,D6*%
X185460000Y-107460000D03*
X185460000Y-111460000D03*
%TD*%
D22*
%TO.C,C26*%
X147785000Y-106600000D03*
X146235000Y-106600000D03*
%TD*%
D23*
%TO.C,C65*%
X174280000Y-76015000D03*
X174280000Y-78965000D03*
%TD*%
D24*
%TO.C,U8*%
X178740764Y-114285000D03*
X179690764Y-114285000D03*
X180640764Y-114285000D03*
X180640764Y-112010000D03*
X179690764Y-112010000D03*
X178740764Y-112010000D03*
%TD*%
D25*
%TO.C,L1*%
X140645000Y-94105000D03*
X150795000Y-94105000D03*
D26*
X145720000Y-72030000D03*
%TD*%
D23*
%TO.C,C61*%
X116510000Y-76225000D03*
X116510000Y-79175000D03*
%TD*%
D27*
%TO.C,C37*%
X185745000Y-105080000D03*
X187295000Y-105080000D03*
%TD*%
D19*
%TO.C,Q3*%
X164240000Y-74220000D03*
X169790000Y-74220000D03*
X164240000Y-69370000D03*
X169790000Y-69370000D03*
D20*
X163205000Y-80945000D03*
X164475000Y-80945000D03*
X165745000Y-80945000D03*
X168285000Y-80945000D03*
X169555000Y-80945000D03*
X170825000Y-80945000D03*
%TD*%
D19*
%TO.C,Q4*%
X164240000Y-91595000D03*
X169790000Y-91595000D03*
X164240000Y-86745000D03*
X169790000Y-86745000D03*
D20*
X163205000Y-98320000D03*
X164475000Y-98320000D03*
X165745000Y-98320000D03*
X168285000Y-98320000D03*
X169555000Y-98320000D03*
X170825000Y-98320000D03*
%TD*%
D19*
%TO.C,Q1*%
X121785000Y-74250000D03*
X127335000Y-74250000D03*
X121785000Y-69400000D03*
X127335000Y-69400000D03*
D20*
X120750000Y-80975000D03*
X122020000Y-80975000D03*
X123290000Y-80975000D03*
X125830000Y-80975000D03*
X127100000Y-80975000D03*
X128370000Y-80975000D03*
%TD*%
D17*
%TO.C,C35*%
X172250000Y-112620000D03*
X172250000Y-114520000D03*
%TD*%
D28*
%TO.C,C5*%
X178700000Y-75090000D03*
X178700000Y-80190000D03*
%TD*%
D27*
%TO.C,C12*%
X142975000Y-109150000D03*
X144525000Y-109150000D03*
%TD*%
D28*
%TO.C,C2*%
X105020000Y-75090000D03*
X105020000Y-80190000D03*
%TD*%
D29*
%TO.C,C10*%
X186590000Y-91290000D03*
X176890000Y-91290000D03*
%TD*%
D30*
%TO.C,R13*%
X97402500Y-98380000D03*
X91477500Y-98380000D03*
%TD*%
D31*
%TO.C,D11*%
X89932500Y-103560000D03*
X91807500Y-103560000D03*
%TD*%
D27*
%TO.C,C66*%
X142975000Y-107580000D03*
X144525000Y-107580000D03*
%TD*%
D28*
%TO.C,C6*%
X184875000Y-75090000D03*
X184875000Y-80190000D03*
%TD*%
D11*
%TO.C,R1*%
X127995000Y-106830000D03*
X129645000Y-106830000D03*
%TD*%
D15*
%TO.C,C18*%
X140505000Y-103895000D03*
X140505000Y-105445000D03*
%TD*%
D11*
%TO.C,R34*%
X163005000Y-115440000D03*
X164655000Y-115440000D03*
%TD*%
%TO.C,R11*%
X116025000Y-100100000D03*
X117675000Y-100100000D03*
%TD*%
D12*
%TO.C,SW3*%
X142570000Y-117200000D03*
X142570000Y-113000000D03*
%TD*%
D32*
%TO.C,D12*%
X197427500Y-96100000D03*
X195552500Y-96100000D03*
%TD*%
D33*
%TO.C,R14*%
X180467500Y-100820000D03*
X186392500Y-100820000D03*
%TD*%
D28*
%TO.C,C1*%
X111430000Y-75090000D03*
X111430000Y-80190000D03*
%TD*%
D11*
%TO.C,R32*%
X146180000Y-108730000D03*
X147830000Y-108730000D03*
%TD*%
D31*
%TO.C,D10*%
X162892500Y-117400000D03*
X164767500Y-117400000D03*
%TD*%
M02*
