M48
; DRILL file {KiCad 9.0.4} date 2026-05-19T20:32:09+0300
; FORMAT={-:-/ absolute / metric / decimal}
; #@! TF.CreationDate,2026-05-19T20:32:09+03:00
; #@! TF.GenerationSoftware,Kicad,Pcbnew,9.0.4
; #@! TF.FileFunction,Plated,1,4,PTH
FMAT,2
METRIC
; #@! TA.AperFunction,Plated,PTH,ViaDrill
T1C0.200
; #@! TA.AperFunction,Plated,PTH,ViaDrill
T2C0.300
; #@! TA.AperFunction,Plated,PTH,ComponentDrill
T3C0.500
; #@! TA.AperFunction,Plated,PTH,ComponentDrill
T4C0.600
; #@! TA.AperFunction,Plated,PTH,ComponentDrill
T5C0.889
; #@! TA.AperFunction,Plated,PTH,ComponentDrill
T6C1.000
; #@! TA.AperFunction,Plated,PTH,ComponentDrill
T7C1.200
; #@! TA.AperFunction,Plated,PTH,ComponentDrill
T8C2.500
%
G90
G05
T1
X89.93Y-105.23
X93.33Y-102.45
X95.07Y-108.48
X97.53Y-92.08
X98.7Y-92.06
X111.55Y-85.21
X111.55Y-85.98
X111.55Y-86.78
X111.55Y-87.57
X112.34Y-85.22
X112.34Y-86.77
X112.34Y-87.56
X112.35Y-86.0
X113.13Y-85.21
X113.13Y-85.99
X113.13Y-86.77
X113.13Y-87.56
X118.32Y-98.45
X118.41Y-96.96
X134.61Y-101.85
X137.0Y-106.44
X137.28Y-105.69
X137.67Y-104.37
X139.625Y-102.625
X139.635Y-105.445
X141.46Y-107.82
X141.55Y-108.7
X141.55Y-109.425
X142.13Y-107.96
X142.16Y-101.225
X142.16Y-101.775
X142.35Y-102.44
X142.37Y-104.29
X142.41Y-104.94
X142.463Y-100.487
X145.24Y-113.5
X145.45Y-109.41
X145.46Y-108.85
X146.05Y-107.51
X146.06Y-99.81
X146.86Y-99.45
X147.1Y-108.68
X147.1Y-109.24
X147.1Y-109.8
X147.55Y-107.5
X147.77Y-99.44
X148.81Y-107.44
X149.16Y-100.35
X149.37Y-84.95
X149.9Y-100.58
X150.23Y-102.78
X150.45Y-112.15
X150.46Y-100.98
X150.975Y-100.005
X151.26Y-115.72
X154.13Y-112.87
X154.16Y-81.84
X154.35Y-107.32
X156.73Y-84.93
X156.74Y-82.56
X156.74Y-84.14
X156.75Y-83.36
X157.01Y-115.6
X157.52Y-82.57
X157.52Y-83.36
X157.52Y-84.93
X157.53Y-84.14
X158.11Y-107.2
X158.31Y-82.58
X158.31Y-83.35
X158.31Y-84.14
X158.31Y-84.93
X160.93Y-84.15
X162.2Y-114.9
X183.31Y-91.846
X192.59Y-101.6
X194.59Y-96.1
X198.74Y-95.71
T2
X88.725Y-100.975
X89.6Y-100.975
X89.98Y-110.48
X93.4Y-98.39
X94.975Y-103.07
X94.975Y-103.83
X94.99Y-102.35
X95.06Y-98.38
X96.036Y-93.247
X96.047Y-83.662
X96.8Y-71.02
X97.28Y-70.54
X97.775Y-70.045
X98.25Y-105.99
X99.86Y-87.17
X102.05Y-73.52
X102.06Y-76.52
X103.2Y-81.71
X103.21Y-78.73
X103.4Y-73.52
X103.41Y-76.52
X103.8Y-84.575
X104.21Y-78.73
X104.26Y-81.71
X104.73Y-73.52
X104.74Y-76.52
X105.34Y-78.74
X105.35Y-81.75
X106.0Y-73.52
X106.01Y-76.52
X106.71Y-81.76
X106.75Y-78.77
X107.55Y-73.52
X107.56Y-76.52
X108.04Y-105.76
X108.15Y-81.75
X108.17Y-78.78
X108.831Y-105.76
X109.31Y-73.52
X109.32Y-76.52
X109.325Y-66.625
X109.53Y-81.77
X109.56Y-78.75
X109.622Y-105.76
X110.414Y-105.76
X110.77Y-73.52
X110.77Y-81.79
X110.78Y-76.52
X110.8Y-78.76
X111.205Y-105.76
X111.996Y-105.76
X112.18Y-73.52
X112.787Y-105.76
X113.36Y-73.52
X113.579Y-105.76
X114.16Y-97.37
X114.16Y-98.03
X114.16Y-98.69
X114.33Y-73.52
X114.37Y-105.76
X114.83Y-98.03
X114.83Y-98.69
X114.83Y-99.38
X115.51Y-98.03
X115.51Y-98.69
X115.685Y-113.95
X116.19Y-98.69
X118.225Y-66.675
X118.225Y-82.675
X118.48Y-88.92
X118.48Y-89.63
X118.57Y-111.41
X119.25Y-114.77
X119.63Y-80.18
X119.64Y-80.98
X119.81Y-95.62
X119.81Y-96.33
X120.64Y-102.59
X122.22Y-104.93
X124.6Y-66.55
X124.61Y-80.97
X126.893Y-104.853
X128.975Y-110.865
X129.41Y-96.79
X129.41Y-97.84
X129.41Y-99.83
X129.42Y-98.83
X130.46Y-96.81
X130.46Y-97.86
X130.46Y-99.85
X130.47Y-98.85
X131.49Y-96.81
X131.49Y-97.86
X131.49Y-99.85
X131.5Y-98.85
X139.5Y-117.2
X141.91Y-98.44
X144.35Y-98.42
X145.55Y-117.2
X152.63Y-84.14
X154.16Y-66.61
X154.38Y-84.15
X154.38Y-84.95
X154.8Y-100.51
X155.775Y-80.25
X157.525Y-86.45
X158.625Y-98.5
X159.575Y-100.975
X159.69Y-105.4
X159.975Y-66.925
X160.98Y-87.94
X160.98Y-88.6
X161.84Y-80.14
X161.85Y-80.94
X161.9Y-97.29
X161.9Y-97.94
X162.2Y-108.824
X162.885Y-107.275
X162.892Y-118.582
X162.9Y-105.12
X166.2Y-65.975
X167.27Y-79.26
X167.55Y-105.08
X167.58Y-107.3
X169.35Y-110.525
X169.75Y-116.6
X170.35Y-110.525
X171.3Y-108.85
X171.3Y-109.91
X171.3Y-111.06
X173.51Y-95.96
X173.523Y-96.95
X173.523Y-97.9
X174.467Y-95.96
X174.48Y-96.95
X174.48Y-97.9
X174.48Y-98.86
X175.423Y-95.96
X175.437Y-96.95
X175.437Y-97.9
X175.437Y-98.86
X175.77Y-81.72
X175.78Y-73.6
X175.78Y-78.75
X175.79Y-76.63
X176.3Y-117.65
X176.38Y-95.96
X176.393Y-96.95
X176.393Y-97.9
X176.393Y-98.86
X176.521Y-115.696
X176.82Y-81.71
X176.83Y-73.59
X176.83Y-78.74
X176.84Y-76.62
X176.949Y-105.251
X177.93Y-81.73
X177.94Y-73.61
X177.94Y-78.76
X177.95Y-76.64
X179.14Y-81.74
X179.15Y-73.62
X179.15Y-78.77
X179.16Y-76.65
X179.691Y-115.758
X180.43Y-81.77
X180.44Y-73.65
X180.44Y-78.8
X180.45Y-76.68
X180.55Y-115.75
X181.75Y-81.77
X181.76Y-73.65
X181.76Y-78.8
X181.77Y-76.68
X182.54Y-100.83
X183.19Y-81.77
X183.2Y-73.65
X183.2Y-78.8
X183.21Y-76.68
X184.48Y-81.77
X184.49Y-73.65
X184.49Y-78.8
X184.5Y-76.68
X184.85Y-100.82
X185.45Y-115.275
X187.625Y-115.65
X188.55Y-105.6
X190.497Y-106.328
X191.668Y-115.689
X191.668Y-116.467
X191.668Y-117.246
X192.43Y-115.697
X192.43Y-116.484
X192.43Y-117.246
X195.325Y-102.45
T3
X155.34Y-117.71
X156.34Y-117.71
X157.34Y-117.71
X158.34Y-117.71
X159.34Y-117.71
T4
X125.73Y-114.06
X125.73Y-116.6
X128.27Y-114.06
X130.81Y-114.06
X130.81Y-116.6
T5
X103.41Y-112.68
X103.41Y-115.22
X105.95Y-112.68
X105.95Y-115.22
X108.49Y-112.68
X108.49Y-115.22
X111.03Y-112.68
X111.03Y-115.22
X113.57Y-112.68
X113.57Y-115.22
T6
X121.25Y-114.36
X121.25Y-116.9
T7
X92.99Y-81.26
X92.99Y-86.34
X196.59Y-81.26
X196.59Y-86.34
T8
X90.95Y-66.2
X90.95Y-116.15
X198.0Y-66.2
X198.0Y-116.15
M30
