%TF.GenerationSoftware,KiCad,Pcbnew,9.0.4*%
%TF.CreationDate,2026-05-19T20:31:22+03:00*%
%TF.ProjectId,AAG2_FSBB,41414732-5f46-4534-9242-2e6b69636164,rev?*%
%TF.SameCoordinates,Original*%
%TF.FileFunction,Copper,L4,Bot*%
%TF.FilePolarity,Positive*%
%FSLAX46Y46*%
G04 Gerber Fmt 4.6, Leading zero omitted, Abs format (unit mm)*
G04 Created by KiCad (PCBNEW 9.0.4) date 2026-05-19 20:31:22*
%MOMM*%
%LPD*%
G01*
G04 APERTURE LIST*
G04 Aperture macros list*
%AMRoundRect*
0 Rectangle with rounded corners*
0 $1 Rounding radius*
0 $2 $3 $4 $5 $6 $7 $8 $9 X,Y pos of 4 corners*
0 Add a 4 corners polygon primitive as box body*
4,1,4,$2,$3,$4,$5,$6,$7,$8,$9,$2,$3,0*
0 Add four circle primitives for the rounded corners*
1,1,$1+$1,$2,$3*
1,1,$1+$1,$4,$5*
1,1,$1+$1,$6,$7*
1,1,$1+$1,$8,$9*
0 Add four rect primitives between the rounded corners*
20,1,$1+$1,$2,$3,$4,$5,0*
20,1,$1+$1,$4,$5,$6,$7,0*
20,1,$1+$1,$6,$7,$8,$9,0*
20,1,$1+$1,$8,$9,$2,$3,0*%
G04 Aperture macros list end*
%TA.AperFunction,EtchedComponent*%
%ADD10C,0.000000*%
%TD*%
%TA.AperFunction,ComponentPad*%
%ADD11C,1.800000*%
%TD*%
%TA.AperFunction,ComponentPad*%
%ADD12R,1.100000X1.100000*%
%TD*%
%TA.AperFunction,ComponentPad*%
%ADD13C,1.100000*%
%TD*%
%TA.AperFunction,ComponentPad*%
%ADD14C,5.000000*%
%TD*%
%TA.AperFunction,ComponentPad*%
%ADD15R,0.850000X0.850000*%
%TD*%
%TA.AperFunction,ComponentPad*%
%ADD16C,0.850000*%
%TD*%
%TA.AperFunction,ComponentPad*%
%ADD17R,1.397000X1.397000*%
%TD*%
%TA.AperFunction,ComponentPad*%
%ADD18C,1.397000*%
%TD*%
%TA.AperFunction,ComponentPad*%
%ADD19O,1.700000X1.700000*%
%TD*%
%TA.AperFunction,SMDPad,CuDef*%
%ADD20RoundRect,0.225000X-0.225000X-0.250000X0.225000X-0.250000X0.225000X0.250000X-0.225000X0.250000X0*%
%TD*%
%TA.AperFunction,SMDPad,CuDef*%
%ADD21RoundRect,0.250000X-0.262500X-0.450000X0.262500X-0.450000X0.262500X0.450000X-0.262500X0.450000X0*%
%TD*%
%TA.AperFunction,SMDPad,CuDef*%
%ADD22RoundRect,0.225000X0.225000X0.250000X-0.225000X0.250000X-0.225000X-0.250000X0.225000X-0.250000X0*%
%TD*%
%TA.AperFunction,SMDPad,CuDef*%
%ADD23RoundRect,0.225000X0.250000X-0.225000X0.250000X0.225000X-0.250000X0.225000X-0.250000X-0.225000X0*%
%TD*%
%TA.AperFunction,SMDPad,CuDef*%
%ADD24RoundRect,0.200000X0.275000X-0.200000X0.275000X0.200000X-0.275000X0.200000X-0.275000X-0.200000X0*%
%TD*%
%TA.AperFunction,SMDPad,CuDef*%
%ADD25RoundRect,0.250000X-1.100000X0.325000X-1.100000X-0.325000X1.100000X-0.325000X1.100000X0.325000X0*%
%TD*%
%TA.AperFunction,SMDPad,CuDef*%
%ADD26RoundRect,0.225000X-0.250000X0.225000X-0.250000X-0.225000X0.250000X-0.225000X0.250000X0.225000X0*%
%TD*%
%TA.AperFunction,SMDPad,CuDef*%
%ADD27RoundRect,0.200000X0.200000X0.275000X-0.200000X0.275000X-0.200000X-0.275000X0.200000X-0.275000X0*%
%TD*%
%TA.AperFunction,SMDPad,CuDef*%
%ADD28RoundRect,0.250000X0.650000X-1.000000X0.650000X1.000000X-0.650000X1.000000X-0.650000X-1.000000X0*%
%TD*%
%TA.AperFunction,SMDPad,CuDef*%
%ADD29RoundRect,0.250000X1.100000X-0.325000X1.100000X0.325000X-1.100000X0.325000X-1.100000X-0.325000X0*%
%TD*%
%TA.AperFunction,SMDPad,CuDef*%
%ADD30R,0.850000X0.350000*%
%TD*%
%TA.AperFunction,SMDPad,CuDef*%
%ADD31R,2.450000X3.380001*%
%TD*%
%TA.AperFunction,SMDPad,CuDef*%
%ADD32R,1.000000X1.000000*%
%TD*%
%TA.AperFunction,SMDPad,CuDef*%
%ADD33RoundRect,0.250000X-2.450000X0.650000X-2.450000X-0.650000X2.450000X-0.650000X2.450000X0.650000X0*%
%TD*%
%TA.AperFunction,SMDPad,CuDef*%
%ADD34RoundRect,0.150000X0.150000X-0.587500X0.150000X0.587500X-0.150000X0.587500X-0.150000X-0.587500X0*%
%TD*%
%TA.AperFunction,SMDPad,CuDef*%
%ADD35R,1.120000X1.240000*%
%TD*%
%TA.AperFunction,SMDPad,CuDef*%
%ADD36RoundRect,0.225000X-0.225000X-0.375000X0.225000X-0.375000X0.225000X0.375000X-0.225000X0.375000X0*%
%TD*%
%TA.AperFunction,SMDPad,CuDef*%
%ADD37RoundRect,0.200000X-0.200000X-0.275000X0.200000X-0.275000X0.200000X0.275000X-0.200000X0.275000X0*%
%TD*%
%TA.AperFunction,SMDPad,CuDef*%
%ADD38R,0.650000X1.525000*%
%TD*%
%TA.AperFunction,SMDPad,CuDef*%
%ADD39R,3.100000X2.600000*%
%TD*%
%TA.AperFunction,SMDPad,CuDef*%
%ADD40RoundRect,0.200000X-0.275000X0.200000X-0.275000X-0.200000X0.275000X-0.200000X0.275000X0.200000X0*%
%TD*%
%TA.AperFunction,SMDPad,CuDef*%
%ADD41RoundRect,0.150000X-0.150000X0.512500X-0.150000X-0.512500X0.150000X-0.512500X0.150000X0.512500X0*%
%TD*%
%TA.AperFunction,SMDPad,CuDef*%
%ADD42RoundRect,0.250000X0.250000X0.475000X-0.250000X0.475000X-0.250000X-0.475000X0.250000X-0.475000X0*%
%TD*%
%TA.AperFunction,SMDPad,CuDef*%
%ADD43R,3.100000X5.000000*%
%TD*%
%TA.AperFunction,SMDPad,CuDef*%
%ADD44RoundRect,0.250000X-0.650000X0.325000X-0.650000X-0.325000X0.650000X-0.325000X0.650000X0.325000X0*%
%TD*%
%TA.AperFunction,SMDPad,CuDef*%
%ADD45R,1.525000X0.650000*%
%TD*%
%TA.AperFunction,SMDPad,CuDef*%
%ADD46R,2.600000X3.100000*%
%TD*%
%TA.AperFunction,SMDPad,CuDef*%
%ADD47RoundRect,0.250000X-0.475000X0.250000X-0.475000X-0.250000X0.475000X-0.250000X0.475000X0.250000X0*%
%TD*%
%TA.AperFunction,SMDPad,CuDef*%
%ADD48C,0.500000*%
%TD*%
%TA.AperFunction,SMDPad,CuDef*%
%ADD49R,1.625600X0.889000*%
%TD*%
%TA.AperFunction,SMDPad,CuDef*%
%ADD50R,1.625600X3.175000*%
%TD*%
%TA.AperFunction,SMDPad,CuDef*%
%ADD51R,2.200000X3.150000*%
%TD*%
%TA.AperFunction,SMDPad,CuDef*%
%ADD52R,1.528000X0.650000*%
%TD*%
%TA.AperFunction,SMDPad,CuDef*%
%ADD53RoundRect,0.250000X0.450000X-0.262500X0.450000X0.262500X-0.450000X0.262500X-0.450000X-0.262500X0*%
%TD*%
%TA.AperFunction,SMDPad,CuDef*%
%ADD54R,0.600000X0.240000*%
%TD*%
%TA.AperFunction,SMDPad,CuDef*%
%ADD55R,0.240000X0.600000*%
%TD*%
%TA.AperFunction,SMDPad,CuDef*%
%ADD56R,4.150000X4.150000*%
%TD*%
%TA.AperFunction,SMDPad,CuDef*%
%ADD57R,0.320000X0.320000*%
%TD*%
%TA.AperFunction,SMDPad,CuDef*%
%ADD58RoundRect,0.225000X0.375000X-0.225000X0.375000X0.225000X-0.375000X0.225000X-0.375000X-0.225000X0*%
%TD*%
%TA.AperFunction,ViaPad*%
%ADD59C,0.750000*%
%TD*%
%TA.AperFunction,ViaPad*%
%ADD60C,0.600000*%
%TD*%
%TA.AperFunction,ViaPad*%
%ADD61C,0.450000*%
%TD*%
%TA.AperFunction,Conductor*%
%ADD62C,0.300000*%
%TD*%
%TA.AperFunction,Conductor*%
%ADD63C,0.500000*%
%TD*%
%TA.AperFunction,Conductor*%
%ADD64C,0.250000*%
%TD*%
%TA.AperFunction,Conductor*%
%ADD65C,0.700000*%
%TD*%
%TA.AperFunction,Conductor*%
%ADD66C,1.000000*%
%TD*%
%TA.AperFunction,Conductor*%
%ADD67C,0.400000*%
%TD*%
%TA.AperFunction,Conductor*%
%ADD68C,0.200000*%
%TD*%
G04 APERTURE END LIST*
D10*
%TA.AperFunction,EtchedComponent*%
%TO.C,NT1*%
G36*
X170350000Y-110775000D02*
G01*
X169350000Y-110775000D01*
X169350000Y-110275000D01*
X170350000Y-110275000D01*
X170350000Y-110775000D01*
G37*
%TD.AperFunction*%
%TD*%
D11*
%TO.P,J1,1,Pin_1*%
%TO.N,Net-(J1-Pin_1)*%
X92990000Y-81260000D03*
%TO.P,J1,2,Pin_2*%
%TO.N,/FSBB/R13_SENS1*%
X92990000Y-86340000D03*
%TD*%
D12*
%TO.P,S1,4,4*%
%TO.N,unconnected-(S1-Pad4)*%
X130810000Y-114060000D03*
D13*
%TO.P,S1,5,5*%
%TO.N,AGND*%
X128270000Y-114060000D03*
%TO.P,S1,6,6*%
%TO.N,Net-(R51-Pad2)*%
X125730000Y-114060000D03*
%TO.P,S1,MH1,MH1*%
%TO.N,unconnected-(S1-PadMH1)*%
X130810000Y-116600000D03*
%TO.P,S1,MH2,MH2*%
%TO.N,unconnected-(S1-PadMH2)*%
X125730000Y-116600000D03*
%TD*%
D14*
%TO.P,H2,1*%
%TO.N,N/C*%
X198000000Y-66200000D03*
%TD*%
D11*
%TO.P,J3,1,Pin_1*%
%TO.N,Net-(J3-Pin_1)*%
X196590000Y-81260000D03*
%TO.P,J3,2,Pin_2*%
%TO.N,/FSBB/R14_SENS2*%
X196590000Y-86340000D03*
%TD*%
D14*
%TO.P,H1,1*%
%TO.N,N/C*%
X90950000Y-66200000D03*
%TD*%
D15*
%TO.P,J5,1,Pin_1*%
%TO.N,AGND*%
X159340000Y-117710000D03*
D16*
%TO.P,J5,2,Pin_2*%
%TO.N,Net-(J5-Pin_2)*%
X158340000Y-117710000D03*
%TO.P,J5,3,Pin_3*%
%TO.N,DPWM2A*%
X157340000Y-117710000D03*
%TO.P,J5,4,Pin_4*%
%TO.N,SYNC{slash}PWM0*%
X156340000Y-117710000D03*
%TO.P,J5,5,Pin_5*%
%TO.N,TCAP*%
X155340000Y-117710000D03*
%TD*%
D17*
%TO.P,J6,1,Pin_1*%
%TO.N,unconnected-(J6-Pin_1-Pad1)*%
X103410000Y-115220000D03*
D18*
%TO.P,J6,2,Pin_2*%
%TO.N,unconnected-(J6-Pin_2-Pad2)*%
X103410000Y-112680000D03*
%TO.P,J6,3,Pin_3*%
%TO.N,unconnected-(J6-Pin_3-Pad3)*%
X105950000Y-115220000D03*
%TO.P,J6,4,Pin_4*%
%TO.N,unconnected-(J6-Pin_4-Pad4)*%
X105950000Y-112680000D03*
%TO.P,J6,5,Pin_5*%
%TO.N,Net-(J6-Pin_5)*%
X108490000Y-115220000D03*
%TO.P,J6,6,Pin_6*%
%TO.N,AGND*%
X108490000Y-112680000D03*
%TO.P,J6,7,Pin_7*%
%TO.N,unconnected-(J6-Pin_7-Pad7)*%
X111030000Y-115220000D03*
%TO.P,J6,8,Pin_8*%
%TO.N,unconnected-(J6-Pin_8-Pad8)*%
X111030000Y-112680000D03*
%TO.P,J6,9,Pin_9*%
%TO.N,Net-(J6-Pin_9)*%
X113570000Y-115220000D03*
%TO.P,J6,10,Pin_10*%
%TO.N,Net-(J6-Pin_10)*%
X113570000Y-112680000D03*
%TD*%
D14*
%TO.P,H4,1*%
%TO.N,N/C*%
X198000000Y-116150000D03*
%TD*%
D19*
%TO.P,J7,1,Pin_1*%
%TO.N,Net-(J6-Pin_5)*%
X121250000Y-116900000D03*
%TO.P,J7,2,Pin_2*%
%TO.N,+3.3VD*%
X121250000Y-114360000D03*
%TD*%
D14*
%TO.P,H3,1*%
%TO.N,N/C*%
X90950000Y-116150000D03*
%TD*%
D20*
%TO.P,C48,1*%
%TO.N,Net-(C48-Pad1)*%
X105255000Y-90820000D03*
%TO.P,C48,2*%
%TO.N,+12V_X*%
X106805000Y-90820000D03*
%TD*%
D21*
%TO.P,R5,1*%
%TO.N,H1*%
X119407500Y-82670000D03*
%TO.P,R5,2*%
%TO.N,Net-(D1-A)*%
X121232500Y-82670000D03*
%TD*%
D22*
%TO.P,C31,1*%
%TO.N,+12V_X*%
X190259000Y-115640000D03*
%TO.P,C31,2*%
%TO.N,PGND*%
X188709000Y-115640000D03*
%TD*%
D23*
%TO.P,C28,1*%
%TO.N,Net-(U2B-IN_B+)*%
X128245000Y-106403000D03*
%TO.P,C28,2*%
%TO.N,AGND*%
X128245000Y-104853000D03*
%TD*%
D24*
%TO.P,R21,1*%
%TO.N,/FSBB/U2_IN_A-*%
X123595000Y-98628000D03*
%TO.P,R21,2*%
%TO.N,PGND*%
X123595000Y-96978000D03*
%TD*%
D23*
%TO.P,C20,1*%
%TO.N,Iout1*%
X140430000Y-111815000D03*
%TO.P,C20,2*%
%TO.N,AGND*%
X140430000Y-110265000D03*
%TD*%
D25*
%TO.P,C39,1*%
%TO.N,V1+*%
X93265085Y-89485000D03*
%TO.P,C39,2*%
%TO.N,PGND*%
X93265085Y-92435000D03*
%TD*%
D22*
%TO.P,C49,1*%
%TO.N,Net-(C48-Pad1)*%
X105125000Y-89200000D03*
%TO.P,C49,2*%
%TO.N,Net-(U6-FB)*%
X103575000Y-89200000D03*
%TD*%
%TO.P,C59,1*%
%TO.N,PMBUS_CLK*%
X117235000Y-114770000D03*
%TO.P,C59,2*%
%TO.N,AGND*%
X115685000Y-114770000D03*
%TD*%
D26*
%TO.P,C16,1*%
%TO.N,AGND*%
X161150000Y-107275000D03*
%TO.P,C16,2*%
%TO.N,+12V*%
X161150000Y-108825000D03*
%TD*%
D27*
%TO.P,R49,1*%
%TO.N,+12V*%
X94975000Y-104890000D03*
%TO.P,R49,2*%
%TO.N,Net-(D11-A)*%
X93325000Y-104890000D03*
%TD*%
D28*
%TO.P,D5,1,K*%
%TO.N,+12V_X*%
X190496736Y-112427500D03*
%TO.P,D5,2,A*%
%TO.N,PGND*%
X190496736Y-108427500D03*
%TD*%
D24*
%TO.P,R18,1*%
%TO.N,Net-(U3A-IN_A+)*%
X166310000Y-100655000D03*
%TO.P,R18,2*%
%TO.N,/FSBB/R14_SENS2*%
X166310000Y-99005000D03*
%TD*%
D25*
%TO.P,C58,1*%
%TO.N,V1+*%
X113400000Y-75675000D03*
%TO.P,C58,2*%
%TO.N,PGND*%
X113400000Y-78625000D03*
%TD*%
D24*
%TO.P,R33,1*%
%TO.N,Net-(D7-K)*%
X105260000Y-93965000D03*
%TO.P,R33,2*%
%TO.N,Net-(C48-Pad1)*%
X105260000Y-92315000D03*
%TD*%
D29*
%TO.P,C50,1*%
%TO.N,+12V_X*%
X115740000Y-104485000D03*
%TO.P,C50,2*%
%TO.N,PGND*%
X115740000Y-101535000D03*
%TD*%
D24*
%TO.P,R45,1*%
%TO.N,/MCU/{slash}RESET*%
X138740000Y-101895000D03*
%TO.P,R45,2*%
%TO.N,+3.3VD*%
X138740000Y-100245000D03*
%TD*%
D30*
%TO.P,U1,1,VDD*%
%TO.N,+12V*%
X114315000Y-85180000D03*
%TO.P,U1,2,HB*%
%TO.N,Net-(D13-K)*%
X114315000Y-85980001D03*
%TO.P,U1,3,HO*%
%TO.N,H1*%
X114315000Y-86779999D03*
%TO.P,U1,4,HS*%
%TO.N,SW1*%
X114315000Y-87580000D03*
%TO.P,U1,5,HI*%
%TO.N,DPWM0A*%
X110365000Y-87580000D03*
%TO.P,U1,6,LI*%
%TO.N,DPWM0B*%
X110365000Y-86779999D03*
%TO.P,U1,7,VSS*%
%TO.N,PGND*%
X110365000Y-85980001D03*
%TO.P,U1,8,LO*%
%TO.N,L1*%
X110365000Y-85180000D03*
D31*
%TO.P,U1,9,EPAD*%
%TO.N,PGND*%
X112340000Y-86380000D03*
%TD*%
D32*
%TO.P,AGND,1,1*%
%TO.N,AGND*%
X157600000Y-100975000D03*
%TD*%
D33*
%TO.P,C3,1*%
%TO.N,V1+*%
X108460000Y-75060000D03*
%TO.P,C3,2*%
%TO.N,PGND*%
X108460000Y-80160000D03*
%TD*%
D34*
%TO.P,Q6,1,B*%
%TO.N,Net-(Q6-B)*%
X91750000Y-107100000D03*
%TO.P,Q6,2,E*%
%TO.N,PGND*%
X89850000Y-107100000D03*
%TO.P,Q6,3,C*%
%TO.N,Net-(D11-K)*%
X90800000Y-105225000D03*
%TD*%
D35*
%TO.P,D14,1,K*%
%TO.N,Net-(D14-K)*%
X159436900Y-77500000D03*
%TO.P,D14,2,A*%
%TO.N,+12V*%
X159436900Y-74500000D03*
%TD*%
D20*
%TO.P,C56,1*%
%TO.N,/MCU/FAULT*%
X151875000Y-99550000D03*
%TO.P,C56,2*%
%TO.N,AGND*%
X153425000Y-99550000D03*
%TD*%
D36*
%TO.P,D3,1,K*%
%TO.N,L2*%
X156100000Y-92550000D03*
%TO.P,D3,2,A*%
%TO.N,Net-(D3-A)*%
X159400000Y-92550000D03*
%TD*%
D23*
%TO.P,C45,1*%
%TO.N,+3.3VD*%
X156200000Y-104825000D03*
%TO.P,C45,2*%
%TO.N,AGND*%
X156200000Y-103275000D03*
%TD*%
D26*
%TO.P,C15,1*%
%TO.N,AGND*%
X120590000Y-106005000D03*
%TO.P,C15,2*%
%TO.N,+12V*%
X120590000Y-107555000D03*
%TD*%
D32*
%TO.P,+12V_X,1,1*%
%TO.N,+12V_X*%
X194275000Y-113675000D03*
%TD*%
D37*
%TO.P,R47,1*%
%TO.N,Net-(J6-Pin_9)*%
X115575000Y-116450000D03*
%TO.P,R47,2*%
%TO.N,PMBUS_CLK*%
X117225000Y-116450000D03*
%TD*%
D23*
%TO.P,C24,1*%
%TO.N,Net-(U3A-IN_A+)*%
X167960000Y-100655000D03*
%TO.P,C24,2*%
%TO.N,AGND*%
X167960000Y-99105000D03*
%TD*%
D38*
%TO.P,U2,1,OUT_A*%
%TO.N,Net-(U2A-OUT_A)*%
X122505000Y-100978000D03*
%TO.P,U2,2,IN_A-*%
%TO.N,/FSBB/U2_IN_A-*%
X123775000Y-100978000D03*
%TO.P,U2,3,IN_A+*%
%TO.N,Net-(U2A-IN_A+)*%
X125045000Y-100978000D03*
%TO.P,U2,4,V-*%
%TO.N,AGND*%
X126315000Y-100978000D03*
%TO.P,U2,5,IN_B+*%
%TO.N,Net-(U2B-IN_B+)*%
X126315000Y-106402000D03*
%TO.P,U2,6,IN_B-*%
%TO.N,Net-(U2B-IN_B-)*%
X125045000Y-106402000D03*
%TO.P,U2,7,OUT_B*%
%TO.N,Net-(U2B-OUT_B)*%
X123775000Y-106402000D03*
%TO.P,U2,8,V+*%
%TO.N,+12V*%
X122505000Y-106402000D03*
D39*
%TO.P,U2,9,EP*%
%TO.N,AGND*%
X124410000Y-103690000D03*
%TD*%
D37*
%TO.P,R50,1*%
%TO.N,+12V*%
X192035000Y-96100000D03*
%TO.P,R50,2*%
%TO.N,Net-(D12-A)*%
X193685000Y-96100000D03*
%TD*%
D38*
%TO.P,U3,1,OUT_A*%
%TO.N,Net-(U3A-OUT_A)*%
X163380000Y-103400000D03*
%TO.P,U3,2,IN_A-*%
%TO.N,/FSBB/U3_IN_A-*%
X164650000Y-103400000D03*
%TO.P,U3,3,IN_A+*%
%TO.N,Net-(U3A-IN_A+)*%
X165920000Y-103400000D03*
%TO.P,U3,4,V-*%
%TO.N,AGND*%
X167190000Y-103400000D03*
%TO.P,U3,5,IN_B+*%
%TO.N,Net-(U3B-IN_B+)*%
X167190000Y-108824000D03*
%TO.P,U3,6,IN_B-*%
%TO.N,Net-(U3B-IN_B-)*%
X165920000Y-108824000D03*
%TO.P,U3,7,OUT_B*%
%TO.N,Net-(U3B-OUT_B)*%
X164650000Y-108824000D03*
%TO.P,U3,8,V+*%
%TO.N,+12V*%
X163380000Y-108824000D03*
D39*
%TO.P,U3,9,EP*%
%TO.N,AGND*%
X165285000Y-106112000D03*
%TD*%
D40*
%TO.P,R24,1*%
%TO.N,Iout2*%
X138830000Y-107125000D03*
%TO.P,R24,2*%
%TO.N,Net-(U3A-OUT_A)*%
X138830000Y-108775000D03*
%TD*%
D36*
%TO.P,D1,1,K*%
%TO.N,H1*%
X119412500Y-85100000D03*
%TO.P,D1,2,A*%
%TO.N,Net-(D1-A)*%
X122712500Y-85100000D03*
%TD*%
D20*
%TO.P,C40,1*%
%TO.N,+3.3VA*%
X144675000Y-108850000D03*
%TO.P,C40,2*%
%TO.N,AGND*%
X146225000Y-108850000D03*
%TD*%
D41*
%TO.P,U9,1,VS*%
%TO.N,+12V*%
X183777500Y-105602500D03*
%TO.P,U9,2,GND*%
%TO.N,PGND*%
X184727500Y-105602500D03*
%TO.P,U9,3,OFF*%
X185677500Y-105602500D03*
%TO.P,U9,4,IN*%
%TO.N,+12V_X*%
X185677500Y-107877500D03*
%TO.P,U9,5,GATE*%
%TO.N,Net-(Q5-G)*%
X184727500Y-107877500D03*
%TO.P,U9,6,OUT*%
%TO.N,+12V*%
X183777500Y-107877500D03*
%TD*%
D42*
%TO.P,C19,1*%
%TO.N,+12V*%
X114250000Y-82480000D03*
%TO.P,C19,2*%
%TO.N,PGND*%
X112350000Y-82480000D03*
%TD*%
D24*
%TO.P,R16,1*%
%TO.N,Net-(U2A-OUT_A)*%
X118995000Y-101578000D03*
%TO.P,R16,2*%
%TO.N,/FSBB/U2_IN_A-*%
X118995000Y-99928000D03*
%TD*%
D20*
%TO.P,C57,1*%
%TO.N,/MCU/TMS*%
X151875000Y-101200000D03*
%TO.P,C57,2*%
%TO.N,AGND*%
X153425000Y-101200000D03*
%TD*%
D23*
%TO.P,C43,1*%
%TO.N,+3.3VD*%
X152866667Y-104825000D03*
%TO.P,C43,2*%
%TO.N,AGND*%
X152866667Y-103275000D03*
%TD*%
D20*
%TO.P,C60,1*%
%TO.N,DIRECTION*%
X128975000Y-112000000D03*
%TO.P,C60,2*%
%TO.N,AGND*%
X130525000Y-112000000D03*
%TD*%
D23*
%TO.P,C46,1*%
%TO.N,Net-(D7-K)*%
X103600000Y-92315000D03*
%TO.P,C46,2*%
%TO.N,Net-(U6-BST)*%
X103600000Y-90765000D03*
%TD*%
D27*
%TO.P,R35,1*%
%TO.N,+12V_X*%
X105175000Y-87610000D03*
%TO.P,R35,2*%
%TO.N,Net-(U6-FB)*%
X103525000Y-87610000D03*
%TD*%
D24*
%TO.P,R57,1*%
%TO.N,/MCU/TMS*%
X148550000Y-116175000D03*
%TO.P,R57,2*%
%TO.N,+3.3VD*%
X148550000Y-114525000D03*
%TD*%
D26*
%TO.P,C22,1*%
%TO.N,Iout2*%
X140400000Y-107125000D03*
%TO.P,C22,2*%
%TO.N,AGND*%
X140400000Y-108675000D03*
%TD*%
D43*
%TO.P,L2,1,1*%
%TO.N,+12V_X*%
X111862830Y-101330000D03*
%TO.P,L2,2,2*%
%TO.N,Net-(D7-K)*%
X100762830Y-101330000D03*
%TD*%
D25*
%TO.P,C64,1*%
%TO.N,V2+*%
X173840000Y-76575000D03*
%TO.P,C64,2*%
%TO.N,PGND*%
X173840000Y-79525000D03*
%TD*%
D44*
%TO.P,C23,1*%
%TO.N,Net-(D13-K)*%
X116660000Y-85315000D03*
%TO.P,C23,2*%
%TO.N,SW1*%
X116660000Y-88265000D03*
%TD*%
D45*
%TO.P,U6,1,GND*%
%TO.N,PGND*%
X96035915Y-92030000D03*
%TO.P,U6,2,VIN*%
%TO.N,V1+*%
X96035915Y-90760000D03*
%TO.P,U6,3,EN/UVLO*%
X96035915Y-89490000D03*
%TO.P,U6,4,RON*%
%TO.N,Net-(U6-RON)*%
X96035915Y-88220000D03*
%TO.P,U6,5,FB*%
%TO.N,Net-(U6-FB)*%
X101459915Y-88220000D03*
%TO.P,U6,6,PGOOD*%
%TO.N,unconnected-(U6-PGOOD-Pad6)*%
X101459915Y-89490000D03*
%TO.P,U6,7,BST*%
%TO.N,Net-(U6-BST)*%
X101459915Y-90760000D03*
%TO.P,U6,8,SW*%
%TO.N,Net-(D7-K)*%
X101459915Y-92030000D03*
D46*
%TO.P,U6,9,EP*%
%TO.N,PGND*%
X98747915Y-90125000D03*
%TD*%
D47*
%TO.P,C32,1*%
%TO.N,+12V*%
X174650000Y-115750000D03*
%TO.P,C32,2*%
%TO.N,PGND*%
X174650000Y-117650000D03*
%TD*%
D40*
%TO.P,R12,1*%
%TO.N,PGND*%
X161900000Y-90875000D03*
%TO.P,R12,2*%
%TO.N,Net-(D3-A)*%
X161900000Y-92525000D03*
%TD*%
D33*
%TO.P,C4,1*%
%TO.N,V1+*%
X101900000Y-75060000D03*
%TO.P,C4,2*%
%TO.N,PGND*%
X101900000Y-80160000D03*
%TD*%
D22*
%TO.P,C51,1*%
%TO.N,+3.3VD*%
X153250000Y-109750000D03*
%TO.P,C51,2*%
%TO.N,Net-(U7-BP18)*%
X151700000Y-109750000D03*
%TD*%
D48*
%TO.P,NT1,1,1*%
%TO.N,PGND*%
X170350000Y-110525000D03*
%TO.P,NT1,2,2*%
%TO.N,AGND*%
X169350000Y-110525000D03*
%TD*%
D27*
%TO.P,R54,1*%
%TO.N,Net-(Q6-B)*%
X91625000Y-109550000D03*
%TO.P,R54,2*%
%TO.N,PGND*%
X89975000Y-109550000D03*
%TD*%
D40*
%TO.P,R26,1*%
%TO.N,AGND*%
X169610000Y-99005000D03*
%TO.P,R26,2*%
%TO.N,Net-(U3A-IN_A+)*%
X169610000Y-100655000D03*
%TD*%
D32*
%TO.P,V1+,1,1*%
%TO.N,V1+*%
X90725000Y-72975000D03*
%TD*%
D37*
%TO.P,R55,1*%
%TO.N,Net-(Q7-B)*%
X193685000Y-100640000D03*
%TO.P,R55,2*%
%TO.N,PGND*%
X195335000Y-100640000D03*
%TD*%
D35*
%TO.P,D13,1,K*%
%TO.N,Net-(D13-K)*%
X116670000Y-80070000D03*
%TO.P,D13,2,A*%
%TO.N,+12V*%
X116670000Y-77070000D03*
%TD*%
D22*
%TO.P,C47,1*%
%TO.N,AGND*%
X159345000Y-115600000D03*
%TO.P,C47,2*%
%TO.N,I_Share*%
X157795000Y-115600000D03*
%TD*%
D40*
%TO.P,R38,1*%
%TO.N,+3.3VA*%
X143950000Y-112875000D03*
%TO.P,R38,2*%
%TO.N,+3.3VD*%
X143950000Y-114525000D03*
%TD*%
D49*
%TO.P,U5,1,ADJ/GND*%
%TO.N,PGND*%
X171300400Y-111988600D03*
%TO.P,U5,2,OUTPUT_2*%
%TO.N,+3.3VD*%
X171300400Y-114300000D03*
%TO.P,U5,3,INPUT*%
%TO.N,+12V*%
X171300400Y-116611400D03*
D50*
%TO.P,U5,4,OUTPUT*%
%TO.N,+3.3VD*%
X164899600Y-114300000D03*
%TD*%
D51*
%TO.P,D7,1,K*%
%TO.N,Net-(D7-K)*%
X97240000Y-98430000D03*
%TO.P,D7,2,A*%
%TO.N,PGND*%
X90240000Y-98430000D03*
%TD*%
D22*
%TO.P,C55,1*%
%TO.N,PMBUS_DATA*%
X117175000Y-113100000D03*
%TO.P,C55,2*%
%TO.N,AGND*%
X115625000Y-113100000D03*
%TD*%
D40*
%TO.P,R9,1*%
%TO.N,V1_sense*%
X138800000Y-103925000D03*
%TO.P,R9,2*%
%TO.N,AGND*%
X138800000Y-105575000D03*
%TD*%
D26*
%TO.P,C21,1*%
%TO.N,Net-(U2A-IN_A+)*%
X129895000Y-101085000D03*
%TO.P,C21,2*%
%TO.N,AGND*%
X129895000Y-102635000D03*
%TD*%
D37*
%TO.P,R30,1*%
%TO.N,Net-(U2B-OUT_B)*%
X123395000Y-108378000D03*
%TO.P,R30,2*%
%TO.N,Net-(U2B-IN_B-)*%
X125045000Y-108378000D03*
%TD*%
D52*
%TO.P,Q5,1,S_1*%
%TO.N,+12V_X*%
X187407736Y-109872500D03*
%TO.P,Q5,2,S_2*%
X187407736Y-111142500D03*
%TO.P,Q5,3,S_3*%
X187407736Y-112412500D03*
%TO.P,Q5,4,G*%
%TO.N,Net-(Q5-G)*%
X187407736Y-113682500D03*
%TO.P,Q5,5,D_1*%
%TO.N,+12V*%
X181985736Y-113682500D03*
%TO.P,Q5,6,D_2*%
X181985736Y-112412500D03*
%TO.P,Q5,7,D_3*%
X181985736Y-111142500D03*
%TO.P,Q5,8,D_4*%
X181985736Y-109872500D03*
%TD*%
D32*
%TO.P,+12V,1,1*%
%TO.N,+12V*%
X179375000Y-107725000D03*
%TD*%
D27*
%TO.P,R51,1*%
%TO.N,DIRECTION*%
X127400000Y-112000000D03*
%TO.P,R51,2*%
%TO.N,Net-(R51-Pad2)*%
X125750000Y-112000000D03*
%TD*%
D37*
%TO.P,R4,1*%
%TO.N,Net-(D4-A)*%
X161561900Y-76500000D03*
%TO.P,R4,2*%
%TO.N,SW2*%
X163211900Y-76500000D03*
%TD*%
%TO.P,R3,1*%
%TO.N,Net-(D1-A)*%
X121125000Y-79170000D03*
%TO.P,R3,2*%
%TO.N,SW1*%
X122775000Y-79170000D03*
%TD*%
D20*
%TO.P,C53,1*%
%TO.N,Net-(U7-BP18)*%
X151700000Y-106550000D03*
%TO.P,C53,2*%
%TO.N,AGND*%
X153250000Y-106550000D03*
%TD*%
D24*
%TO.P,R29,1*%
%TO.N,Net-(U3B-OUT_B)*%
X159510000Y-108875000D03*
%TO.P,R29,2*%
%TO.N,Net-(U3B-IN_B-)*%
X159510000Y-107225000D03*
%TD*%
D37*
%TO.P,R46,1*%
%TO.N,Net-(J6-Pin_10)*%
X115525000Y-111410000D03*
%TO.P,R46,2*%
%TO.N,PMBUS_DATA*%
X117175000Y-111410000D03*
%TD*%
D20*
%TO.P,C41,1*%
%TO.N,+3.3VA*%
X144675000Y-110450000D03*
%TO.P,C41,2*%
%TO.N,AGND*%
X146225000Y-110450000D03*
%TD*%
D26*
%TO.P,C33,1*%
%TO.N,+3.3VD*%
X162200000Y-115800000D03*
%TO.P,C33,2*%
%TO.N,AGND*%
X162200000Y-117350000D03*
%TD*%
D23*
%TO.P,C42,1*%
%TO.N,+3.3VD*%
X151200000Y-104825000D03*
%TO.P,C42,2*%
%TO.N,AGND*%
X151200000Y-103275000D03*
%TD*%
%TO.P,C44,1*%
%TO.N,+3.3VD*%
X154533333Y-104825000D03*
%TO.P,C44,2*%
%TO.N,AGND*%
X154533333Y-103275000D03*
%TD*%
D37*
%TO.P,R53,1*%
%TO.N,CHARGE_V2*%
X193685000Y-98400000D03*
%TO.P,R53,2*%
%TO.N,Net-(Q7-B)*%
X195335000Y-98400000D03*
%TD*%
D24*
%TO.P,R23,1*%
%TO.N,Iout1*%
X138850000Y-111825000D03*
%TO.P,R23,2*%
%TO.N,Net-(U2A-OUT_A)*%
X138850000Y-110175000D03*
%TD*%
D26*
%TO.P,C14,1*%
%TO.N,/FSBB/U3_IN_A-*%
X161350000Y-102705000D03*
%TO.P,C14,2*%
%TO.N,Net-(U3A-OUT_A)*%
X161350000Y-104255000D03*
%TD*%
D53*
%TO.P,R8,1*%
%TO.N,H2*%
X164736900Y-84150000D03*
%TO.P,R8,2*%
%TO.N,Net-(D4-A)*%
X164736900Y-82325000D03*
%TD*%
D42*
%TO.P,C29,1*%
%TO.N,+12V*%
X159010000Y-80250000D03*
%TO.P,C29,2*%
%TO.N,PGND*%
X157110000Y-80250000D03*
%TD*%
D23*
%TO.P,C27,1*%
%TO.N,Net-(U3B-IN_B+)*%
X169200000Y-108850000D03*
%TO.P,C27,2*%
%TO.N,AGND*%
X169200000Y-107300000D03*
%TD*%
D27*
%TO.P,R40,1*%
%TO.N,I_Share*%
X156270000Y-115600000D03*
%TO.P,R40,2*%
%TO.N,Net-(J5-Pin_2)*%
X154620000Y-115600000D03*
%TD*%
D26*
%TO.P,C11,1*%
%TO.N,V1_sense*%
X140450000Y-103925000D03*
%TO.P,C11,2*%
%TO.N,AGND*%
X140450000Y-105475000D03*
%TD*%
D33*
%TO.P,C8,1*%
%TO.N,V2+*%
X184900000Y-75130000D03*
%TO.P,C8,2*%
%TO.N,PGND*%
X184900000Y-80230000D03*
%TD*%
D23*
%TO.P,C54,1*%
%TO.N,/MCU/{slash}RESET*%
X140450000Y-101900000D03*
%TO.P,C54,2*%
%TO.N,AGND*%
X140450000Y-100350000D03*
%TD*%
D27*
%TO.P,R36,1*%
%TO.N,Net-(U6-FB)*%
X103535000Y-86010000D03*
%TO.P,R36,2*%
%TO.N,PGND*%
X101885000Y-86010000D03*
%TD*%
D24*
%TO.P,R19,1*%
%TO.N,Net-(U3A-OUT_A)*%
X159690000Y-104355000D03*
%TO.P,R19,2*%
%TO.N,/FSBB/U3_IN_A-*%
X159690000Y-102705000D03*
%TD*%
D21*
%TO.P,R6,1*%
%TO.N,L1*%
X116127500Y-95090000D03*
%TO.P,R6,2*%
%TO.N,Net-(D2-A)*%
X117952500Y-95090000D03*
%TD*%
D24*
%TO.P,R22,1*%
%TO.N,/FSBB/U3_IN_A-*%
X164660000Y-100655000D03*
%TO.P,R22,2*%
%TO.N,PGND*%
X164660000Y-99005000D03*
%TD*%
D21*
%TO.P,R7,1*%
%TO.N,L2*%
X155937500Y-90100000D03*
%TO.P,R7,2*%
%TO.N,Net-(D3-A)*%
X157762500Y-90100000D03*
%TD*%
D36*
%TO.P,D2,1,K*%
%TO.N,L1*%
X114640000Y-92670000D03*
%TO.P,D2,2,A*%
%TO.N,Net-(D2-A)*%
X117940000Y-92670000D03*
%TD*%
D27*
%TO.P,R52,1*%
%TO.N,CHARGE_V1*%
X94800000Y-109550000D03*
%TO.P,R52,2*%
%TO.N,Net-(Q6-B)*%
X93150000Y-109550000D03*
%TD*%
D24*
%TO.P,R25,1*%
%TO.N,AGND*%
X128245000Y-102728000D03*
%TO.P,R25,2*%
%TO.N,Net-(U2A-IN_A+)*%
X128245000Y-101078000D03*
%TD*%
D37*
%TO.P,R48,1*%
%TO.N,+3.3VD*%
X125750000Y-110400000D03*
%TO.P,R48,2*%
%TO.N,DIRECTION*%
X127400000Y-110400000D03*
%TD*%
D30*
%TO.P,U4,1,VDD*%
%TO.N,+12V*%
X159500000Y-82550000D03*
%TO.P,U4,2,HB*%
%TO.N,Net-(D14-K)*%
X159500000Y-83350001D03*
%TO.P,U4,3,HO*%
%TO.N,H2*%
X159500000Y-84149999D03*
%TO.P,U4,4,HS*%
%TO.N,SW2*%
X159500000Y-84950000D03*
%TO.P,U4,5,HI*%
%TO.N,DPWM1A*%
X155550000Y-84950000D03*
%TO.P,U4,6,LI*%
%TO.N,DPWM1B*%
X155550000Y-84149999D03*
%TO.P,U4,7,VSS*%
%TO.N,PGND*%
X155550000Y-83350001D03*
%TO.P,U4,8,LO*%
%TO.N,L2*%
X155550000Y-82550000D03*
D31*
%TO.P,U4,9,EPAD*%
%TO.N,PGND*%
X157525000Y-83750000D03*
%TD*%
D22*
%TO.P,C25,1*%
%TO.N,V2_sense*%
X149825000Y-108850000D03*
%TO.P,C25,2*%
%TO.N,AGND*%
X148275000Y-108850000D03*
%TD*%
D54*
%TO.P,U7,1,AGND_1*%
%TO.N,AGND*%
X143200000Y-105940000D03*
%TO.P,U7,2,AD13*%
%TO.N,Iout2*%
X143200000Y-105440000D03*
%TO.P,U7,3,AD06*%
%TO.N,CBC2*%
X143200000Y-104940000D03*
%TO.P,U7,4,AD04*%
%TO.N,CBC1*%
X143200000Y-104440000D03*
%TO.P,U7,5,AD03*%
%TO.N,V1_sense*%
X143200000Y-103940000D03*
%TO.P,U7,6,DGND_1*%
%TO.N,AGND*%
X143200000Y-103440000D03*
%TO.P,U7,7,~{RESET}*%
%TO.N,/MCU/{slash}RESET*%
X143200000Y-102940000D03*
%TO.P,U7,8,ADC_EXT_TRIG/TCAP/SYNC/PWM0*%
%TO.N,TCAP*%
X143200000Y-102440000D03*
%TO.P,U7,9,PMBUS_CLK/SCI_TX0*%
%TO.N,PMBUS_CLK*%
X143200000Y-101940000D03*
%TO.P,U7,10,PMBUS_DATA/SCI_RX0*%
%TO.N,PMBUS_DATA*%
X143200000Y-101440000D03*
D55*
%TO.P,U7,11,DPWM0A*%
%TO.N,DPWM0A*%
X143850000Y-100790000D03*
%TO.P,U7,12,DPWM0B*%
%TO.N,DPWM0B*%
X144350000Y-100790000D03*
%TO.P,U7,13,DPWM1A*%
%TO.N,DPWM1A*%
X144850000Y-100790000D03*
%TO.P,U7,14,DPWM1B*%
%TO.N,DPWM1B*%
X145350000Y-100790000D03*
%TO.P,U7,15,DPWM2A*%
%TO.N,DPWM2A*%
X145850000Y-100790000D03*
%TO.P,U7,16,DPWM2B*%
%TO.N,unconnected-(U7-DPWM2B-Pad16)*%
X146350000Y-100790000D03*
%TO.P,U7,17,DPWM3A*%
%TO.N,CHARGE_V1*%
X146850000Y-100790000D03*
%TO.P,U7,18,DPWM3B*%
%TO.N,CHARGE_V2*%
X147350000Y-100790000D03*
%TO.P,U7,19,PMBUS_ALERT*%
%TO.N,unconnected-(U7-PMBUS_ALERT-Pad19)*%
X147850000Y-100790000D03*
%TO.P,U7,20,PMBUS_CTRL*%
%TO.N,unconnected-(U7-PMBUS_CTRL-Pad20)*%
X148350000Y-100790000D03*
D54*
%TO.P,U7,21,TCK/TCAP/SYNC/PWM0*%
%TO.N,SYNC{slash}PWM0*%
X149000000Y-101440000D03*
%TO.P,U7,22,TDO/SCI_TX0/PMBUS_ALERT/FAULT0*%
%TO.N,DIRECTION*%
X149000000Y-101940000D03*
%TO.P,U7,23,TDI/SCI_RX0/PMBUS_CTRL/FAULT1*%
%TO.N,/MCU/FAULT*%
X149000000Y-102440000D03*
%TO.P,U7,24,TMS*%
%TO.N,/MCU/TMS*%
X149000000Y-102940000D03*
%TO.P,U7,25,FAULT2*%
%TO.N,AGND*%
X149000000Y-103440000D03*
%TO.P,U7,26,DGND_2*%
X149000000Y-103940000D03*
%TO.P,U7,27,V33D*%
%TO.N,+3.3VD*%
X149000000Y-104440000D03*
%TO.P,U7,28,BP18*%
%TO.N,Net-(U7-BP18)*%
X149000000Y-104940000D03*
%TO.P,U7,29,AGND_2*%
%TO.N,AGND*%
X149000000Y-105440000D03*
%TO.P,U7,30,AGND_3*%
X149000000Y-105940000D03*
D55*
%TO.P,U7,31,EAP0*%
%TO.N,V2_sense*%
X148350000Y-106590000D03*
%TO.P,U7,32,EAN0*%
%TO.N,AGND*%
X147850000Y-106590000D03*
%TO.P,U7,33,EAP1*%
%TO.N,Iout2_sense*%
X147350000Y-106590000D03*
%TO.P,U7,34,EAN1*%
%TO.N,AGND*%
X146850000Y-106590000D03*
%TO.P,U7,35,EAP2*%
%TO.N,V1_sense*%
X146350000Y-106590000D03*
%TO.P,U7,36,AGND_4*%
%TO.N,AGND*%
X145850000Y-106590000D03*
%TO.P,U7,37,V33A*%
%TO.N,+3.3VA*%
X145350000Y-106590000D03*
%TO.P,U7,38,AD00*%
%TO.N,Iout1*%
X144850000Y-106590000D03*
%TO.P,U7,39,AD01*%
%TO.N,V2_sense*%
X144350000Y-106590000D03*
%TO.P,U7,40,AD02*%
%TO.N,I_Share*%
X143850000Y-106590000D03*
D56*
%TO.P,U7,46,EP*%
%TO.N,AGND*%
X146100000Y-103690000D03*
D57*
%TO.P,U7,A1,GND_1*%
X143360000Y-106430000D03*
%TO.P,U7,A2,GND_2*%
X143360000Y-100950000D03*
%TO.P,U7,A3,GND_3*%
X148840000Y-100950000D03*
%TO.P,U7,A4,GND_4*%
X148840000Y-106430000D03*
%TD*%
D58*
%TO.P,D4,1,K*%
%TO.N,H2*%
X167186900Y-84200000D03*
%TO.P,D4,2,A*%
%TO.N,Net-(D4-A)*%
X167186900Y-80900000D03*
%TD*%
D26*
%TO.P,C13,1*%
%TO.N,/FSBB/U2_IN_A-*%
X120640000Y-99935000D03*
%TO.P,C13,2*%
%TO.N,Net-(U2A-OUT_A)*%
X120640000Y-101485000D03*
%TD*%
D24*
%TO.P,R31,1*%
%TO.N,Net-(U6-RON)*%
X96040000Y-86515000D03*
%TO.P,R31,2*%
%TO.N,PGND*%
X96040000Y-84865000D03*
%TD*%
D32*
%TO.P,SW2,1,1*%
%TO.N,SW2*%
X166200000Y-65000000D03*
%TD*%
D33*
%TO.P,C7,1*%
%TO.N,V2+*%
X178700000Y-75150000D03*
%TO.P,C7,2*%
%TO.N,PGND*%
X178700000Y-80250000D03*
%TD*%
D34*
%TO.P,Q7,1,B*%
%TO.N,Net-(Q7-B)*%
X198960000Y-99650000D03*
%TO.P,Q7,2,E*%
%TO.N,PGND*%
X197060000Y-99650000D03*
%TO.P,Q7,3,C*%
%TO.N,Net-(D12-K)*%
X198010000Y-97775000D03*
%TD*%
D24*
%TO.P,R17,1*%
%TO.N,Net-(U2A-IN_A+)*%
X125245000Y-98628000D03*
%TO.P,R17,2*%
%TO.N,/FSBB/R13_SENS1*%
X125245000Y-96978000D03*
%TD*%
D25*
%TO.P,C38,1*%
%TO.N,V1+*%
X89960000Y-89485000D03*
%TO.P,C38,2*%
%TO.N,PGND*%
X89960000Y-92435000D03*
%TD*%
D40*
%TO.P,R56,1*%
%TO.N,/MCU/FAULT*%
X146200000Y-112875000D03*
%TO.P,R56,2*%
%TO.N,+3.3VD*%
X146200000Y-114525000D03*
%TD*%
D44*
%TO.P,C30,1*%
%TO.N,Net-(D14-K)*%
X162086900Y-82625000D03*
%TO.P,C30,2*%
%TO.N,SW2*%
X162086900Y-85575000D03*
%TD*%
D20*
%TO.P,C52,1*%
%TO.N,Net-(U7-BP18)*%
X151700000Y-108150000D03*
%TO.P,C52,2*%
%TO.N,AGND*%
X153250000Y-108150000D03*
%TD*%
D32*
%TO.P,+3V3,1,1*%
%TO.N,+3.3VD*%
X159800000Y-112600000D03*
%TD*%
D59*
%TO.N,V1+*%
X107550000Y-73520000D03*
X107560000Y-76520000D03*
X112180000Y-73520000D03*
X102060000Y-76520000D03*
X106010000Y-76520000D03*
X102050000Y-73520000D03*
X110780000Y-76520000D03*
X106000000Y-73520000D03*
X113360000Y-73520000D03*
X109310000Y-73520000D03*
X110770000Y-73520000D03*
X103400000Y-73520000D03*
X103410000Y-76520000D03*
D60*
X99860000Y-87170000D03*
D59*
X109320000Y-76520000D03*
X104740000Y-76520000D03*
X114330000Y-73520000D03*
X104730000Y-73520000D03*
D60*
X98250000Y-105990000D03*
D59*
%TO.N,PGND*%
X110800000Y-78760000D03*
D60*
X171300400Y-111060000D03*
D59*
X108150000Y-81750000D03*
X175423333Y-95960000D03*
X177930000Y-81730000D03*
D61*
X113130000Y-85210000D03*
D60*
X171300000Y-108850000D03*
D61*
X111550000Y-85210000D03*
D60*
X96047031Y-83661513D03*
X195325000Y-102450000D03*
D59*
X131490000Y-97860000D03*
D61*
X112350000Y-86000000D03*
D60*
X114830000Y-98690000D03*
X170350000Y-110525000D03*
D59*
X181760000Y-78800000D03*
D61*
X158310000Y-82580000D03*
D60*
X114830000Y-98030000D03*
D61*
X156740000Y-82560000D03*
D59*
X176393333Y-96950000D03*
X179150000Y-78770000D03*
D60*
X116190000Y-98690000D03*
D59*
X103200000Y-81710000D03*
D60*
X96035915Y-93246583D03*
D59*
X104260000Y-81710000D03*
X129420000Y-98830000D03*
X183200000Y-78800000D03*
D61*
X97530000Y-92080000D03*
X156730000Y-84930000D03*
D60*
X155775000Y-80250000D03*
D61*
X156750000Y-83360000D03*
D60*
X157525000Y-86450000D03*
D59*
X129410000Y-99830000D03*
D60*
X176300000Y-117650000D03*
D59*
X105350000Y-81750000D03*
X175436666Y-98860000D03*
X181750000Y-81770000D03*
D61*
X113130000Y-86770000D03*
D59*
X130460000Y-97860000D03*
X180440000Y-78800000D03*
X176393333Y-97900000D03*
D61*
X112340000Y-87560000D03*
D59*
X173523333Y-96950000D03*
X109530000Y-81770000D03*
D61*
X157520000Y-83360000D03*
D59*
X130470000Y-98850000D03*
D60*
X95060000Y-98380000D03*
X114830000Y-99380000D03*
X187625000Y-115650000D03*
D59*
X174480000Y-97900000D03*
D60*
X179690764Y-115758454D03*
D59*
X104210000Y-78730000D03*
D60*
X176521000Y-115696000D03*
D61*
X156740000Y-84140000D03*
D60*
X182540000Y-100830000D03*
X89600000Y-100975000D03*
D61*
X113130000Y-87560000D03*
D59*
X130460000Y-99850000D03*
D61*
X113130000Y-85990000D03*
D59*
X129410000Y-96790000D03*
D60*
X180550000Y-115750000D03*
D61*
X111550000Y-85980000D03*
D59*
X130460000Y-96810000D03*
D61*
X112340000Y-85220000D03*
D59*
X177940000Y-78760000D03*
X180430000Y-81770000D03*
D60*
X171300400Y-109910000D03*
X115510000Y-98690000D03*
X190496736Y-106328264D03*
D61*
X158310000Y-83350000D03*
D59*
X106750000Y-78770000D03*
X176820000Y-81710000D03*
D60*
X89980000Y-110480000D03*
D59*
X131500000Y-98850000D03*
X173523333Y-97900000D03*
D61*
X112340000Y-86770000D03*
D60*
X114160000Y-98690000D03*
D59*
X176393333Y-98860000D03*
D61*
X118320000Y-98450000D03*
X157530000Y-84140000D03*
D60*
X114160000Y-97370000D03*
D61*
X111550000Y-86780000D03*
D59*
X179140000Y-81740000D03*
D61*
X158310000Y-84930000D03*
D59*
X175780000Y-78750000D03*
X131490000Y-96810000D03*
X174480000Y-96950000D03*
X175436666Y-96950000D03*
X108170000Y-78780000D03*
X176380000Y-95960000D03*
X110770000Y-81790000D03*
X173510000Y-95960000D03*
X174466667Y-95960000D03*
X184490000Y-78800000D03*
D60*
X88725000Y-100975000D03*
X185450000Y-115275000D03*
D59*
X103210000Y-78730000D03*
D61*
X157520000Y-82570000D03*
D59*
X183190000Y-81770000D03*
X129410000Y-97840000D03*
X131490000Y-99850000D03*
X175770000Y-81720000D03*
D60*
X114160000Y-98030000D03*
D61*
X157520000Y-84930000D03*
X111550000Y-87570000D03*
D59*
X109560000Y-78750000D03*
D61*
X98700000Y-92060000D03*
D59*
X184480000Y-81770000D03*
D60*
X188550000Y-105600000D03*
X115510000Y-98030000D03*
D59*
X176830000Y-78740000D03*
X105340000Y-78740000D03*
X106710000Y-81760000D03*
D61*
X158310000Y-84140000D03*
D59*
X174480000Y-98860000D03*
X175436666Y-97900000D03*
D61*
%TO.N,V2+*%
X183310000Y-91846400D03*
D59*
X176830000Y-73590000D03*
X184500000Y-76680000D03*
X181770000Y-76680000D03*
X183200000Y-73650000D03*
X180440000Y-73650000D03*
X180450000Y-76680000D03*
X181760000Y-73650000D03*
X179160000Y-76650000D03*
X175780000Y-73600000D03*
X177950000Y-76640000D03*
X176840000Y-76620000D03*
X175790000Y-76630000D03*
D60*
X158625000Y-98500000D03*
D59*
X179150000Y-73620000D03*
X177940000Y-73610000D03*
X184490000Y-73650000D03*
X183210000Y-76680000D03*
D61*
%TO.N,V1_sense*%
X137670000Y-104370000D03*
X146050000Y-107510000D03*
D60*
%TO.N,AGND*%
X167580000Y-107300000D03*
D61*
X141550000Y-109425000D03*
D60*
X159575000Y-100975000D03*
X162892500Y-118582500D03*
X115685000Y-113950000D03*
D61*
X147100000Y-109240000D03*
D60*
X162900000Y-105120000D03*
D61*
X139625000Y-102625000D03*
X139635000Y-105445000D03*
D60*
X169350000Y-110525000D03*
D61*
X141550000Y-108700000D03*
X147100000Y-108680000D03*
D60*
X139500000Y-117200000D03*
D61*
X145450000Y-109410000D03*
D60*
X154800000Y-100510000D03*
X145550000Y-117200000D03*
D61*
X149160000Y-100350000D03*
D60*
X167550000Y-105080000D03*
X162885000Y-107275000D03*
D61*
X142462500Y-100487500D03*
D60*
X122220000Y-104930000D03*
D61*
X147100000Y-109800000D03*
X145460000Y-108850000D03*
X154350000Y-107320000D03*
D60*
X126893000Y-104853000D03*
D61*
%TO.N,V2_sense*%
X142130000Y-107960000D03*
X148810000Y-107440000D03*
X158110000Y-107200000D03*
D60*
%TO.N,Net-(U2A-OUT_A)*%
X120640000Y-102590000D03*
D61*
X134610000Y-101850000D03*
D60*
%TO.N,Net-(U3A-OUT_A)*%
X159690000Y-105400000D03*
D61*
X150450000Y-112150000D03*
X137000000Y-106440000D03*
D60*
%TO.N,+12V*%
X169750000Y-116600000D03*
X97280000Y-70540000D03*
X94975000Y-103070000D03*
X176949000Y-105251000D03*
X96800000Y-71020000D03*
X97775000Y-70045000D03*
X94975000Y-103830000D03*
X94990000Y-102350000D03*
X162200000Y-108824000D03*
D61*
%TO.N,CBC1*%
X142370000Y-104290000D03*
%TO.N,CBC2*%
X142410000Y-104940000D03*
D60*
%TO.N,SW1*%
X118480000Y-89630000D03*
X124610000Y-80970000D03*
X118480000Y-88920000D03*
X124600000Y-66550000D03*
D61*
%TO.N,Iout2_sense*%
X147550000Y-107500000D03*
D59*
%TO.N,SW2*%
X167270000Y-79260000D03*
D60*
X166200000Y-65975000D03*
X160980000Y-87940000D03*
X160980000Y-88600000D03*
%TO.N,+12V_X*%
X111996250Y-105760000D03*
X108831250Y-105760000D03*
X114370000Y-105760000D03*
X191668400Y-116467467D03*
X191668400Y-117246400D03*
X109622500Y-105760000D03*
X108040000Y-105760000D03*
X111205000Y-105760000D03*
X192430400Y-117246400D03*
X191668400Y-115688533D03*
X113578750Y-105760000D03*
X192430400Y-116484400D03*
X110413750Y-105760000D03*
X192430400Y-115697000D03*
X112787500Y-105760000D03*
D61*
%TO.N,+3.3VD*%
X162200000Y-114900000D03*
%TO.N,I_Share*%
X157010000Y-115600000D03*
X141460000Y-107820000D03*
%TO.N,/MCU/{slash}RESET*%
X137280000Y-105690000D03*
%TO.N,PMBUS_DATA*%
X142160000Y-101224997D03*
D60*
X118570000Y-111410000D03*
D61*
%TO.N,/MCU/FAULT*%
X154130000Y-112870000D03*
X145240000Y-113500000D03*
X150975000Y-100005000D03*
%TO.N,/MCU/TMS*%
X150230000Y-102780000D03*
X151260000Y-115720000D03*
%TO.N,PMBUS_CLK*%
X142160000Y-101775000D03*
D60*
X119250000Y-114770000D03*
%TO.N,DIRECTION*%
X128975000Y-110865000D03*
D61*
X150460000Y-100980000D03*
D59*
%TO.N,Net-(D1-A)*%
X119630000Y-80180000D03*
X119640000Y-80980000D03*
D60*
%TO.N,H1*%
X118225000Y-82675000D03*
X118225000Y-66675000D03*
%TO.N,L1*%
X109325000Y-66625000D03*
X103800000Y-84575000D03*
%TO.N,Net-(D2-A)*%
X119810000Y-95620000D03*
X119810000Y-96330000D03*
D61*
%TO.N,L2*%
X154160000Y-81840000D03*
D60*
X154160000Y-66610000D03*
%TO.N,Net-(D3-A)*%
X161900000Y-97940000D03*
X161900000Y-97290000D03*
D61*
%TO.N,H2*%
X160930000Y-84149999D03*
D60*
X159975000Y-66925000D03*
D59*
%TO.N,Net-(D4-A)*%
X161840000Y-80140000D03*
X161850000Y-80940000D03*
D61*
%TO.N,Net-(D11-A)*%
X93330000Y-102450000D03*
%TO.N,Net-(D11-K)*%
X89930000Y-105230000D03*
%TO.N,Net-(D12-K)*%
X198740000Y-95710000D03*
%TO.N,Net-(D12-A)*%
X194590000Y-96100000D03*
%TO.N,/FSBB/R13_SENS1*%
X118410000Y-96960000D03*
D60*
X93400000Y-98390000D03*
%TO.N,/FSBB/R14_SENS2*%
X184850000Y-100820000D03*
D61*
%TO.N,SYNC{slash}PWM0*%
X149900000Y-100580000D03*
%TO.N,TCAP*%
X142350000Y-102440000D03*
%TO.N,DPWM2A*%
X146060000Y-99810000D03*
%TO.N,CHARGE_V1*%
X146860000Y-99450000D03*
X95070000Y-108480000D03*
%TO.N,CHARGE_V2*%
X192590000Y-101600000D03*
X147770000Y-99440000D03*
D60*
%TO.N,DPWM0B*%
X144350000Y-98420000D03*
X141910000Y-98440000D03*
%TO.N,DPWM1A*%
X154380000Y-84950000D03*
D61*
X149370000Y-84950000D03*
D60*
%TO.N,DPWM1B*%
X152630000Y-84140000D03*
X154380000Y-84149999D03*
%TD*%
D62*
%TO.N,PGND*%
X118320000Y-98450000D02*
X121060000Y-98450000D01*
D63*
X157525000Y-87155000D02*
X157525000Y-86450000D01*
X197060000Y-100380000D02*
X196800000Y-100640000D01*
X96035915Y-93246583D02*
X96035915Y-92030000D01*
D64*
X164660000Y-97930000D02*
X165420000Y-97170000D01*
X171160000Y-97170000D02*
X174820000Y-100830000D01*
D63*
X195325000Y-102450000D02*
X195335000Y-102440000D01*
X195335000Y-102440000D02*
X195335000Y-100640000D01*
D64*
X165420000Y-97170000D02*
X171160000Y-97170000D01*
D63*
X184727500Y-105602500D02*
X185677500Y-105602500D01*
D65*
X171300400Y-109910000D02*
X171300400Y-108850400D01*
D64*
X164660000Y-99005000D02*
X164660000Y-97930000D01*
D63*
X101885000Y-83025000D02*
X103200000Y-81710000D01*
X94295000Y-92435000D02*
X94700000Y-92030000D01*
X188547500Y-105602500D02*
X188550000Y-105600000D01*
X174650000Y-117650000D02*
X176300000Y-117650000D01*
D65*
X171300400Y-108850400D02*
X171300000Y-108850000D01*
D63*
X115740000Y-100290000D02*
X114830000Y-99380000D01*
D62*
X122532000Y-96978000D02*
X123595000Y-96978000D01*
X161245000Y-90875000D02*
X157525000Y-87155000D01*
D63*
X185677500Y-105602500D02*
X188547500Y-105602500D01*
X89975000Y-110475000D02*
X89975000Y-109550000D01*
D66*
X112340000Y-85220000D02*
X112340000Y-82490000D01*
D62*
X121060000Y-98450000D02*
X122532000Y-96978000D01*
D63*
X89975000Y-108645000D02*
X89975000Y-109550000D01*
X187635000Y-115640000D02*
X188709000Y-115640000D01*
D66*
X112340000Y-82490000D02*
X112350000Y-82480000D01*
D62*
X161900000Y-90875000D02*
X161245000Y-90875000D01*
D63*
X101885000Y-86010000D02*
X101885000Y-83025000D01*
X89960000Y-92435000D02*
X93265085Y-92435000D01*
X93265085Y-92435000D02*
X94295000Y-92435000D01*
D66*
X90240000Y-98430000D02*
X90240000Y-100335000D01*
X90240000Y-100335000D02*
X89600000Y-100975000D01*
D63*
X89850000Y-108520000D02*
X89975000Y-108645000D01*
X94700000Y-92030000D02*
X96035915Y-92030000D01*
D66*
X190496736Y-106328264D02*
X190496736Y-108427500D01*
X89600000Y-100975000D02*
X88725000Y-100975000D01*
D63*
X96047031Y-84857969D02*
X96047031Y-83661513D01*
D64*
X174820000Y-100830000D02*
X182540000Y-100830000D01*
D63*
X197060000Y-99650000D02*
X197060000Y-100380000D01*
D62*
X155775000Y-80250000D02*
X157110000Y-80250000D01*
D63*
X96040000Y-84865000D02*
X96047031Y-84857969D01*
X89980000Y-110480000D02*
X89975000Y-110475000D01*
X187625000Y-115650000D02*
X187635000Y-115640000D01*
D65*
X171300400Y-111988600D02*
X171300400Y-111060000D01*
D63*
X110365000Y-85980001D02*
X111550000Y-85980000D01*
D65*
X171300400Y-111060000D02*
X171300400Y-109910000D01*
D63*
X196800000Y-100640000D02*
X195335000Y-100640000D01*
X157525000Y-86450000D02*
X157525000Y-83750000D01*
X89850000Y-107100000D02*
X89850000Y-108520000D01*
X115740000Y-101535000D02*
X115740000Y-100290000D01*
D64*
%TO.N,V1_sense*%
X146050000Y-107510000D02*
X146350000Y-107210000D01*
X146350000Y-107210000D02*
X146350000Y-106590000D01*
X142540000Y-103670000D02*
X141450000Y-103670000D01*
X138115000Y-103925000D02*
X138800000Y-103925000D01*
X141450000Y-103670000D02*
X141195000Y-103925000D01*
X137670000Y-104370000D02*
X138115000Y-103925000D01*
X138800000Y-103925000D02*
X140450000Y-103925000D01*
X140465000Y-103940000D02*
X140450000Y-103925000D01*
X143200000Y-103940000D02*
X142810000Y-103940000D01*
X141195000Y-103925000D02*
X140450000Y-103925000D01*
X142810000Y-103940000D02*
X142540000Y-103670000D01*
D63*
%TO.N,AGND*%
X169200000Y-107300000D02*
X167580000Y-107300000D01*
D65*
X153400000Y-102980000D02*
X153425000Y-102955000D01*
D63*
X142462500Y-100487500D02*
X142325000Y-100350000D01*
D65*
X128245000Y-102728000D02*
X126822000Y-102728000D01*
D67*
X149830000Y-103940000D02*
X150495000Y-103275000D01*
X149000000Y-103940000D02*
X149830000Y-103940000D01*
D63*
X167550000Y-105080000D02*
X167190000Y-104720000D01*
D65*
X126730000Y-102636000D02*
X126730000Y-102250000D01*
D62*
X128980000Y-114060000D02*
X128270000Y-114060000D01*
D63*
X153250000Y-107320000D02*
X153250000Y-108150000D01*
D65*
X115685000Y-113950000D02*
X115685000Y-113160000D01*
D64*
X146850000Y-106590000D02*
X146850000Y-108190000D01*
D65*
X153425000Y-102955000D02*
X153425000Y-101200000D01*
X153400000Y-103275000D02*
X153400000Y-102980000D01*
X129895000Y-102635000D02*
X128338000Y-102635000D01*
D63*
X168060000Y-99005000D02*
X167960000Y-99105000D01*
X161150000Y-107275000D02*
X162885000Y-107275000D01*
X142325000Y-100350000D02*
X140450000Y-100350000D01*
D65*
X160690000Y-117710000D02*
X159340000Y-117710000D01*
D63*
X169610000Y-99005000D02*
X168060000Y-99005000D01*
D65*
X126730000Y-102250000D02*
X126315000Y-101835000D01*
D67*
X150495000Y-103275000D02*
X151200000Y-103275000D01*
D65*
X128338000Y-102635000D02*
X128245000Y-102728000D01*
X126893000Y-104853000D02*
X128245000Y-104853000D01*
X153400000Y-103275000D02*
X154533333Y-103275000D01*
D63*
X169710000Y-105080000D02*
X171220000Y-103570000D01*
D65*
X115685000Y-114770000D02*
X115685000Y-113950000D01*
D63*
X171220000Y-99670000D02*
X170555000Y-99005000D01*
D65*
X152866667Y-103275000D02*
X153400000Y-103275000D01*
D63*
X159575000Y-100975000D02*
X157600000Y-100975000D01*
D65*
X159340000Y-117710000D02*
X159340000Y-115605000D01*
D64*
X149160000Y-100370000D02*
X148840000Y-100690000D01*
D65*
X159340000Y-115605000D02*
X159345000Y-115600000D01*
D63*
X167190000Y-104720000D02*
X167190000Y-103400000D01*
D62*
X130525000Y-112515000D02*
X128980000Y-114060000D01*
X130525000Y-112000000D02*
X130525000Y-112515000D01*
D64*
X149160000Y-100350000D02*
X149160000Y-100370000D01*
D65*
X151200000Y-103275000D02*
X152866667Y-103275000D01*
X126315000Y-101835000D02*
X126315000Y-100978000D01*
D63*
X170555000Y-99005000D02*
X169610000Y-99005000D01*
D64*
X143207500Y-100487500D02*
X143360000Y-100640000D01*
X143360000Y-100640000D02*
X143360000Y-100950000D01*
X142462500Y-100487500D02*
X143207500Y-100487500D01*
D65*
X154533333Y-103275000D02*
X156200000Y-103275000D01*
X115685000Y-113160000D02*
X115625000Y-113100000D01*
D63*
X153250000Y-106550000D02*
X153250000Y-107320000D01*
D65*
X120590000Y-105350000D02*
X121010000Y-104930000D01*
X161050000Y-117350000D02*
X160690000Y-117710000D01*
X120590000Y-106005000D02*
X120590000Y-105350000D01*
X121010000Y-104930000D02*
X122220000Y-104930000D01*
X153425000Y-100510000D02*
X154800000Y-100510000D01*
D64*
X148840000Y-100690000D02*
X148840000Y-100950000D01*
D65*
X153425000Y-101200000D02*
X153425000Y-100510000D01*
X153425000Y-100510000D02*
X153425000Y-99550000D01*
X162200000Y-117350000D02*
X161050000Y-117350000D01*
X126822000Y-102728000D02*
X126730000Y-102636000D01*
D63*
X171220000Y-103570000D02*
X171220000Y-99670000D01*
X167550000Y-105080000D02*
X169710000Y-105080000D01*
X153250000Y-107320000D02*
X154350000Y-107320000D01*
D64*
%TO.N,V2_sense*%
X148810000Y-107440000D02*
X148350000Y-106980000D01*
X149825000Y-108455000D02*
X149825000Y-108850000D01*
X148350000Y-106980000D02*
X148350000Y-106590000D01*
X142550000Y-107540000D02*
X142130000Y-107960000D01*
X144350000Y-106590000D02*
X144350000Y-106962000D01*
X144350000Y-106962000D02*
X143772000Y-107540000D01*
X143772000Y-107540000D02*
X142550000Y-107540000D01*
X148810000Y-107440000D02*
X149825000Y-108455000D01*
D63*
%TO.N,Net-(U2A-OUT_A)*%
X121862000Y-100978000D02*
X121355000Y-101485000D01*
X120630000Y-101485000D02*
X119088000Y-101485000D01*
X119088000Y-101485000D02*
X118995000Y-101578000D01*
X121355000Y-101485000D02*
X120640000Y-101485000D01*
D64*
X136875000Y-110175000D02*
X138850000Y-110175000D01*
D63*
X120640000Y-101485000D02*
X120630000Y-101485000D01*
X122505000Y-100978000D02*
X121862000Y-100978000D01*
D64*
X134610000Y-101850000D02*
X135460000Y-102700000D01*
X135460000Y-108760000D02*
X136875000Y-110175000D01*
D63*
X120640000Y-102590000D02*
X120640000Y-101485000D01*
D64*
X135460000Y-102700000D02*
X135460000Y-108760000D01*
D65*
%TO.N,/FSBB/U2_IN_A-*%
X120640000Y-99935000D02*
X120995000Y-99935000D01*
X120995000Y-99935000D02*
X122302000Y-98628000D01*
X118995000Y-99928000D02*
X120633000Y-99928000D01*
X120633000Y-99928000D02*
X120640000Y-99935000D01*
X123775000Y-98808000D02*
X123595000Y-98628000D01*
X122302000Y-98628000D02*
X123595000Y-98628000D01*
X123775000Y-100978000D02*
X123775000Y-98808000D01*
D63*
%TO.N,Net-(U3A-OUT_A)*%
X163095000Y-104255000D02*
X161350000Y-104255000D01*
X163380000Y-103970000D02*
X163095000Y-104255000D01*
X159790000Y-104255000D02*
X159690000Y-104355000D01*
X163380000Y-103400000D02*
X163380000Y-103970000D01*
X159690000Y-104355000D02*
X159690000Y-105400000D01*
D64*
X137000000Y-106440000D02*
X137000000Y-108260000D01*
D63*
X161350000Y-104255000D02*
X159790000Y-104255000D01*
D64*
X137515000Y-108775000D02*
X138830000Y-108775000D01*
X137000000Y-108260000D02*
X137515000Y-108775000D01*
X137000000Y-106440000D02*
X137000000Y-106400000D01*
D66*
%TO.N,+12V*%
X97405000Y-107555000D02*
X96710000Y-106860000D01*
X182400000Y-103320000D02*
X186380000Y-103320000D01*
X94975000Y-104890000D02*
X94975000Y-103830000D01*
D65*
X161151000Y-108824000D02*
X161150000Y-108825000D01*
D66*
X159436900Y-69813100D02*
X161250000Y-68000000D01*
X176949000Y-105251000D02*
X176010300Y-104312300D01*
X176010300Y-104312300D02*
X176010300Y-104309699D01*
D63*
X179375000Y-107725000D02*
X180950000Y-107725000D01*
X159500000Y-82550000D02*
X159500000Y-80740000D01*
X114315000Y-82545000D02*
X114250000Y-82480000D01*
D66*
X186380000Y-103320000D02*
X189610000Y-100090000D01*
D63*
X159010000Y-79490000D02*
X159010000Y-80250000D01*
D66*
X96710000Y-103840000D02*
X95910000Y-103040000D01*
X161250000Y-68000000D02*
X158425000Y-68000000D01*
D63*
X156630000Y-77110000D02*
X159010000Y-79490000D01*
D66*
X159436900Y-74500000D02*
X159436900Y-69813100D01*
X121915000Y-107555000D02*
X120590000Y-107555000D01*
X97775000Y-70045000D02*
X97280000Y-70540000D01*
D63*
X114315000Y-85180000D02*
X114315000Y-82545000D01*
D65*
X171289000Y-116600000D02*
X171300400Y-116611400D01*
D66*
X174650000Y-115750000D02*
X174650000Y-105670000D01*
D65*
X169750000Y-116600000D02*
X171289000Y-116600000D01*
X115480000Y-80330000D02*
X115480000Y-78260000D01*
D66*
X94975000Y-103070000D02*
X94975000Y-103830000D01*
D65*
X172348600Y-116611400D02*
X173210000Y-115750000D01*
X163380000Y-108824000D02*
X162200000Y-108824000D01*
D66*
X156630000Y-69795000D02*
X158425000Y-68000000D01*
X116670000Y-70380000D02*
X119050000Y-68000000D01*
X174650000Y-105670000D02*
X176010300Y-104309699D01*
D65*
X114250000Y-82480000D02*
X114250000Y-81560000D01*
D66*
X189610000Y-72140000D02*
X185470000Y-68000000D01*
D65*
X115480000Y-78260000D02*
X116670000Y-77070000D01*
D66*
X94975000Y-102365000D02*
X94975000Y-103070000D01*
X185470000Y-68000000D02*
X161250000Y-68000000D01*
X158425000Y-68000000D02*
X119050000Y-68000000D01*
X95910000Y-103040000D02*
X94975000Y-103040000D01*
D63*
X192035000Y-96100000D02*
X189610000Y-96100000D01*
D65*
X122505000Y-106402000D02*
X122505000Y-106965000D01*
D66*
X116670000Y-77070000D02*
X116670000Y-70380000D01*
X176010300Y-104309699D02*
X177000000Y-103320000D01*
D65*
X171300400Y-116611400D02*
X172348600Y-116611400D01*
D66*
X177000000Y-103320000D02*
X182400000Y-103320000D01*
X96710000Y-106860000D02*
X96710000Y-103840000D01*
X99820000Y-68000000D02*
X97775000Y-70045000D01*
X156630000Y-77110000D02*
X156630000Y-69795000D01*
X120590000Y-107555000D02*
X97405000Y-107555000D01*
D65*
X122505000Y-106965000D02*
X121915000Y-107555000D01*
D66*
X189610000Y-100090000D02*
X189610000Y-96100000D01*
X119050000Y-68000000D02*
X99820000Y-68000000D01*
D65*
X114250000Y-81560000D02*
X115480000Y-80330000D01*
X173210000Y-115750000D02*
X174650000Y-115750000D01*
X162200000Y-108824000D02*
X161151000Y-108824000D01*
D63*
X159500000Y-80740000D02*
X159010000Y-80250000D01*
D66*
X97280000Y-70540000D02*
X96800000Y-71020000D01*
X182400000Y-103320000D02*
X182400000Y-105600000D01*
X189610000Y-96100000D02*
X189610000Y-72140000D01*
D64*
%TO.N,CBC1*%
X142370000Y-104290000D02*
X142520000Y-104440000D01*
X142520000Y-104440000D02*
X143200000Y-104440000D01*
%TO.N,CBC2*%
X142410000Y-104940000D02*
X143200000Y-104940000D01*
%TO.N,Iout1*%
X143610000Y-108400000D02*
X144850000Y-107160000D01*
X138850000Y-111825000D02*
X140420000Y-111825000D01*
X141225000Y-111815000D02*
X143610000Y-109430000D01*
X143610000Y-109430000D02*
X143610000Y-108400000D01*
X140420000Y-111825000D02*
X140430000Y-111815000D01*
X144850000Y-107160000D02*
X144850000Y-106590000D01*
X140430000Y-111815000D02*
X141225000Y-111815000D01*
D65*
%TO.N,Net-(U2A-IN_A+)*%
X125045000Y-98828000D02*
X125245000Y-98628000D01*
X128245000Y-101078000D02*
X129888000Y-101078000D01*
X128245000Y-99365000D02*
X128245000Y-101078000D01*
X125045000Y-100978000D02*
X125045000Y-98828000D01*
X129888000Y-101078000D02*
X129895000Y-101085000D01*
X127508000Y-98628000D02*
X128245000Y-99365000D01*
X125245000Y-98628000D02*
X127508000Y-98628000D01*
D64*
%TO.N,Iout2*%
X143200000Y-105440000D02*
X142390000Y-105440000D01*
X142010000Y-106480000D02*
X141365000Y-107125000D01*
X142010000Y-105820000D02*
X142010000Y-106480000D01*
X140400000Y-107125000D02*
X138830000Y-107125000D01*
X142390000Y-105440000D02*
X142010000Y-105820000D01*
X141365000Y-107125000D02*
X140400000Y-107125000D01*
D63*
%TO.N,SW1*%
X115645000Y-88265000D02*
X116660000Y-88265000D01*
D66*
X116665000Y-88260000D02*
X116660000Y-88265000D01*
X118410000Y-88920000D02*
X117750000Y-88260000D01*
X118480000Y-89630000D02*
X118480000Y-88920000D01*
X117750000Y-88260000D02*
X116665000Y-88260000D01*
D63*
X114960000Y-87580000D02*
X115645000Y-88265000D01*
X114315000Y-87580000D02*
X114960000Y-87580000D01*
X122775000Y-79170000D02*
X123640000Y-79170000D01*
D66*
X118480000Y-88920000D02*
X118410000Y-88920000D01*
D63*
X124610000Y-80140000D02*
X124610000Y-80970000D01*
X123640000Y-79170000D02*
X124610000Y-80140000D01*
D62*
%TO.N,Net-(U3A-IN_A+)*%
X165920000Y-101045000D02*
X166310000Y-100655000D01*
D63*
X167960000Y-100655000D02*
X169610000Y-100655000D01*
X166310000Y-100655000D02*
X167960000Y-100655000D01*
D62*
X165920000Y-103400000D02*
X165920000Y-101045000D01*
D64*
%TO.N,Iout2_sense*%
X147350000Y-107300000D02*
X147550000Y-107500000D01*
X147350000Y-106590000D02*
X147350000Y-107300000D01*
D63*
%TO.N,Net-(U3B-IN_B+)*%
X167690000Y-110020000D02*
X168690000Y-110020000D01*
X167190000Y-108824000D02*
X167190000Y-109520000D01*
X169200000Y-109510000D02*
X169200000Y-108850000D01*
X167190000Y-109520000D02*
X167690000Y-110020000D01*
X168690000Y-110020000D02*
X169200000Y-109510000D01*
D65*
%TO.N,Net-(U2B-IN_B+)*%
X126315000Y-106402000D02*
X128244000Y-106402000D01*
X128244000Y-106402000D02*
X128245000Y-106403000D01*
%TO.N,SW2*%
X160980000Y-87940000D02*
X160980000Y-88600000D01*
D63*
X166100000Y-76500000D02*
X167270000Y-77670000D01*
X167270000Y-77670000D02*
X167270000Y-79260000D01*
D65*
X162086900Y-86413100D02*
X160980000Y-87520000D01*
D63*
X163211900Y-76500000D02*
X166100000Y-76500000D01*
X166200000Y-65975000D02*
X166200000Y-65000000D01*
D62*
X159985000Y-84950000D02*
X159500000Y-84950000D01*
D63*
X160610000Y-85575000D02*
X162086900Y-85575000D01*
D62*
X160610000Y-85575000D02*
X159985000Y-84950000D01*
D65*
X162086900Y-85575000D02*
X162086900Y-86413100D01*
X160980000Y-87520000D02*
X160980000Y-87940000D01*
D63*
%TO.N,+12V_X*%
X194275000Y-113675000D02*
X192875000Y-113675000D01*
X106805000Y-99105000D02*
X107700000Y-100000000D01*
X106805000Y-90820000D02*
X106805000Y-99105000D01*
X105175000Y-87610000D02*
X106170000Y-87610000D01*
X106805000Y-88245000D02*
X106805000Y-90820000D01*
X106170000Y-87610000D02*
X106805000Y-88245000D01*
D65*
%TO.N,+3.3VD*%
X143280000Y-115330000D02*
X133930000Y-115330000D01*
X162200000Y-114900000D02*
X162200000Y-114300000D01*
D64*
X149000000Y-104440000D02*
X150815000Y-104440000D01*
D65*
X157350000Y-105380000D02*
X157350000Y-114290000D01*
X133260000Y-101640000D02*
X134655000Y-100245000D01*
X159800000Y-114300000D02*
X157480000Y-114300000D01*
X134655000Y-100245000D02*
X138740000Y-100245000D01*
X133260000Y-115330000D02*
X133260000Y-101640000D01*
X153250000Y-109750000D02*
X157350000Y-109750000D01*
X164899600Y-114300000D02*
X162200000Y-114300000D01*
X125750000Y-110400000D02*
X122980000Y-110400000D01*
X152866667Y-104825000D02*
X154533333Y-104825000D01*
X162200000Y-115800000D02*
X162200000Y-114900000D01*
X143540000Y-115070000D02*
X143280000Y-115330000D01*
X151520000Y-114300000D02*
X150750000Y-115070000D01*
X122220000Y-115330000D02*
X133930000Y-115330000D01*
X162200000Y-114300000D02*
X159800000Y-114300000D01*
X152866667Y-104825000D02*
X151200000Y-104825000D01*
X157480000Y-114300000D02*
X151520000Y-114300000D01*
X121250000Y-112130000D02*
X121250000Y-114360000D01*
X159800000Y-114300000D02*
X159800000Y-112600000D01*
X150750000Y-115070000D02*
X143540000Y-115070000D01*
D64*
X150815000Y-104440000D02*
X151200000Y-104825000D01*
D65*
X156795000Y-104825000D02*
X157350000Y-105380000D01*
X154533333Y-104825000D02*
X156200000Y-104825000D01*
X156200000Y-104825000D02*
X156795000Y-104825000D01*
X122980000Y-110400000D02*
X121250000Y-112130000D01*
X121250000Y-114360000D02*
X122220000Y-115330000D01*
X171300400Y-114300000D02*
X164899600Y-114300000D01*
D63*
%TO.N,Net-(U6-BST)*%
X101459915Y-90760000D02*
X103595000Y-90760000D01*
X103595000Y-90760000D02*
X103600000Y-90765000D01*
D67*
%TO.N,+3.3VA*%
X144970000Y-108110000D02*
X144675000Y-108405000D01*
D63*
X143950000Y-112875000D02*
X143950000Y-111175000D01*
D67*
X144675000Y-108405000D02*
X144675000Y-108850000D01*
D64*
X144970000Y-108110000D02*
X145350000Y-107730000D01*
D63*
X143950000Y-111175000D02*
X144675000Y-110450000D01*
D64*
X145350000Y-107730000D02*
X145350000Y-106590000D01*
D63*
X144675000Y-110450000D02*
X144675000Y-108850000D01*
D62*
%TO.N,I_Share*%
X157795000Y-115600000D02*
X157010000Y-115600000D01*
D64*
X143850000Y-106810000D02*
X143850000Y-106590000D01*
X141460000Y-107820000D02*
X142280000Y-107000000D01*
X142280000Y-107000000D02*
X143660000Y-107000000D01*
X143660000Y-107000000D02*
X143850000Y-106810000D01*
D62*
X157010000Y-115600000D02*
X156270000Y-115600000D01*
D63*
%TO.N,Net-(U7-BP18)*%
X151700000Y-109750000D02*
X151700000Y-108150000D01*
D64*
X149000000Y-104940000D02*
X149550000Y-104940000D01*
X150160000Y-106090000D02*
X150620000Y-106550000D01*
X149550000Y-104940000D02*
X150160000Y-105550000D01*
X150160000Y-105550000D02*
X150160000Y-106090000D01*
X150620000Y-106550000D02*
X151700000Y-106550000D01*
D63*
X151700000Y-108150000D02*
X151700000Y-106550000D01*
D64*
%TO.N,/MCU/{slash}RESET*%
X140450000Y-102450000D02*
X140450000Y-101900000D01*
X140450000Y-101900000D02*
X138745000Y-101900000D01*
X142350000Y-102940000D02*
X140940000Y-102940000D01*
X138745000Y-101900000D02*
X138740000Y-101895000D01*
X136370000Y-104200000D02*
X136370000Y-102680000D01*
X143200000Y-102940000D02*
X142350000Y-102940000D01*
X136370000Y-102680000D02*
X137155000Y-101895000D01*
X140940000Y-102940000D02*
X140450000Y-102450000D01*
X137155000Y-101895000D02*
X138740000Y-101895000D01*
X137280000Y-105690000D02*
X137280000Y-105110000D01*
X137280000Y-105110000D02*
X136370000Y-104200000D01*
D62*
%TO.N,PMBUS_DATA*%
X117175000Y-111410000D02*
X118570000Y-111410000D01*
D64*
X142514997Y-101224997D02*
X142730000Y-101440000D01*
X142730000Y-101440000D02*
X143200000Y-101440000D01*
X142160000Y-101224997D02*
X142514997Y-101224997D01*
D62*
X117175000Y-113100000D02*
X117175000Y-111410000D01*
D64*
%TO.N,/MCU/FAULT*%
X150970000Y-100010000D02*
X150975000Y-100005000D01*
X145865000Y-112875000D02*
X145240000Y-113500000D01*
X150200000Y-101860000D02*
X150700000Y-101860000D01*
X149000000Y-102440000D02*
X149620000Y-102440000D01*
X151430000Y-99550000D02*
X151875000Y-99550000D01*
X146200000Y-112875000D02*
X145865000Y-112875000D01*
X150700000Y-101860000D02*
X150970000Y-101590000D01*
X150970000Y-101590000D02*
X150970000Y-100010000D01*
X149620000Y-102440000D02*
X150200000Y-101860000D01*
X150975000Y-100005000D02*
X151430000Y-99550000D01*
%TO.N,/MCU/TMS*%
X150230000Y-102780000D02*
X150650000Y-102360000D01*
X150230000Y-102780000D02*
X150070000Y-102940000D01*
D68*
X150805000Y-116175000D02*
X148550000Y-116175000D01*
X151260000Y-115720000D02*
X150805000Y-116175000D01*
D64*
X151250000Y-102360000D02*
X151875000Y-101735000D01*
X150070000Y-102940000D02*
X149000000Y-102940000D01*
X150650000Y-102360000D02*
X151250000Y-102360000D01*
X151875000Y-101735000D02*
X151875000Y-101200000D01*
%TO.N,PMBUS_CLK*%
X142510000Y-101940000D02*
X143200000Y-101940000D01*
D62*
X117225000Y-116450000D02*
X117225000Y-114780000D01*
X117235000Y-114770000D02*
X119250000Y-114770000D01*
X117225000Y-114780000D02*
X117235000Y-114770000D01*
D64*
X142345000Y-101775000D02*
X142510000Y-101940000D01*
X142160000Y-101775000D02*
X142345000Y-101775000D01*
D62*
%TO.N,DIRECTION*%
X128975000Y-110865000D02*
X128975000Y-112000000D01*
D64*
X149580000Y-101940000D02*
X149880000Y-101640000D01*
X149880000Y-101640000D02*
X150460000Y-101060000D01*
X150460000Y-101060000D02*
X150460000Y-100980000D01*
X149000000Y-101940000D02*
X149580000Y-101940000D01*
D62*
X127400000Y-110400000D02*
X127400000Y-112000000D01*
X127400000Y-112000000D02*
X128975000Y-112000000D01*
D65*
%TO.N,Net-(D1-A)*%
X121232500Y-81802500D02*
X120670000Y-81240000D01*
X120410000Y-80980000D02*
X119640000Y-80980000D01*
D66*
X119630000Y-80180000D02*
X119630000Y-80970000D01*
D65*
X120670000Y-81240000D02*
X120410000Y-80980000D01*
D63*
X121125000Y-79170000D02*
X121125000Y-80785000D01*
D65*
X122712500Y-84150000D02*
X121232500Y-82670000D01*
D66*
X119630000Y-80970000D02*
X119640000Y-80980000D01*
D63*
X121125000Y-80785000D02*
X120670000Y-81240000D01*
D65*
X121232500Y-82670000D02*
X121232500Y-81802500D01*
X122712500Y-85100000D02*
X122712500Y-84150000D01*
D63*
%TO.N,H1*%
X119412500Y-86107500D02*
X119412500Y-85100000D01*
X114315000Y-86779999D02*
X118740001Y-86779999D01*
X118740001Y-86779999D02*
X119412500Y-86107500D01*
X119407500Y-82670000D02*
X118230000Y-82670000D01*
X118230000Y-82670000D02*
X118225000Y-82675000D01*
X119412500Y-82675000D02*
X119407500Y-82670000D01*
X119412500Y-85100000D02*
X119412500Y-82675000D01*
%TO.N,L1*%
X114640000Y-92670000D02*
X114640000Y-94421600D01*
X108390000Y-88910000D02*
X108390000Y-86775000D01*
X114640000Y-92670000D02*
X112150000Y-92670000D01*
X112150000Y-92670000D02*
X108390000Y-88910000D01*
D62*
X106725000Y-86775000D02*
X108390000Y-86775000D01*
X104525000Y-84575000D02*
X106725000Y-86775000D01*
X103800000Y-84575000D02*
X104525000Y-84575000D01*
D63*
X108390000Y-86000000D02*
X109210000Y-85180000D01*
X115308400Y-95090000D02*
X116127500Y-95090000D01*
X109210000Y-85180000D02*
X110365000Y-85180000D01*
X114640000Y-94421600D02*
X115308400Y-95090000D01*
X108390000Y-86775000D02*
X108390000Y-86000000D01*
D65*
%TO.N,Net-(D2-A)*%
X119830000Y-96310000D02*
X119830000Y-96300000D01*
X117940000Y-92670000D02*
X117940000Y-95077500D01*
X119830000Y-96350000D02*
X119810000Y-96330000D01*
X119810000Y-96330000D02*
X119830000Y-96310000D01*
X117952500Y-95090000D02*
X119280000Y-95090000D01*
X119810000Y-95620000D02*
X119810000Y-96330000D01*
X117940000Y-95077500D02*
X117952500Y-95090000D01*
X119280000Y-95090000D02*
X119810000Y-95620000D01*
D63*
%TO.N,L2*%
X153470000Y-83240000D02*
X153470000Y-86690000D01*
X156100000Y-92550000D02*
X156100000Y-90262500D01*
D62*
X154160000Y-82550000D02*
X155550000Y-82550000D01*
D63*
X155937500Y-89157500D02*
X155937500Y-90100000D01*
X153470000Y-86690000D02*
X155937500Y-89157500D01*
X156100000Y-90262500D02*
X155937500Y-90100000D01*
D67*
X153470000Y-83240000D02*
X154160000Y-82550000D01*
D62*
X154160000Y-82550000D02*
X154160000Y-81840000D01*
D65*
%TO.N,Net-(D3-A)*%
X161875000Y-92550000D02*
X161900000Y-92525000D01*
X157762500Y-90100000D02*
X157762500Y-91612500D01*
X161900000Y-92525000D02*
X161900000Y-97290000D01*
X157762500Y-91612500D02*
X158700000Y-92550000D01*
X161900000Y-97290000D02*
X161900000Y-97940000D01*
X158700000Y-92550000D02*
X159400000Y-92550000D01*
X159400000Y-92550000D02*
X161875000Y-92550000D01*
D63*
%TO.N,H2*%
X167136900Y-84150000D02*
X167186900Y-84200000D01*
D62*
X159500000Y-84149999D02*
X160930000Y-84149999D01*
D63*
X164736900Y-84150000D02*
X167136900Y-84150000D01*
X160930000Y-84149999D02*
X164736900Y-84150000D01*
%TO.N,Net-(D4-A)*%
X163770000Y-80940000D02*
X161850000Y-80940000D01*
X164736900Y-82325000D02*
X164736900Y-81906900D01*
X161840000Y-80140000D02*
X161840000Y-76778100D01*
X164860000Y-80900000D02*
X164295000Y-81465000D01*
X161850000Y-80150000D02*
X161840000Y-80140000D01*
X167186900Y-80900000D02*
X164860000Y-80900000D01*
X161850000Y-80940000D02*
X161850000Y-80150000D01*
X161840000Y-76778100D02*
X161561900Y-76500000D01*
X164295000Y-81465000D02*
X163770000Y-80940000D01*
X164736900Y-81906900D02*
X164295000Y-81465000D01*
%TO.N,Net-(D11-A)*%
X93325000Y-102455000D02*
X93330000Y-102450000D01*
X93325000Y-104890000D02*
X93325000Y-102455000D01*
%TO.N,Net-(D11-K)*%
X89935000Y-105225000D02*
X90800000Y-105225000D01*
X89930000Y-105230000D02*
X89935000Y-105225000D01*
D64*
%TO.N,Net-(D12-K)*%
X198740000Y-96160000D02*
X198740000Y-95710000D01*
X198010000Y-96890000D02*
X198270000Y-96630000D01*
X198270000Y-96630000D02*
X198740000Y-96160000D01*
X198010000Y-97775000D02*
X198010000Y-96890000D01*
D62*
%TO.N,Net-(D12-A)*%
X193685000Y-96100000D02*
X194590000Y-96100000D01*
%TO.N,/FSBB/R13_SENS1*%
X118940000Y-97490000D02*
X120530000Y-97490000D01*
X125245000Y-96285000D02*
X125245000Y-96978000D01*
X118410000Y-96960000D02*
X118940000Y-97490000D01*
X124780000Y-95820000D02*
X125245000Y-96285000D01*
X122200000Y-95820000D02*
X124780000Y-95820000D01*
X120530000Y-97490000D02*
X122200000Y-95820000D01*
D64*
%TO.N,/FSBB/R14_SENS2*%
X174640000Y-101960000D02*
X183710000Y-101960000D01*
X183710000Y-101960000D02*
X184850000Y-100820000D01*
X166750000Y-97890000D02*
X170570000Y-97890000D01*
X170570000Y-97890000D02*
X174640000Y-101960000D01*
X166310000Y-99005000D02*
X166310000Y-98330000D01*
X166310000Y-98330000D02*
X166750000Y-97890000D01*
D62*
%TO.N,Net-(J5-Pin_2)*%
X158340000Y-117710000D02*
X157450000Y-116820000D01*
X157450000Y-116820000D02*
X155840000Y-116820000D01*
X155840000Y-116820000D02*
X154620000Y-115600000D01*
D64*
%TO.N,SYNC{slash}PWM0*%
X149900000Y-100840000D02*
X149900000Y-100580000D01*
X149000000Y-101440000D02*
X149300000Y-101440000D01*
X149530000Y-101210000D02*
X149900000Y-100840000D01*
X149300000Y-101440000D02*
X149530000Y-101210000D01*
%TO.N,TCAP*%
X142350000Y-102440000D02*
X143200000Y-102440000D01*
%TO.N,DPWM2A*%
X145850000Y-100020000D02*
X145850000Y-100790000D01*
X146060000Y-99810000D02*
X145850000Y-100020000D01*
D62*
%TO.N,Net-(J6-Pin_10)*%
X115525000Y-111410000D02*
X113910000Y-111410000D01*
X113910000Y-111410000D02*
X113570000Y-111750000D01*
X113570000Y-111750000D02*
X113570000Y-112680000D01*
%TO.N,Net-(J6-Pin_5)*%
X111370000Y-118100000D02*
X118500000Y-118100000D01*
X118500000Y-118100000D02*
X119700000Y-116900000D01*
X108490000Y-115220000D02*
X111370000Y-118100000D01*
X119700000Y-116900000D02*
X121250000Y-116900000D01*
%TO.N,Net-(J6-Pin_9)*%
X113570000Y-116110000D02*
X113570000Y-115220000D01*
X113910000Y-116450000D02*
X113570000Y-116110000D01*
X115575000Y-116450000D02*
X113910000Y-116450000D01*
%TO.N,Net-(Q5-G)*%
X185812500Y-113682500D02*
X184727500Y-112597500D01*
X187407736Y-113682500D02*
X185812500Y-113682500D01*
X184727500Y-112597500D02*
X184727500Y-107877500D01*
D63*
%TO.N,Net-(Q6-B)*%
X91625000Y-109550000D02*
X93150000Y-109550000D01*
X91750000Y-109425000D02*
X91625000Y-109550000D01*
X91750000Y-107100000D02*
X91750000Y-109425000D01*
D64*
%TO.N,Net-(Q7-B)*%
X193685000Y-100640000D02*
X194080000Y-100640000D01*
X195210000Y-98400000D02*
X195335000Y-98400000D01*
X194760000Y-98850000D02*
X195210000Y-98400000D01*
X198960000Y-99650000D02*
X198465000Y-99650000D01*
X194760000Y-99960000D02*
X194760000Y-98850000D01*
X198465000Y-99650000D02*
X197215000Y-98400000D01*
X197215000Y-98400000D02*
X195335000Y-98400000D01*
X194080000Y-100640000D02*
X194760000Y-99960000D01*
D62*
%TO.N,Net-(U3B-OUT_B)*%
X160040000Y-110340000D02*
X159510000Y-109810000D01*
X164140000Y-110340000D02*
X160040000Y-110340000D01*
X164650000Y-108824000D02*
X164650000Y-109830000D01*
X159510000Y-109810000D02*
X159510000Y-108875000D01*
X164650000Y-109830000D02*
X164140000Y-110340000D01*
%TO.N,Net-(U3B-IN_B-)*%
X158490000Y-110670000D02*
X158490000Y-107630000D01*
X158895000Y-107225000D02*
X159510000Y-107225000D01*
X164950000Y-111090000D02*
X158910000Y-111090000D01*
X165920000Y-108824000D02*
X165920000Y-110120000D01*
X165920000Y-110120000D02*
X164950000Y-111090000D01*
X158910000Y-111090000D02*
X158490000Y-110670000D01*
X158490000Y-107630000D02*
X158895000Y-107225000D01*
D65*
%TO.N,Net-(U2B-IN_B-)*%
X125045000Y-106402000D02*
X125045000Y-108378000D01*
%TO.N,Net-(U2B-OUT_B)*%
X123775000Y-107998000D02*
X123395000Y-108378000D01*
X123775000Y-106402000D02*
X123775000Y-107998000D01*
D62*
%TO.N,Net-(R51-Pad2)*%
X125750000Y-114040000D02*
X125750000Y-112000000D01*
X125730000Y-114060000D02*
X125750000Y-114040000D01*
D64*
%TO.N,CHARGE_V1*%
X146850000Y-100790000D02*
X146850000Y-99460000D01*
X146850000Y-99460000D02*
X146860000Y-99450000D01*
X94800000Y-109550000D02*
X94800000Y-108750000D01*
X94800000Y-108750000D02*
X95070000Y-108480000D01*
D62*
%TO.N,CHARGE_V2*%
X193010000Y-98400000D02*
X193685000Y-98400000D01*
X192590000Y-101600000D02*
X192590000Y-98820000D01*
D64*
X147350000Y-99860000D02*
X147350000Y-100790000D01*
X147770000Y-99440000D02*
X147350000Y-99860000D01*
D62*
X192590000Y-98820000D02*
X193010000Y-98400000D01*
%TO.N,DPWM0B*%
X112270000Y-91370000D02*
X109240000Y-88340000D01*
X138410000Y-94940000D02*
X123050000Y-94940000D01*
X144350000Y-100790000D02*
X144350000Y-98420000D01*
X109240000Y-88340000D02*
X109240000Y-87210000D01*
X123050000Y-94940000D02*
X119480000Y-91370000D01*
X119480000Y-91370000D02*
X112270000Y-91370000D01*
X109670001Y-86779999D02*
X110365000Y-86779999D01*
X109240000Y-87210000D02*
X109670001Y-86779999D01*
X141910000Y-98440000D02*
X138410000Y-94940000D01*
%TO.N,DPWM0A*%
X143850000Y-98690000D02*
X143850000Y-100790000D01*
X110365000Y-87580000D02*
X110365000Y-87935000D01*
X110365000Y-87935000D02*
X113200000Y-90770000D01*
X120150000Y-90770000D02*
X123620000Y-94240000D01*
X123620000Y-94240000D02*
X139400000Y-94240000D01*
X139400000Y-94240000D02*
X143850000Y-98690000D01*
X113200000Y-90770000D02*
X120150000Y-90770000D01*
D64*
%TO.N,DPWM1A*%
X149370000Y-84950000D02*
X149370000Y-94630000D01*
D62*
X155550000Y-84950000D02*
X154380000Y-84950000D01*
D64*
X149370000Y-94630000D02*
X144850000Y-99150000D01*
X144850000Y-99150000D02*
X144850000Y-100790000D01*
D62*
%TO.N,DPWM1B*%
X155550000Y-84149999D02*
X154380000Y-84149999D01*
D64*
X145350000Y-99480000D02*
X145350000Y-100790000D01*
X150650000Y-85120000D02*
X150650000Y-94180000D01*
X151630000Y-84140000D02*
X150650000Y-85120000D01*
X152630000Y-84140000D02*
X151630000Y-84140000D01*
X150650000Y-94180000D02*
X145350000Y-99480000D01*
D63*
%TO.N,Net-(D13-K)*%
X116670000Y-85305000D02*
X116660000Y-85315000D01*
X114315000Y-85980001D02*
X115399999Y-85980001D01*
X116065000Y-85315000D02*
X116660000Y-85315000D01*
X115399999Y-85980001D02*
X116065000Y-85315000D01*
X116670000Y-80070000D02*
X116670000Y-85305000D01*
%TO.N,Net-(D14-K)*%
X160675000Y-82025000D02*
X161275000Y-82625000D01*
X159436900Y-77511900D02*
X160675000Y-78750000D01*
X159436900Y-77500000D02*
X159436900Y-77511900D01*
D62*
X160074999Y-83350001D02*
X161037500Y-82387500D01*
D63*
X161275000Y-82625000D02*
X162086900Y-82625000D01*
D62*
X159500000Y-83350001D02*
X160074999Y-83350001D01*
D63*
X160675000Y-78750000D02*
X160675000Y-82025000D01*
%TO.N,Net-(D7-K)*%
X103600000Y-93450000D02*
X104115000Y-93965000D01*
X101459915Y-92030000D02*
X103315000Y-92030000D01*
X103600000Y-92315000D02*
X103600000Y-93450000D01*
X104115000Y-93965000D02*
X105260000Y-93965000D01*
X103315000Y-92030000D02*
X103600000Y-92315000D01*
%TO.N,Net-(C48-Pad1)*%
X105255000Y-90820000D02*
X105260000Y-90825000D01*
X105125000Y-89200000D02*
X105125000Y-90690000D01*
X105260000Y-90825000D02*
X105260000Y-92315000D01*
X105125000Y-90690000D02*
X105255000Y-90820000D01*
%TO.N,Net-(U6-FB)*%
X102915000Y-88220000D02*
X103525000Y-87610000D01*
X103575000Y-89200000D02*
X103575000Y-88880000D01*
X101459915Y-88220000D02*
X102915000Y-88220000D01*
X103575000Y-88880000D02*
X102915000Y-88220000D01*
X103525000Y-87610000D02*
X103525000Y-86020000D01*
X103525000Y-86020000D02*
X103535000Y-86010000D01*
D62*
%TO.N,Net-(U6-RON)*%
X96035915Y-88220000D02*
X96035915Y-86519085D01*
X96035915Y-86519085D02*
X96040000Y-86515000D01*
D63*
%TO.N,/FSBB/U3_IN_A-*%
X161350000Y-101300000D02*
X161995000Y-100655000D01*
X161995000Y-100655000D02*
X164660000Y-100655000D01*
X161350000Y-102705000D02*
X161350000Y-101300000D01*
X159690000Y-102705000D02*
X161350000Y-102705000D01*
D62*
X164650000Y-103400000D02*
X164650000Y-100665000D01*
%TD*%
%TA.AperFunction,Conductor*%
%TO.N,AGND*%
G36*
X167963039Y-104659685D02*
G01*
X168008794Y-104712489D01*
X168020000Y-104764000D01*
X168020000Y-107516000D01*
X168000315Y-107583039D01*
X167947511Y-107628794D01*
X167896000Y-107640000D01*
X162654000Y-107640000D01*
X162586961Y-107620315D01*
X162541206Y-107567511D01*
X162530000Y-107516000D01*
X162530000Y-104879500D01*
X162549685Y-104812461D01*
X162602489Y-104766706D01*
X162654000Y-104755500D01*
X163160890Y-104755500D01*
X163160892Y-104755500D01*
X163288186Y-104721392D01*
X163400387Y-104656612D01*
X163462386Y-104640000D01*
X167896000Y-104640000D01*
X167963039Y-104659685D01*
G37*
%TD.AperFunction*%
%TD*%
%TA.AperFunction,Conductor*%
%TO.N,AGND*%
G36*
X144320000Y-103660000D02*
G01*
X143749047Y-103660000D01*
X143740361Y-103657449D01*
X143731400Y-103658738D01*
X143687622Y-103641963D01*
X143682008Y-103640315D01*
X143681355Y-103639562D01*
X143680159Y-103639103D01*
X143597740Y-103584034D01*
X143597739Y-103584033D01*
X143597735Y-103584032D01*
X143524677Y-103569500D01*
X143524674Y-103569500D01*
X143284420Y-103569500D01*
X143275734Y-103566949D01*
X143266773Y-103568238D01*
X143252334Y-103565276D01*
X143249435Y-103564500D01*
X143249434Y-103564500D01*
X143016900Y-103564500D01*
X142987459Y-103555855D01*
X142957473Y-103549332D01*
X142952457Y-103545577D01*
X142949861Y-103544815D01*
X142929219Y-103528181D01*
X142928219Y-103527181D01*
X142894734Y-103465858D01*
X142899718Y-103396166D01*
X142941590Y-103340233D01*
X143007054Y-103315816D01*
X143015900Y-103315500D01*
X143249433Y-103315500D01*
X143249435Y-103315500D01*
X143252332Y-103314723D01*
X143284420Y-103310500D01*
X143524676Y-103310500D01*
X143524677Y-103310499D01*
X143597740Y-103295966D01*
X143680158Y-103240896D01*
X143689857Y-103237859D01*
X143697536Y-103231206D01*
X143722633Y-103227597D01*
X143746834Y-103220020D01*
X143749047Y-103220000D01*
X143930000Y-103220000D01*
X144320000Y-103220000D01*
X144320000Y-103660000D01*
G37*
%TD.AperFunction*%
%TD*%
%TA.AperFunction,Conductor*%
%TO.N,+12V*%
G36*
X184015677Y-104839685D02*
G01*
X184036319Y-104856319D01*
X184141063Y-104961063D01*
X184174548Y-105022386D01*
X184176673Y-105053609D01*
X184177000Y-105053609D01*
X184177000Y-105058421D01*
X184177002Y-105058451D01*
X184177000Y-105058476D01*
X184177000Y-106146517D01*
X184178474Y-106155818D01*
X184180000Y-106175215D01*
X184180000Y-107304781D01*
X184178473Y-107324182D01*
X184177000Y-107333480D01*
X184177000Y-108421517D01*
X184178474Y-108430818D01*
X184180000Y-108450215D01*
X184180000Y-108568638D01*
X184160315Y-108635677D01*
X184143681Y-108656319D01*
X183130000Y-109669999D01*
X183130000Y-113868638D01*
X183121355Y-113898078D01*
X183114832Y-113928065D01*
X183111077Y-113933080D01*
X183110315Y-113935677D01*
X183093681Y-113956319D01*
X182976319Y-114073681D01*
X182914996Y-114107166D01*
X182888638Y-114110000D01*
X180881362Y-114110000D01*
X180814323Y-114090315D01*
X180793681Y-114073681D01*
X180696319Y-113976319D01*
X180662834Y-113914996D01*
X180660000Y-113888638D01*
X180660000Y-105781362D01*
X180679685Y-105714323D01*
X180696319Y-105693681D01*
X181533681Y-104856319D01*
X181595004Y-104822834D01*
X181621362Y-104820000D01*
X183948638Y-104820000D01*
X184015677Y-104839685D01*
G37*
%TD.AperFunction*%
%TD*%
%TA.AperFunction,Conductor*%
%TO.N,PGND*%
G36*
X187385677Y-78069685D02*
G01*
X187406319Y-78086319D01*
X187933681Y-78613681D01*
X187967166Y-78675004D01*
X187970000Y-78701362D01*
X187970000Y-82468638D01*
X187950315Y-82535677D01*
X187933681Y-82556319D01*
X187406319Y-83083681D01*
X187344996Y-83117166D01*
X187318638Y-83120000D01*
X172481362Y-83120000D01*
X172414323Y-83100315D01*
X172393681Y-83083681D01*
X171896319Y-82586319D01*
X171862834Y-82524996D01*
X171860000Y-82498638D01*
X171860000Y-78821362D01*
X171879685Y-78754323D01*
X171896319Y-78733681D01*
X172543681Y-78086319D01*
X172605004Y-78052834D01*
X172631362Y-78050000D01*
X187318638Y-78050000D01*
X187385677Y-78069685D01*
G37*
%TD.AperFunction*%
%TD*%
%TA.AperFunction,Conductor*%
%TO.N,V1+*%
G36*
X114495677Y-72109685D02*
G01*
X114516319Y-72126319D01*
X115113681Y-72723681D01*
X115147166Y-72785004D01*
X115150000Y-72811362D01*
X115150000Y-76438638D01*
X115130315Y-76505677D01*
X115113681Y-76526319D01*
X114696319Y-76943681D01*
X114634996Y-76977166D01*
X114608638Y-76980000D01*
X93579999Y-76980000D01*
X91360000Y-79199999D01*
X91360000Y-79200000D01*
X91360000Y-87640000D01*
X92070000Y-88350000D01*
X94578638Y-88350000D01*
X94645677Y-88369685D01*
X94666319Y-88386319D01*
X95330000Y-89050000D01*
X96788638Y-89050000D01*
X96818078Y-89058644D01*
X96848065Y-89065168D01*
X96853080Y-89068922D01*
X96855677Y-89069685D01*
X96876319Y-89086319D01*
X96918181Y-89128181D01*
X96951666Y-89189504D01*
X96954500Y-89215862D01*
X96954500Y-91004138D01*
X96934815Y-91071177D01*
X96918181Y-91091819D01*
X96876319Y-91133681D01*
X96814996Y-91167166D01*
X96788638Y-91170000D01*
X95401362Y-91170000D01*
X95334323Y-91150315D01*
X95313681Y-91133681D01*
X94520000Y-90340000D01*
X88731362Y-90340000D01*
X88664323Y-90320315D01*
X88643681Y-90303681D01*
X88436319Y-90096319D01*
X88402834Y-90034996D01*
X88400000Y-90008638D01*
X88400000Y-73621362D01*
X88419685Y-73554323D01*
X88436319Y-73533681D01*
X89843681Y-72126319D01*
X89905004Y-72092834D01*
X89931362Y-72090000D01*
X114428638Y-72090000D01*
X114495677Y-72109685D01*
G37*
%TD.AperFunction*%
%TD*%
%TA.AperFunction,Conductor*%
%TO.N,AGND*%
G36*
X141018039Y-104894685D02*
G01*
X141063794Y-104947489D01*
X141075000Y-104999000D01*
X141075000Y-106101000D01*
X141055315Y-106168039D01*
X141002511Y-106213794D01*
X140951000Y-106225000D01*
X138299000Y-106225000D01*
X138231961Y-106205315D01*
X138186206Y-106152511D01*
X138175000Y-106101000D01*
X138175000Y-104999000D01*
X138194685Y-104931961D01*
X138247489Y-104886206D01*
X138299000Y-104875000D01*
X140951000Y-104875000D01*
X141018039Y-104894685D01*
G37*
%TD.AperFunction*%
%TD*%
%TA.AperFunction,Conductor*%
%TO.N,AGND*%
G36*
X141239255Y-108241612D02*
G01*
X141276464Y-108263095D01*
X141397399Y-108295500D01*
X141397401Y-108295500D01*
X141522599Y-108295500D01*
X141522601Y-108295500D01*
X141618908Y-108269694D01*
X141688756Y-108271357D01*
X141746618Y-108310519D01*
X141774123Y-108374747D01*
X141775000Y-108389469D01*
X141775000Y-110601000D01*
X141755315Y-110668039D01*
X141702511Y-110713794D01*
X141651000Y-110725000D01*
X139949000Y-110725000D01*
X139881961Y-110705315D01*
X139836206Y-110652511D01*
X139825000Y-110601000D01*
X139825000Y-108349000D01*
X139844685Y-108281961D01*
X139897489Y-108236206D01*
X139949000Y-108225000D01*
X141177256Y-108225000D01*
X141239255Y-108241612D01*
G37*
%TD.AperFunction*%
%TD*%
%TA.AperFunction,Conductor*%
%TO.N,Net-(D7-K)*%
G36*
X102125677Y-91629685D02*
G01*
X102146319Y-91646319D01*
X102283681Y-91783681D01*
X102317166Y-91845004D01*
X102320000Y-91871362D01*
X102320000Y-93550000D01*
X103053681Y-94283681D01*
X103087166Y-94345004D01*
X103090000Y-94371362D01*
X103090000Y-103218638D01*
X103070315Y-103285677D01*
X103053681Y-103306319D01*
X102456319Y-103903681D01*
X102394996Y-103937166D01*
X102368638Y-103940000D01*
X98821362Y-103940000D01*
X98754323Y-103920315D01*
X98733681Y-103903681D01*
X96076319Y-101246319D01*
X96042834Y-101184996D01*
X96040000Y-101158638D01*
X96040000Y-95581362D01*
X96059685Y-95514323D01*
X96076319Y-95493681D01*
X97203681Y-94366319D01*
X97265004Y-94332834D01*
X97291362Y-94330000D01*
X99760000Y-94330000D01*
X100540000Y-93550000D01*
X100540000Y-91941362D01*
X100559685Y-91874323D01*
X100576319Y-91853681D01*
X100783681Y-91646319D01*
X100845004Y-91612834D01*
X100871362Y-91610000D01*
X102058638Y-91610000D01*
X102125677Y-91629685D01*
G37*
%TD.AperFunction*%
%TD*%
%TA.AperFunction,Conductor*%
%TO.N,PGND*%
G36*
X114415677Y-77929685D02*
G01*
X114436319Y-77946319D01*
X114593181Y-78103181D01*
X114626666Y-78164504D01*
X114629500Y-78190862D01*
X114629500Y-79869138D01*
X114620855Y-79898578D01*
X114614332Y-79928565D01*
X114610577Y-79933580D01*
X114609815Y-79936177D01*
X114593181Y-79956819D01*
X114446319Y-80103681D01*
X114384996Y-80137166D01*
X114358638Y-80140000D01*
X113329999Y-80140000D01*
X113050000Y-80419999D01*
X113050000Y-82888638D01*
X113030315Y-82955677D01*
X113013681Y-82976319D01*
X112516319Y-83473681D01*
X112454996Y-83507166D01*
X112428638Y-83510000D01*
X99921362Y-83510000D01*
X99854323Y-83490315D01*
X99833681Y-83473681D01*
X99316319Y-82956319D01*
X99282834Y-82894996D01*
X99280000Y-82868638D01*
X99280000Y-78581362D01*
X99299685Y-78514323D01*
X99316319Y-78493681D01*
X99863681Y-77946319D01*
X99925004Y-77912834D01*
X99951362Y-77910000D01*
X114348638Y-77910000D01*
X114415677Y-77929685D01*
G37*
%TD.AperFunction*%
%TD*%
%TA.AperFunction,Conductor*%
%TO.N,AGND*%
G36*
X148517992Y-103239685D02*
G01*
X148519793Y-103240864D01*
X148602260Y-103295966D01*
X148602264Y-103295967D01*
X148675321Y-103310499D01*
X148675324Y-103310500D01*
X148675326Y-103310500D01*
X148915580Y-103310500D01*
X148947667Y-103314723D01*
X148950565Y-103315500D01*
X148950567Y-103315500D01*
X149276000Y-103315500D01*
X149343039Y-103335185D01*
X149388794Y-103387989D01*
X149400000Y-103439500D01*
X149400000Y-103940500D01*
X149380315Y-104007539D01*
X149327511Y-104053294D01*
X149276000Y-104064500D01*
X148950565Y-104064500D01*
X148947667Y-104065276D01*
X148915580Y-104069500D01*
X148675323Y-104069500D01*
X148602264Y-104084032D01*
X148602260Y-104084033D01*
X148552796Y-104117083D01*
X148519841Y-104139103D01*
X148453166Y-104159980D01*
X148450953Y-104160000D01*
X147930000Y-104160000D01*
X147930000Y-103220000D01*
X148280000Y-103220000D01*
X148450953Y-103220000D01*
X148517992Y-103239685D01*
G37*
%TD.AperFunction*%
%TD*%
%TA.AperFunction,Conductor*%
%TO.N,+12V_X*%
G36*
X187885677Y-107149685D02*
G01*
X187906319Y-107166319D01*
X188933681Y-108193681D01*
X188967166Y-108255004D01*
X188970000Y-108281362D01*
X188970000Y-110890000D01*
X191348638Y-110890000D01*
X191415677Y-110909685D01*
X191436319Y-110926319D01*
X192613363Y-112103363D01*
X192638946Y-112140573D01*
X193056464Y-113077529D01*
X193067200Y-113128000D01*
X193067200Y-117087438D01*
X193047515Y-117154477D01*
X193030881Y-117175119D01*
X192424719Y-117781281D01*
X192363396Y-117814766D01*
X192337038Y-117817600D01*
X189916962Y-117817600D01*
X189849923Y-117797915D01*
X189829281Y-117781281D01*
X189476319Y-117428319D01*
X189442834Y-117366996D01*
X189440000Y-117340638D01*
X189440000Y-113070000D01*
X189120000Y-112750000D01*
X186851362Y-112750000D01*
X186821921Y-112741355D01*
X186791935Y-112734832D01*
X186786919Y-112731077D01*
X186784323Y-112730315D01*
X186763681Y-112713681D01*
X186680087Y-112630087D01*
X186646602Y-112568764D01*
X186643768Y-112542406D01*
X186643768Y-110033768D01*
X185316319Y-108706319D01*
X185282834Y-108644996D01*
X185280000Y-108618638D01*
X185280000Y-107341362D01*
X185288644Y-107311921D01*
X185295168Y-107281935D01*
X185298922Y-107276919D01*
X185299685Y-107274323D01*
X185316319Y-107253681D01*
X185403681Y-107166319D01*
X185465004Y-107132834D01*
X185491362Y-107130000D01*
X187818638Y-107130000D01*
X187885677Y-107149685D01*
G37*
%TD.AperFunction*%
%TD*%
%TA.AperFunction,Conductor*%
%TO.N,AGND*%
G36*
X148223039Y-101539685D02*
G01*
X148268794Y-101592489D01*
X148280000Y-101644000D01*
X148280000Y-105870000D01*
X143930000Y-105870000D01*
X143930000Y-101644000D01*
X143949685Y-101576961D01*
X144002489Y-101531206D01*
X144054000Y-101520000D01*
X148156000Y-101520000D01*
X148223039Y-101539685D01*
G37*
%TD.AperFunction*%
%TD*%
%TA.AperFunction,Conductor*%
%TO.N,+12V_X*%
G36*
X113365677Y-98519685D02*
G01*
X113386319Y-98536319D01*
X113584917Y-98734917D01*
X113617009Y-98790502D01*
X113644500Y-98893095D01*
X113647017Y-98902488D01*
X113719488Y-99028011D01*
X113719490Y-99028013D01*
X113719491Y-99028015D01*
X113821985Y-99130509D01*
X113947515Y-99202984D01*
X113958094Y-99205818D01*
X114017754Y-99242183D01*
X114048283Y-99305030D01*
X114050000Y-99325593D01*
X114050000Y-102840000D01*
X114600000Y-103390000D01*
X117028638Y-103390000D01*
X117095677Y-103409685D01*
X117116319Y-103426319D01*
X117573681Y-103883681D01*
X117607166Y-103945004D01*
X117610000Y-103971362D01*
X117610000Y-105378638D01*
X117590315Y-105445677D01*
X117573681Y-105466319D01*
X116896319Y-106143681D01*
X116834996Y-106177166D01*
X116808638Y-106180000D01*
X107121362Y-106180000D01*
X107054323Y-106160315D01*
X107033681Y-106143681D01*
X106296319Y-105406319D01*
X106262834Y-105344996D01*
X106260000Y-105318638D01*
X106260000Y-99291362D01*
X106279685Y-99224323D01*
X106296319Y-99203681D01*
X106963681Y-98536319D01*
X107025004Y-98502834D01*
X107051362Y-98500000D01*
X113298638Y-98500000D01*
X113365677Y-98519685D01*
G37*
%TD.AperFunction*%
%TD*%
%TA.AperFunction,Conductor*%
%TO.N,PGND*%
G36*
X100203039Y-87989685D02*
G01*
X100248794Y-88042489D01*
X100260000Y-88094000D01*
X100260000Y-92206000D01*
X100240315Y-92273039D01*
X100187511Y-92318794D01*
X100136000Y-92330000D01*
X97334000Y-92330000D01*
X97266961Y-92310315D01*
X97221206Y-92257511D01*
X97210000Y-92206000D01*
X97210000Y-88094000D01*
X97229685Y-88026961D01*
X97282489Y-87981206D01*
X97334000Y-87970000D01*
X100136000Y-87970000D01*
X100203039Y-87989685D01*
G37*
%TD.AperFunction*%
%TD*%
%TA.AperFunction,Conductor*%
%TO.N,AGND*%
G36*
X144450000Y-105480000D02*
G01*
X144450000Y-105870000D01*
X144450000Y-105915500D01*
X144448447Y-105920788D01*
X144449538Y-105926189D01*
X144438710Y-105953948D01*
X144430315Y-105982539D01*
X144426150Y-105986147D01*
X144424148Y-105991282D01*
X144400025Y-106008785D01*
X144377511Y-106028294D01*
X144370877Y-106029934D01*
X144367597Y-106032315D01*
X144346559Y-106035948D01*
X144333001Y-106039302D01*
X144329500Y-106039500D01*
X144205326Y-106039500D01*
X144156001Y-106049311D01*
X144147328Y-106049802D01*
X144145845Y-106049456D01*
X144140327Y-106050000D01*
X144059673Y-106050000D01*
X144035481Y-106047617D01*
X143994676Y-106039500D01*
X143994674Y-106039500D01*
X143705326Y-106039500D01*
X143705323Y-106039500D01*
X143632264Y-106054032D01*
X143632260Y-106054033D01*
X143549399Y-106109399D01*
X143494033Y-106192260D01*
X143494032Y-106192264D01*
X143479500Y-106265321D01*
X143479500Y-106500500D01*
X143459815Y-106567539D01*
X143407011Y-106613294D01*
X143355500Y-106624500D01*
X142924000Y-106624500D01*
X142856961Y-106604815D01*
X142811206Y-106552011D01*
X142800000Y-106500500D01*
X142800000Y-105939500D01*
X142819685Y-105872461D01*
X142872489Y-105826706D01*
X142924000Y-105815500D01*
X143249433Y-105815500D01*
X143249435Y-105815500D01*
X143252332Y-105814723D01*
X143284420Y-105810500D01*
X143524676Y-105810500D01*
X143524677Y-105810499D01*
X143597740Y-105795966D01*
X143680601Y-105740601D01*
X143703158Y-105706840D01*
X143770000Y-105640000D01*
X143770000Y-105565114D01*
X143782764Y-105539204D01*
X143787651Y-105533887D01*
X143789685Y-105526961D01*
X143810976Y-105508511D01*
X143830048Y-105487764D01*
X143837033Y-105485933D01*
X143842489Y-105481206D01*
X143894000Y-105470000D01*
X143930000Y-105470000D01*
X144440000Y-105470000D01*
X144450000Y-105480000D01*
G37*
%TD.AperFunction*%
%TD*%
%TA.AperFunction,Conductor*%
%TO.N,V2+*%
G36*
X187455677Y-72579685D02*
G01*
X187476319Y-72596319D01*
X187813681Y-72933681D01*
X187847166Y-72995004D01*
X187850000Y-73021362D01*
X187850000Y-76738638D01*
X187830315Y-76805677D01*
X187813681Y-76826319D01*
X187446319Y-77193681D01*
X187384996Y-77227166D01*
X187358638Y-77230000D01*
X172451362Y-77230000D01*
X172384323Y-77210315D01*
X172363681Y-77193681D01*
X171876319Y-76706319D01*
X171842834Y-76644996D01*
X171840000Y-76618638D01*
X171840000Y-73161362D01*
X171859685Y-73094323D01*
X171876319Y-73073681D01*
X172353681Y-72596319D01*
X172415004Y-72562834D01*
X172441362Y-72560000D01*
X187388638Y-72560000D01*
X187455677Y-72579685D01*
G37*
%TD.AperFunction*%
%TD*%
%TA.AperFunction,Conductor*%
%TO.N,AGND*%
G36*
X146075000Y-105870000D02*
G01*
X146075000Y-106033468D01*
X146072449Y-106042153D01*
X146073738Y-106051115D01*
X146056964Y-106094888D01*
X146055315Y-106100507D01*
X146054561Y-106101159D01*
X146054103Y-106102357D01*
X145994035Y-106192257D01*
X145994032Y-106192264D01*
X145979500Y-106265321D01*
X145979500Y-106505581D01*
X145976949Y-106514266D01*
X145978238Y-106523228D01*
X145975277Y-106537661D01*
X145974500Y-106540565D01*
X145974500Y-106540566D01*
X145974500Y-106876000D01*
X145971949Y-106884685D01*
X145973238Y-106893647D01*
X145962259Y-106917687D01*
X145954815Y-106943039D01*
X145947974Y-106948966D01*
X145944213Y-106957203D01*
X145921978Y-106971492D01*
X145902011Y-106988794D01*
X145891496Y-106991081D01*
X145885435Y-106994977D01*
X145850500Y-107000000D01*
X145849500Y-107000000D01*
X145782461Y-106980315D01*
X145736706Y-106927511D01*
X145725500Y-106876000D01*
X145725500Y-106540568D01*
X145725500Y-106540565D01*
X145724723Y-106537666D01*
X145720500Y-106505581D01*
X145720500Y-106265323D01*
X145720499Y-106265321D01*
X145705967Y-106192264D01*
X145705966Y-106192263D01*
X145705966Y-106192260D01*
X145705964Y-106192257D01*
X145645897Y-106102357D01*
X145642860Y-106092658D01*
X145636206Y-106084979D01*
X145632597Y-106059879D01*
X145625020Y-106035680D01*
X145625000Y-106033468D01*
X145625000Y-105870000D01*
X145625000Y-105625000D01*
X146075000Y-105625000D01*
X146075000Y-105870000D01*
G37*
%TD.AperFunction*%
%TD*%
%TA.AperFunction,Conductor*%
%TO.N,PGND*%
G36*
X157723039Y-79399685D02*
G01*
X157768794Y-79452489D01*
X157780000Y-79504000D01*
X157780000Y-81970000D01*
X158726000Y-81970000D01*
X158734685Y-81972550D01*
X158743647Y-81971262D01*
X158767687Y-81982240D01*
X158793039Y-81989685D01*
X158798966Y-81996525D01*
X158807203Y-82000287D01*
X158821492Y-82022521D01*
X158838794Y-82042489D01*
X158841081Y-82053003D01*
X158844977Y-82059065D01*
X158850000Y-82094000D01*
X158850000Y-82226119D01*
X158840563Y-82273568D01*
X158839033Y-82277261D01*
X158824500Y-82350323D01*
X158824500Y-82749678D01*
X158839033Y-82822740D01*
X158840560Y-82826426D01*
X158842186Y-82834603D01*
X158844977Y-82838945D01*
X158850000Y-82873880D01*
X158850000Y-83026120D01*
X158840563Y-83073569D01*
X158839033Y-83077262D01*
X158824500Y-83150324D01*
X158824500Y-83549679D01*
X158839033Y-83622741D01*
X158840560Y-83626427D01*
X158842186Y-83634604D01*
X158844977Y-83638946D01*
X158850000Y-83673881D01*
X158850000Y-83826118D01*
X158840563Y-83873567D01*
X158839033Y-83877260D01*
X158824500Y-83950322D01*
X158824500Y-84349677D01*
X158839033Y-84422739D01*
X158840560Y-84426425D01*
X158842186Y-84434602D01*
X158844977Y-84438944D01*
X158850000Y-84473879D01*
X158850000Y-84626119D01*
X158840563Y-84673568D01*
X158839033Y-84677261D01*
X158824500Y-84750323D01*
X158824500Y-85149678D01*
X158839033Y-85222740D01*
X158840560Y-85226426D01*
X158842186Y-85234603D01*
X158844977Y-85238945D01*
X158850000Y-85273880D01*
X158850000Y-85426000D01*
X158830315Y-85493039D01*
X158777511Y-85538794D01*
X158726000Y-85550000D01*
X156324000Y-85550000D01*
X156256961Y-85530315D01*
X156211206Y-85477511D01*
X156200000Y-85426000D01*
X156200000Y-85273880D01*
X156209440Y-85226426D01*
X156210966Y-85222740D01*
X156225499Y-85149678D01*
X156225500Y-85149676D01*
X156225500Y-84750323D01*
X156210966Y-84677261D01*
X156209437Y-84673568D01*
X156207810Y-84665392D01*
X156205023Y-84661054D01*
X156200000Y-84626119D01*
X156200000Y-84473879D01*
X156209440Y-84426425D01*
X156210966Y-84422739D01*
X156225499Y-84349677D01*
X156225500Y-84349675D01*
X156225500Y-83950322D01*
X156210966Y-83877260D01*
X156209437Y-83873567D01*
X156200000Y-83826118D01*
X156200000Y-83670000D01*
X155124000Y-83670000D01*
X155056961Y-83650315D01*
X155011206Y-83597511D01*
X155000000Y-83546000D01*
X155000000Y-83184000D01*
X155019685Y-83116961D01*
X155072489Y-83071206D01*
X155124000Y-83060000D01*
X156200000Y-83060000D01*
X156210000Y-83050000D01*
X156210000Y-82839808D01*
X156212383Y-82815615D01*
X156225500Y-82749675D01*
X156225500Y-82350323D01*
X156212383Y-82284383D01*
X156210000Y-82260191D01*
X156210000Y-79504000D01*
X156229685Y-79436961D01*
X156282489Y-79391206D01*
X156334000Y-79380000D01*
X157656000Y-79380000D01*
X157723039Y-79399685D01*
G37*
%TD.AperFunction*%
%TD*%
%TA.AperFunction,Conductor*%
%TO.N,AGND*%
G36*
X148773039Y-108059685D02*
G01*
X148818794Y-108112489D01*
X148830000Y-108164000D01*
X148830000Y-110906000D01*
X148810315Y-110973039D01*
X148757511Y-111018794D01*
X148706000Y-111030000D01*
X145794000Y-111030000D01*
X145726961Y-111010315D01*
X145681206Y-110957511D01*
X145670000Y-110906000D01*
X145670000Y-108164000D01*
X145689685Y-108096961D01*
X145742489Y-108051206D01*
X145794000Y-108040000D01*
X148706000Y-108040000D01*
X148773039Y-108059685D01*
G37*
%TD.AperFunction*%
%TD*%
%TA.AperFunction,Conductor*%
%TO.N,AGND*%
G36*
X148517992Y-105239685D02*
G01*
X148519793Y-105240864D01*
X148602260Y-105295966D01*
X148602264Y-105295967D01*
X148675321Y-105310499D01*
X148675324Y-105310500D01*
X148675326Y-105310500D01*
X148915580Y-105310500D01*
X148947667Y-105314723D01*
X148950565Y-105315500D01*
X149276000Y-105315500D01*
X149343039Y-105335185D01*
X149388794Y-105387989D01*
X149400000Y-105439500D01*
X149400000Y-106566000D01*
X149380315Y-106633039D01*
X149327511Y-106678794D01*
X149276000Y-106690000D01*
X148849500Y-106690000D01*
X148845797Y-106688912D01*
X148842036Y-106689775D01*
X148812537Y-106679146D01*
X148782461Y-106670315D01*
X148779934Y-106667399D01*
X148776303Y-106666091D01*
X148757229Y-106641196D01*
X148736706Y-106617511D01*
X148735476Y-106612804D01*
X148733809Y-106610628D01*
X148731081Y-106595980D01*
X148725922Y-106576227D01*
X148725500Y-106571127D01*
X148725500Y-106540565D01*
X148721840Y-106526907D01*
X148720922Y-106515808D01*
X148721485Y-106513069D01*
X148720500Y-106505581D01*
X148720500Y-106265323D01*
X148720499Y-106265321D01*
X148705967Y-106192264D01*
X148705966Y-106192263D01*
X148705966Y-106192260D01*
X148650601Y-106109399D01*
X148650600Y-106109398D01*
X148635109Y-106099047D01*
X148590304Y-106045434D01*
X148580000Y-105995945D01*
X148580000Y-105970000D01*
X148070000Y-105970000D01*
X148070000Y-106040953D01*
X148067449Y-106049638D01*
X148068738Y-106058600D01*
X148051963Y-106102377D01*
X148050315Y-106107992D01*
X148049562Y-106108644D01*
X148049103Y-106109840D01*
X148027083Y-106142796D01*
X147994033Y-106192260D01*
X147994032Y-106192264D01*
X147979500Y-106265321D01*
X147979500Y-106505581D01*
X147976949Y-106514266D01*
X147978238Y-106523228D01*
X147975277Y-106537661D01*
X147974500Y-106540565D01*
X147974500Y-106540566D01*
X147974500Y-106876000D01*
X147971949Y-106884685D01*
X147973238Y-106893647D01*
X147962259Y-106917687D01*
X147954815Y-106943039D01*
X147947974Y-106948966D01*
X147944213Y-106957203D01*
X147921978Y-106971492D01*
X147902011Y-106988794D01*
X147891496Y-106991081D01*
X147885435Y-106994977D01*
X147850500Y-107000000D01*
X147849500Y-107000000D01*
X147782461Y-106980315D01*
X147736706Y-106927511D01*
X147725500Y-106876000D01*
X147725500Y-106540568D01*
X147725500Y-106540565D01*
X147724723Y-106537666D01*
X147720500Y-106505581D01*
X147720500Y-106265323D01*
X147720499Y-106265321D01*
X147705967Y-106192264D01*
X147705966Y-106192260D01*
X147650896Y-106109841D01*
X147647859Y-106100142D01*
X147641206Y-106092464D01*
X147637597Y-106067366D01*
X147630020Y-106043166D01*
X147630000Y-106040953D01*
X147630000Y-105870000D01*
X147630000Y-105220000D01*
X148280000Y-105220000D01*
X148450953Y-105220000D01*
X148517992Y-105239685D01*
G37*
%TD.AperFunction*%
%TD*%
%TA.AperFunction,Conductor*%
%TO.N,AGND*%
G36*
X127153039Y-102069685D02*
G01*
X127198794Y-102122489D01*
X127210000Y-102174000D01*
X127210000Y-105166000D01*
X127190315Y-105233039D01*
X127137511Y-105278794D01*
X127086000Y-105290000D01*
X121814000Y-105290000D01*
X121746961Y-105270315D01*
X121701206Y-105217511D01*
X121690000Y-105166000D01*
X121690000Y-102174000D01*
X121709685Y-102106961D01*
X121762489Y-102061206D01*
X121814000Y-102050000D01*
X127086000Y-102050000D01*
X127153039Y-102069685D01*
G37*
%TD.AperFunction*%
%TD*%
%TA.AperFunction,Conductor*%
%TO.N,V1+*%
G36*
X114487194Y-72107194D02*
G01*
X115125709Y-72745709D01*
X115147166Y-72785004D01*
X115150000Y-72811362D01*
X115150000Y-76438638D01*
X115130315Y-76505677D01*
X115113681Y-76526319D01*
X114720000Y-76920000D01*
X99750000Y-76920000D01*
X99310000Y-76480000D01*
X99310000Y-72550000D01*
X99770000Y-72090000D01*
X114428638Y-72090000D01*
X114487194Y-72107194D01*
G37*
%TD.AperFunction*%
%TD*%
M02*
