%TF.GenerationSoftware,KiCad,Pcbnew,9.0.4*%
%TF.CreationDate,2026-05-19T20:31:22+03:00*%
%TF.ProjectId,AAG2_FSBB,41414732-5f46-4534-9242-2e6b69636164,rev?*%
%TF.SameCoordinates,Original*%
%TF.FileFunction,Copper,L2,Inr*%
%TF.FilePolarity,Positive*%
%FSLAX46Y46*%
G04 Gerber Fmt 4.6, Leading zero omitted, Abs format (unit mm)*
G04 Created by KiCad (PCBNEW 9.0.4) date 2026-05-19 20:31:22*
%MOMM*%
%LPD*%
G01*
G04 APERTURE LIST*
%TA.AperFunction,ComponentPad*%
%ADD10C,1.800000*%
%TD*%
%TA.AperFunction,ComponentPad*%
%ADD11R,1.100000X1.100000*%
%TD*%
%TA.AperFunction,ComponentPad*%
%ADD12C,1.100000*%
%TD*%
%TA.AperFunction,ComponentPad*%
%ADD13C,5.000000*%
%TD*%
%TA.AperFunction,ComponentPad*%
%ADD14R,0.850000X0.850000*%
%TD*%
%TA.AperFunction,ComponentPad*%
%ADD15C,0.850000*%
%TD*%
%TA.AperFunction,ComponentPad*%
%ADD16R,1.397000X1.397000*%
%TD*%
%TA.AperFunction,ComponentPad*%
%ADD17C,1.397000*%
%TD*%
%TA.AperFunction,ComponentPad*%
%ADD18O,1.700000X1.700000*%
%TD*%
%TA.AperFunction,ViaPad*%
%ADD19C,0.750000*%
%TD*%
%TA.AperFunction,ViaPad*%
%ADD20C,0.600000*%
%TD*%
%TA.AperFunction,ViaPad*%
%ADD21C,0.450000*%
%TD*%
%TA.AperFunction,Conductor*%
%ADD22C,0.250000*%
%TD*%
%TA.AperFunction,Conductor*%
%ADD23C,0.500000*%
%TD*%
G04 APERTURE END LIST*
D10*
%TO.N,Net-(J1-Pin_1)*%
%TO.C,J1*%
X92990000Y-81260000D03*
%TO.N,/FSBB/R13_SENS1*%
X92990000Y-86340000D03*
%TD*%
D11*
%TO.N,unconnected-(S1-Pad4)*%
%TO.C,S1*%
X130810000Y-114060000D03*
D12*
%TO.N,AGND*%
X128270000Y-114060000D03*
%TO.N,Net-(R51-Pad2)*%
X125730000Y-114060000D03*
%TO.N,unconnected-(S1-PadMH1)*%
X130810000Y-116600000D03*
%TO.N,unconnected-(S1-PadMH2)*%
X125730000Y-116600000D03*
%TD*%
D13*
%TO.N,N/C*%
%TO.C,H2*%
X198000000Y-66200000D03*
%TD*%
D10*
%TO.N,Net-(J3-Pin_1)*%
%TO.C,J3*%
X196590000Y-81260000D03*
%TO.N,/FSBB/R14_SENS2*%
X196590000Y-86340000D03*
%TD*%
D13*
%TO.N,N/C*%
%TO.C,H1*%
X90950000Y-66200000D03*
%TD*%
D14*
%TO.N,AGND*%
%TO.C,J5*%
X159340000Y-117710000D03*
D15*
%TO.N,Net-(J5-Pin_2)*%
X158340000Y-117710000D03*
%TO.N,DPWM2A*%
X157340000Y-117710000D03*
%TO.N,SYNC{slash}PWM0*%
X156340000Y-117710000D03*
%TO.N,TCAP*%
X155340000Y-117710000D03*
%TD*%
D16*
%TO.N,unconnected-(J6-Pin_1-Pad1)*%
%TO.C,J6*%
X103410000Y-115220000D03*
D17*
%TO.N,unconnected-(J6-Pin_2-Pad2)*%
X103410000Y-112680000D03*
%TO.N,unconnected-(J6-Pin_3-Pad3)*%
X105950000Y-115220000D03*
%TO.N,unconnected-(J6-Pin_4-Pad4)*%
X105950000Y-112680000D03*
%TO.N,Net-(J6-Pin_5)*%
X108490000Y-115220000D03*
%TO.N,AGND*%
X108490000Y-112680000D03*
%TO.N,unconnected-(J6-Pin_7-Pad7)*%
X111030000Y-115220000D03*
%TO.N,unconnected-(J6-Pin_8-Pad8)*%
X111030000Y-112680000D03*
%TO.N,Net-(J6-Pin_9)*%
X113570000Y-115220000D03*
%TO.N,Net-(J6-Pin_10)*%
X113570000Y-112680000D03*
%TD*%
D13*
%TO.N,N/C*%
%TO.C,H4*%
X198000000Y-116150000D03*
%TD*%
D18*
%TO.N,Net-(J6-Pin_5)*%
%TO.C,J7*%
X121250000Y-116900000D03*
%TO.N,+3.3VD*%
X121250000Y-114360000D03*
%TD*%
D13*
%TO.N,N/C*%
%TO.C,H3*%
X90950000Y-116150000D03*
%TD*%
D19*
%TO.N,V1+*%
X107550000Y-73520000D03*
X107560000Y-76520000D03*
X112180000Y-73520000D03*
X102060000Y-76520000D03*
X106010000Y-76520000D03*
X102050000Y-73520000D03*
X110780000Y-76520000D03*
X106000000Y-73520000D03*
X113360000Y-73520000D03*
X109310000Y-73520000D03*
X110770000Y-73520000D03*
X103400000Y-73520000D03*
X103410000Y-76520000D03*
D20*
X99860000Y-87170000D03*
D19*
X109320000Y-76520000D03*
X104740000Y-76520000D03*
X114330000Y-73520000D03*
X104730000Y-73520000D03*
D20*
X98250000Y-105990000D03*
D19*
%TO.N,PGND*%
X110800000Y-78760000D03*
D20*
X171300400Y-111060000D03*
D19*
X108150000Y-81750000D03*
X175423333Y-95960000D03*
X177930000Y-81730000D03*
D21*
X113130000Y-85210000D03*
D20*
X171300000Y-108850000D03*
D21*
X111550000Y-85210000D03*
D20*
X96047031Y-83661513D03*
X195325000Y-102450000D03*
D19*
X131490000Y-97860000D03*
D21*
X112350000Y-86000000D03*
D20*
X114830000Y-98690000D03*
X170350000Y-110525000D03*
D19*
X181760000Y-78800000D03*
D21*
X158310000Y-82580000D03*
D20*
X114830000Y-98030000D03*
D21*
X156740000Y-82560000D03*
D19*
X176393333Y-96950000D03*
X179150000Y-78770000D03*
D20*
X116190000Y-98690000D03*
D19*
X103200000Y-81710000D03*
D20*
X96035915Y-93246583D03*
D19*
X104260000Y-81710000D03*
X129420000Y-98830000D03*
X183200000Y-78800000D03*
D21*
X97530000Y-92080000D03*
X156730000Y-84930000D03*
D20*
X155775000Y-80250000D03*
D21*
X156750000Y-83360000D03*
D20*
X157525000Y-86450000D03*
D19*
X129410000Y-99830000D03*
D20*
X176300000Y-117650000D03*
D19*
X105350000Y-81750000D03*
X175436666Y-98860000D03*
X181750000Y-81770000D03*
D21*
X113130000Y-86770000D03*
D19*
X130460000Y-97860000D03*
X180440000Y-78800000D03*
X176393333Y-97900000D03*
D21*
X112340000Y-87560000D03*
D19*
X173523333Y-96950000D03*
X109530000Y-81770000D03*
D21*
X157520000Y-83360000D03*
D19*
X130470000Y-98850000D03*
D20*
X95060000Y-98380000D03*
X114830000Y-99380000D03*
X187625000Y-115650000D03*
D19*
X174480000Y-97900000D03*
D20*
X179690764Y-115758454D03*
D19*
X104210000Y-78730000D03*
D20*
X176521000Y-115696000D03*
D21*
X156740000Y-84140000D03*
D20*
X182540000Y-100830000D03*
X89600000Y-100975000D03*
D21*
X113130000Y-87560000D03*
D19*
X130460000Y-99850000D03*
D21*
X113130000Y-85990000D03*
D19*
X129410000Y-96790000D03*
D20*
X180550000Y-115750000D03*
D21*
X111550000Y-85980000D03*
D19*
X130460000Y-96810000D03*
D21*
X112340000Y-85220000D03*
D19*
X177940000Y-78760000D03*
X180430000Y-81770000D03*
D20*
X171300400Y-109910000D03*
X115510000Y-98690000D03*
X190496736Y-106328264D03*
D21*
X158310000Y-83350000D03*
D19*
X106750000Y-78770000D03*
X176820000Y-81710000D03*
D20*
X89980000Y-110480000D03*
D19*
X131500000Y-98850000D03*
X173523333Y-97900000D03*
D21*
X112340000Y-86770000D03*
D20*
X114160000Y-98690000D03*
D19*
X176393333Y-98860000D03*
D21*
X118320000Y-98450000D03*
X157530000Y-84140000D03*
D20*
X114160000Y-97370000D03*
D21*
X111550000Y-86780000D03*
D19*
X179140000Y-81740000D03*
D21*
X158310000Y-84930000D03*
D19*
X175780000Y-78750000D03*
X131490000Y-96810000D03*
X174480000Y-96950000D03*
X175436666Y-96950000D03*
X108170000Y-78780000D03*
X176380000Y-95960000D03*
X110770000Y-81790000D03*
X173510000Y-95960000D03*
X174466667Y-95960000D03*
X184490000Y-78800000D03*
D20*
X88725000Y-100975000D03*
X185450000Y-115275000D03*
D19*
X103210000Y-78730000D03*
D21*
X157520000Y-82570000D03*
D19*
X183190000Y-81770000D03*
X129410000Y-97840000D03*
X131490000Y-99850000D03*
X175770000Y-81720000D03*
D20*
X114160000Y-98030000D03*
D21*
X157520000Y-84930000D03*
X111550000Y-87570000D03*
D19*
X109560000Y-78750000D03*
D21*
X98700000Y-92060000D03*
D19*
X184480000Y-81770000D03*
D20*
X188550000Y-105600000D03*
X115510000Y-98030000D03*
D19*
X176830000Y-78740000D03*
X105340000Y-78740000D03*
X106710000Y-81760000D03*
D21*
X158310000Y-84140000D03*
D19*
X174480000Y-98860000D03*
X175436666Y-97900000D03*
D21*
%TO.N,V2+*%
X183310000Y-91846400D03*
D19*
X176830000Y-73590000D03*
X184500000Y-76680000D03*
X181770000Y-76680000D03*
X183200000Y-73650000D03*
X180440000Y-73650000D03*
X180450000Y-76680000D03*
X181760000Y-73650000D03*
X179160000Y-76650000D03*
X175780000Y-73600000D03*
X177950000Y-76640000D03*
X176840000Y-76620000D03*
X175790000Y-76630000D03*
D20*
X158625000Y-98500000D03*
D19*
X179150000Y-73620000D03*
X177940000Y-73610000D03*
X184490000Y-73650000D03*
X183210000Y-76680000D03*
D21*
%TO.N,V1_sense*%
X137670000Y-104370000D03*
X146050000Y-107510000D03*
D20*
%TO.N,AGND*%
X167580000Y-107300000D03*
D21*
X141550000Y-109425000D03*
D20*
X159575000Y-100975000D03*
X162892500Y-118582500D03*
X115685000Y-113950000D03*
D21*
X147100000Y-109240000D03*
D20*
X162900000Y-105120000D03*
D21*
X139625000Y-102625000D03*
X139635000Y-105445000D03*
D20*
X169350000Y-110525000D03*
D21*
X141550000Y-108700000D03*
X147100000Y-108680000D03*
D20*
X139500000Y-117200000D03*
D21*
X145450000Y-109410000D03*
D20*
X154800000Y-100510000D03*
X145550000Y-117200000D03*
D21*
X149160000Y-100350000D03*
D20*
X167550000Y-105080000D03*
X162885000Y-107275000D03*
D21*
X142462500Y-100487500D03*
D20*
X122220000Y-104930000D03*
D21*
X147100000Y-109800000D03*
X145460000Y-108850000D03*
X154350000Y-107320000D03*
D20*
X126893000Y-104853000D03*
D21*
%TO.N,V2_sense*%
X142130000Y-107960000D03*
X148810000Y-107440000D03*
X158110000Y-107200000D03*
D20*
%TO.N,Net-(U2A-OUT_A)*%
X120640000Y-102590000D03*
D21*
X134610000Y-101850000D03*
D20*
%TO.N,Net-(U3A-OUT_A)*%
X159690000Y-105400000D03*
D21*
X150450000Y-112150000D03*
X137000000Y-106440000D03*
D20*
%TO.N,+12V*%
X169750000Y-116600000D03*
X97280000Y-70540000D03*
X94975000Y-103070000D03*
X176949000Y-105251000D03*
X96800000Y-71020000D03*
X97775000Y-70045000D03*
X94975000Y-103830000D03*
X94990000Y-102350000D03*
X162200000Y-108824000D03*
D21*
%TO.N,CBC1*%
X142370000Y-104290000D03*
%TO.N,CBC2*%
X142410000Y-104940000D03*
D20*
%TO.N,SW1*%
X118480000Y-89630000D03*
X124610000Y-80970000D03*
X118480000Y-88920000D03*
X124600000Y-66550000D03*
D21*
%TO.N,Iout2_sense*%
X147550000Y-107500000D03*
D19*
%TO.N,SW2*%
X167270000Y-79260000D03*
D20*
X166200000Y-65975000D03*
X160980000Y-87940000D03*
X160980000Y-88600000D03*
%TO.N,+12V_X*%
X111996250Y-105760000D03*
X108831250Y-105760000D03*
X114370000Y-105760000D03*
X191668400Y-116467467D03*
X191668400Y-117246400D03*
X109622500Y-105760000D03*
X108040000Y-105760000D03*
X111205000Y-105760000D03*
X192430400Y-117246400D03*
X191668400Y-115688533D03*
X113578750Y-105760000D03*
X192430400Y-116484400D03*
X110413750Y-105760000D03*
X192430400Y-115697000D03*
X112787500Y-105760000D03*
D21*
%TO.N,+3.3VD*%
X162200000Y-114900000D03*
%TO.N,I_Share*%
X157010000Y-115600000D03*
X141460000Y-107820000D03*
%TO.N,/MCU/{slash}RESET*%
X137280000Y-105690000D03*
%TO.N,PMBUS_DATA*%
X142160000Y-101224997D03*
D20*
X118570000Y-111410000D03*
D21*
%TO.N,/MCU/FAULT*%
X154130000Y-112870000D03*
X145240000Y-113500000D03*
X150975000Y-100005000D03*
%TO.N,/MCU/TMS*%
X150230000Y-102780000D03*
X151260000Y-115720000D03*
%TO.N,PMBUS_CLK*%
X142160000Y-101775000D03*
D20*
X119250000Y-114770000D03*
%TO.N,DIRECTION*%
X128975000Y-110865000D03*
D21*
X150460000Y-100980000D03*
D19*
%TO.N,Net-(D1-A)*%
X119630000Y-80180000D03*
X119640000Y-80980000D03*
D20*
%TO.N,H1*%
X118225000Y-82675000D03*
X118225000Y-66675000D03*
%TO.N,L1*%
X109325000Y-66625000D03*
X103800000Y-84575000D03*
%TO.N,Net-(D2-A)*%
X119810000Y-95620000D03*
X119810000Y-96330000D03*
D21*
%TO.N,L2*%
X154160000Y-81840000D03*
D20*
X154160000Y-66610000D03*
%TO.N,Net-(D3-A)*%
X161900000Y-97940000D03*
X161900000Y-97290000D03*
D21*
%TO.N,H2*%
X160930000Y-84149999D03*
D20*
X159975000Y-66925000D03*
D19*
%TO.N,Net-(D4-A)*%
X161840000Y-80140000D03*
X161850000Y-80940000D03*
D21*
%TO.N,Net-(D11-A)*%
X93330000Y-102450000D03*
%TO.N,Net-(D11-K)*%
X89930000Y-105230000D03*
%TO.N,Net-(D12-K)*%
X198740000Y-95710000D03*
%TO.N,Net-(D12-A)*%
X194590000Y-96100000D03*
%TO.N,/FSBB/R13_SENS1*%
X118410000Y-96960000D03*
D20*
X93400000Y-98390000D03*
%TO.N,/FSBB/R14_SENS2*%
X184850000Y-100820000D03*
D21*
%TO.N,SYNC{slash}PWM0*%
X149900000Y-100580000D03*
%TO.N,TCAP*%
X142350000Y-102440000D03*
%TO.N,DPWM2A*%
X146060000Y-99810000D03*
%TO.N,CHARGE_V1*%
X146860000Y-99450000D03*
X95070000Y-108480000D03*
%TO.N,CHARGE_V2*%
X192590000Y-101600000D03*
X147770000Y-99440000D03*
D20*
%TO.N,DPWM0B*%
X144350000Y-98420000D03*
X141910000Y-98440000D03*
%TO.N,DPWM1A*%
X154380000Y-84950000D03*
D21*
X149370000Y-84950000D03*
D20*
%TO.N,DPWM1B*%
X152630000Y-84140000D03*
X154380000Y-84149999D03*
%TD*%
D22*
%TO.N,V1+*%
X98250000Y-88780000D02*
X98250000Y-92080000D01*
X98250000Y-92080000D02*
X98250000Y-105990000D01*
X99860000Y-87170000D02*
X98250000Y-88780000D01*
D23*
%TO.N,AGND*%
X109075000Y-111000000D02*
X109925000Y-110150000D01*
X109925000Y-110150000D02*
X115625000Y-110150000D01*
X108490000Y-112680000D02*
X108490000Y-111585000D01*
X108490000Y-111585000D02*
X109075000Y-111000000D01*
%TD*%
%TA.AperFunction,Conductor*%
%TO.N,PGND*%
G36*
X186360677Y-77844685D02*
G01*
X186381319Y-77861319D01*
X189113681Y-80593681D01*
X189147166Y-80655004D01*
X189150000Y-80681362D01*
X189150000Y-95898638D01*
X189130315Y-95965677D01*
X189113681Y-95986319D01*
X188161319Y-96938681D01*
X188099996Y-96972166D01*
X188073638Y-96975000D01*
X180999999Y-96975000D01*
X180350000Y-97624999D01*
X180350000Y-97625000D01*
X180350000Y-100975000D01*
X181150000Y-101775000D01*
X192070385Y-101775000D01*
X192137424Y-101794685D01*
X192177771Y-101836999D01*
X192209505Y-101891964D01*
X192298036Y-101980495D01*
X192406464Y-102043095D01*
X192527399Y-102075500D01*
X192527401Y-102075500D01*
X192652599Y-102075500D01*
X192652601Y-102075500D01*
X192773536Y-102043095D01*
X192881964Y-101980495D01*
X192970495Y-101891964D01*
X193002227Y-101837000D01*
X193052794Y-101788785D01*
X193109615Y-101775000D01*
X198243638Y-101775000D01*
X198310677Y-101794685D01*
X198331319Y-101811319D01*
X198733681Y-102213681D01*
X198767166Y-102275004D01*
X198770000Y-102301362D01*
X198770000Y-108478638D01*
X198750315Y-108545677D01*
X198733681Y-108566319D01*
X196386319Y-110913681D01*
X196324996Y-110947166D01*
X196298638Y-110950000D01*
X193549999Y-110950000D01*
X190550000Y-113949999D01*
X190550000Y-117148638D01*
X190530315Y-117215677D01*
X190513681Y-117236319D01*
X188836819Y-118913181D01*
X188775496Y-118946666D01*
X188749138Y-118949500D01*
X175060862Y-118949500D01*
X174993823Y-118929815D01*
X174973181Y-118913181D01*
X170021319Y-113961319D01*
X169987834Y-113899996D01*
X169985000Y-113873638D01*
X169985000Y-105178525D01*
X176398500Y-105178525D01*
X176398500Y-105323475D01*
X176422632Y-105413536D01*
X176436017Y-105463488D01*
X176508488Y-105589011D01*
X176508490Y-105589013D01*
X176508491Y-105589015D01*
X176610985Y-105691509D01*
X176610986Y-105691510D01*
X176610988Y-105691511D01*
X176736511Y-105763982D01*
X176736512Y-105763982D01*
X176736515Y-105763984D01*
X176876525Y-105801500D01*
X176876528Y-105801500D01*
X177021472Y-105801500D01*
X177021475Y-105801500D01*
X177161485Y-105763984D01*
X177287015Y-105691509D01*
X177389509Y-105589015D01*
X177461984Y-105463485D01*
X177499500Y-105323475D01*
X177499500Y-105178525D01*
X177461984Y-105038515D01*
X177403972Y-104938036D01*
X177389511Y-104912988D01*
X177389506Y-104912982D01*
X177287017Y-104810493D01*
X177287011Y-104810488D01*
X177161488Y-104738017D01*
X177161489Y-104738017D01*
X177150006Y-104734940D01*
X177021475Y-104700500D01*
X176876525Y-104700500D01*
X176747993Y-104734940D01*
X176736511Y-104738017D01*
X176610988Y-104810488D01*
X176610982Y-104810493D01*
X176508493Y-104912982D01*
X176508488Y-104912988D01*
X176436017Y-105038511D01*
X176436016Y-105038515D01*
X176398500Y-105178525D01*
X169985000Y-105178525D01*
X169985000Y-102915000D01*
X169976819Y-102906819D01*
X169943334Y-102845496D01*
X169940500Y-102819138D01*
X169940500Y-102666360D01*
X169940345Y-102663486D01*
X169939036Y-102639048D01*
X169936202Y-102612690D01*
X169906413Y-102517556D01*
X169903707Y-102512601D01*
X169872931Y-102456238D01*
X169872926Y-102456230D01*
X169829350Y-102398019D01*
X169829349Y-102398018D01*
X169829347Y-102398015D01*
X169829342Y-102398010D01*
X169829334Y-102398001D01*
X167326998Y-99895666D01*
X167326997Y-99895665D01*
X167326985Y-99895653D01*
X167306635Y-99877374D01*
X167306629Y-99877369D01*
X167306620Y-99877361D01*
X167285999Y-99860744D01*
X167285996Y-99860742D01*
X167285993Y-99860740D01*
X167197662Y-99814535D01*
X167197659Y-99814534D01*
X167130624Y-99794850D01*
X167130616Y-99794848D01*
X167058639Y-99784500D01*
X167058638Y-99784500D01*
X151553044Y-99784500D01*
X151553032Y-99784500D01*
X151531794Y-99785384D01*
X151511228Y-99787102D01*
X151511223Y-99787102D01*
X151511221Y-99787103D01*
X151511218Y-99787103D01*
X151511217Y-99787104D01*
X151506023Y-99788529D01*
X151436165Y-99787279D01*
X151378072Y-99748460D01*
X151365838Y-99730952D01*
X151355495Y-99713036D01*
X151266964Y-99624505D01*
X151158536Y-99561905D01*
X151158537Y-99561905D01*
X151118224Y-99551103D01*
X151037601Y-99529500D01*
X150912399Y-99529500D01*
X150831775Y-99551103D01*
X150791463Y-99561905D01*
X150683037Y-99624504D01*
X150683034Y-99624506D01*
X150594506Y-99713034D01*
X150594504Y-99713037D01*
X150533566Y-99818587D01*
X150531905Y-99821464D01*
X150510372Y-99901825D01*
X150497974Y-99948095D01*
X150461608Y-100007755D01*
X150398761Y-100038283D01*
X150378199Y-100040000D01*
X149900151Y-100040000D01*
X149833112Y-100020315D01*
X149792397Y-99977360D01*
X149774071Y-99945178D01*
X149774068Y-99945174D01*
X149774067Y-99945172D01*
X149742776Y-99909061D01*
X149728315Y-99892371D01*
X149695538Y-99860743D01*
X149678954Y-99852068D01*
X149607203Y-99814535D01*
X149607202Y-99814534D01*
X149607201Y-99814534D01*
X149607201Y-99814533D01*
X149540169Y-99794851D01*
X149540157Y-99794848D01*
X149468180Y-99784500D01*
X149468179Y-99784500D01*
X148331565Y-99784500D01*
X148264526Y-99764815D01*
X148218771Y-99712011D01*
X148208827Y-99642853D01*
X148211790Y-99628406D01*
X148238292Y-99529500D01*
X148245500Y-99502601D01*
X148245500Y-99377399D01*
X148213095Y-99256464D01*
X148150495Y-99148036D01*
X148061964Y-99059505D01*
X147953536Y-98996905D01*
X147953537Y-98996905D01*
X147913224Y-98986103D01*
X147832601Y-98964500D01*
X147707399Y-98964500D01*
X147626775Y-98986103D01*
X147586463Y-98996905D01*
X147478037Y-99059504D01*
X147478034Y-99059506D01*
X147397681Y-99139860D01*
X147336358Y-99173345D01*
X147266666Y-99168361D01*
X147222319Y-99139860D01*
X147151965Y-99069506D01*
X147151964Y-99069505D01*
X147043536Y-99006905D01*
X147043537Y-99006905D01*
X147003224Y-98996103D01*
X146922601Y-98974500D01*
X146797399Y-98974500D01*
X146716775Y-98996103D01*
X146676463Y-99006905D01*
X146568037Y-99069504D01*
X146568034Y-99069506D01*
X146479506Y-99158034D01*
X146479504Y-99158037D01*
X146416905Y-99266463D01*
X146416905Y-99266464D01*
X146411955Y-99284936D01*
X146375587Y-99344595D01*
X146312739Y-99375122D01*
X146251608Y-99368180D01*
X146251386Y-99369009D01*
X146245854Y-99367526D01*
X146244729Y-99367399D01*
X146243540Y-99366906D01*
X146229248Y-99363076D01*
X146122601Y-99334500D01*
X145997399Y-99334500D01*
X145916775Y-99356103D01*
X145876463Y-99366905D01*
X145768037Y-99429504D01*
X145768034Y-99429506D01*
X145679506Y-99518034D01*
X145679504Y-99518037D01*
X145616905Y-99626463D01*
X145612411Y-99643232D01*
X145599184Y-99692596D01*
X145562821Y-99752254D01*
X145499974Y-99782783D01*
X145479411Y-99784500D01*
X132171190Y-99784500D01*
X132170663Y-99784504D01*
X132166608Y-99784541D01*
X132162207Y-99784619D01*
X132162191Y-99784621D01*
X132086073Y-99797654D01*
X132019783Y-99819719D01*
X132019779Y-99819720D01*
X132019778Y-99819721D01*
X132015774Y-99821464D01*
X131978021Y-99837897D01*
X131978017Y-99837899D01*
X131901526Y-99901825D01*
X131857685Y-99956229D01*
X131857684Y-99956231D01*
X131844013Y-99979273D01*
X131792876Y-100026884D01*
X131737371Y-100040000D01*
X131111864Y-100040000D01*
X131079060Y-100035582D01*
X131041451Y-100025265D01*
X131036556Y-100023922D01*
X130966878Y-100018939D01*
X130966855Y-100018938D01*
X130921333Y-100019751D01*
X130921329Y-100019752D01*
X130874757Y-100034335D01*
X130837704Y-100040000D01*
X130130792Y-100040000D01*
X130090279Y-100031941D01*
X130090169Y-100032343D01*
X130084551Y-100030802D01*
X130083339Y-100030561D01*
X130082685Y-100030290D01*
X129986549Y-100003920D01*
X129986538Y-100003919D01*
X129916870Y-99998938D01*
X129916843Y-99998937D01*
X129871324Y-99999751D01*
X129776191Y-100029540D01*
X129774801Y-100030131D01*
X129773384Y-100030419D01*
X129770374Y-100031362D01*
X129770276Y-100031051D01*
X129726323Y-100040000D01*
X129171601Y-100040000D01*
X129163986Y-100037764D01*
X129156153Y-100039034D01*
X129130939Y-100028060D01*
X129104562Y-100020315D01*
X129097733Y-100013608D01*
X129092088Y-100011151D01*
X129068502Y-99984896D01*
X129060894Y-99973511D01*
X129059088Y-99970728D01*
X129042984Y-99945174D01*
X128997230Y-99892371D01*
X128964453Y-99860743D01*
X128947869Y-99852068D01*
X128876118Y-99814535D01*
X128876117Y-99814534D01*
X128876116Y-99814534D01*
X128876116Y-99814533D01*
X128809084Y-99794851D01*
X128809072Y-99794848D01*
X128737095Y-99784500D01*
X128737094Y-99784500D01*
X116421362Y-99784500D01*
X116421361Y-99784500D01*
X116394065Y-99785963D01*
X116394060Y-99785963D01*
X116394048Y-99785964D01*
X116394040Y-99785964D01*
X116394011Y-99785967D01*
X116367689Y-99788797D01*
X116367687Y-99788798D01*
X116272558Y-99818586D01*
X116272548Y-99818590D01*
X116211238Y-99852068D01*
X116211230Y-99852073D01*
X116153019Y-99895649D01*
X116153001Y-99895665D01*
X114852634Y-101196034D01*
X114655666Y-101393001D01*
X114655638Y-101393031D01*
X114637361Y-101413379D01*
X114620741Y-101434003D01*
X114620740Y-101434004D01*
X114581786Y-101508475D01*
X114533271Y-101558754D01*
X114471911Y-101575000D01*
X109824999Y-101575000D01*
X106450000Y-104949999D01*
X106450000Y-107348638D01*
X106430315Y-107415677D01*
X106413681Y-107436319D01*
X101811319Y-112038681D01*
X101749996Y-112072166D01*
X101723638Y-112075000D01*
X90026362Y-112075000D01*
X89959323Y-112055315D01*
X89938681Y-112038681D01*
X88186819Y-110286819D01*
X88153334Y-110225496D01*
X88150500Y-110199138D01*
X88150500Y-108417399D01*
X94594500Y-108417399D01*
X94594500Y-108542601D01*
X94626905Y-108663536D01*
X94689505Y-108771964D01*
X94778036Y-108860495D01*
X94886464Y-108923095D01*
X95007399Y-108955500D01*
X95007401Y-108955500D01*
X95132599Y-108955500D01*
X95132601Y-108955500D01*
X95253536Y-108923095D01*
X95361964Y-108860495D01*
X95450495Y-108771964D01*
X95513095Y-108663536D01*
X95545500Y-108542601D01*
X95545500Y-108417399D01*
X95513095Y-108296464D01*
X95450495Y-108188036D01*
X95361964Y-108099505D01*
X95253536Y-108036905D01*
X95253537Y-108036905D01*
X95213224Y-108026103D01*
X95132601Y-108004500D01*
X95007399Y-108004500D01*
X94926775Y-108026103D01*
X94886463Y-108036905D01*
X94778037Y-108099504D01*
X94778034Y-108099506D01*
X94689506Y-108188034D01*
X94689504Y-108188037D01*
X94626905Y-108296463D01*
X94626905Y-108296464D01*
X94594500Y-108417399D01*
X88150500Y-108417399D01*
X88150500Y-105167399D01*
X89454500Y-105167399D01*
X89454500Y-105292601D01*
X89486905Y-105413536D01*
X89549505Y-105521964D01*
X89638036Y-105610495D01*
X89746464Y-105673095D01*
X89867399Y-105705500D01*
X89867401Y-105705500D01*
X89992599Y-105705500D01*
X89992601Y-105705500D01*
X90113536Y-105673095D01*
X90221964Y-105610495D01*
X90310495Y-105521964D01*
X90373095Y-105413536D01*
X90405500Y-105292601D01*
X90405500Y-105167399D01*
X90373095Y-105046464D01*
X90310495Y-104938036D01*
X90221964Y-104849505D01*
X90113536Y-104786905D01*
X90113537Y-104786905D01*
X90073224Y-104776103D01*
X89992601Y-104754500D01*
X89867399Y-104754500D01*
X89786775Y-104776103D01*
X89746463Y-104786905D01*
X89638037Y-104849504D01*
X89638034Y-104849506D01*
X89549506Y-104938034D01*
X89549504Y-104938037D01*
X89486905Y-105046463D01*
X89486905Y-105046464D01*
X89454500Y-105167399D01*
X88150500Y-105167399D01*
X88150500Y-100875862D01*
X88170185Y-100808823D01*
X88186819Y-100788181D01*
X88788681Y-100186319D01*
X88850004Y-100152834D01*
X88876362Y-100150000D01*
X91598638Y-100150000D01*
X91665677Y-100169685D01*
X91686319Y-100186319D01*
X92338681Y-100838681D01*
X92372166Y-100900004D01*
X92375000Y-100926362D01*
X92375000Y-106450000D01*
X93400000Y-107475000D01*
X99425000Y-107475000D01*
X100475000Y-106425000D01*
X100475000Y-98367525D01*
X141359500Y-98367525D01*
X141359500Y-98512475D01*
X141391657Y-98632485D01*
X141397017Y-98652488D01*
X141469488Y-98778011D01*
X141469490Y-98778013D01*
X141469491Y-98778015D01*
X141571985Y-98880509D01*
X141571986Y-98880510D01*
X141571988Y-98880511D01*
X141697511Y-98952982D01*
X141697512Y-98952982D01*
X141697515Y-98952984D01*
X141837525Y-98990500D01*
X141837528Y-98990500D01*
X141982472Y-98990500D01*
X141982475Y-98990500D01*
X142122485Y-98952984D01*
X142248015Y-98880509D01*
X142350509Y-98778015D01*
X142422984Y-98652485D01*
X142460500Y-98512475D01*
X142460500Y-98367525D01*
X142455141Y-98347525D01*
X143799500Y-98347525D01*
X143799500Y-98492475D01*
X143837016Y-98632485D01*
X143837017Y-98632488D01*
X143909488Y-98758011D01*
X143909490Y-98758013D01*
X143909491Y-98758015D01*
X144011985Y-98860509D01*
X144011986Y-98860510D01*
X144011988Y-98860511D01*
X144137511Y-98932982D01*
X144137512Y-98932982D01*
X144137515Y-98932984D01*
X144277525Y-98970500D01*
X144277528Y-98970500D01*
X144422472Y-98970500D01*
X144422475Y-98970500D01*
X144562485Y-98932984D01*
X144688015Y-98860509D01*
X144790509Y-98758015D01*
X144862984Y-98632485D01*
X144900500Y-98492475D01*
X144900500Y-98427525D01*
X158074500Y-98427525D01*
X158074500Y-98572475D01*
X158090580Y-98632485D01*
X158112017Y-98712488D01*
X158184488Y-98838011D01*
X158184490Y-98838013D01*
X158184491Y-98838015D01*
X158286985Y-98940509D01*
X158286986Y-98940510D01*
X158286988Y-98940511D01*
X158412511Y-99012982D01*
X158412512Y-99012982D01*
X158412515Y-99012984D01*
X158552525Y-99050500D01*
X158552528Y-99050500D01*
X158697472Y-99050500D01*
X158697475Y-99050500D01*
X158837485Y-99012984D01*
X158963015Y-98940509D01*
X159065509Y-98838015D01*
X159137984Y-98712485D01*
X159175500Y-98572475D01*
X159175500Y-98427525D01*
X159137984Y-98287515D01*
X159132500Y-98278017D01*
X159065511Y-98161988D01*
X159065506Y-98161982D01*
X158963017Y-98059493D01*
X158963011Y-98059488D01*
X158837488Y-97987017D01*
X158837489Y-97987017D01*
X158809409Y-97979493D01*
X158697475Y-97949500D01*
X158552525Y-97949500D01*
X158440591Y-97979493D01*
X158412511Y-97987017D01*
X158286988Y-98059488D01*
X158286982Y-98059493D01*
X158184493Y-98161982D01*
X158184488Y-98161988D01*
X158112017Y-98287511D01*
X158112016Y-98287515D01*
X158074500Y-98427525D01*
X144900500Y-98427525D01*
X144900500Y-98347525D01*
X144862984Y-98207515D01*
X144845663Y-98177515D01*
X144790511Y-98081988D01*
X144790506Y-98081982D01*
X144688017Y-97979493D01*
X144688011Y-97979488D01*
X144562488Y-97907017D01*
X144562489Y-97907017D01*
X144551006Y-97903940D01*
X144422475Y-97869500D01*
X144277525Y-97869500D01*
X144148993Y-97903940D01*
X144137511Y-97907017D01*
X144011988Y-97979488D01*
X144011982Y-97979493D01*
X143909493Y-98081982D01*
X143909488Y-98081988D01*
X143837017Y-98207511D01*
X143837016Y-98207515D01*
X143799500Y-98347525D01*
X142455141Y-98347525D01*
X142422984Y-98227515D01*
X142394116Y-98177515D01*
X142350511Y-98101988D01*
X142350506Y-98101982D01*
X142248017Y-97999493D01*
X142248011Y-97999488D01*
X142122488Y-97927017D01*
X142122489Y-97927017D01*
X142111006Y-97923940D01*
X141982475Y-97889500D01*
X141837525Y-97889500D01*
X141708993Y-97923940D01*
X141697511Y-97927017D01*
X141571988Y-97999488D01*
X141571982Y-97999493D01*
X141469493Y-98101982D01*
X141469488Y-98101988D01*
X141397017Y-98227511D01*
X141397016Y-98227515D01*
X141359500Y-98367525D01*
X100475000Y-98367525D01*
X100475000Y-96897399D01*
X117934500Y-96897399D01*
X117934500Y-97022601D01*
X117966905Y-97143536D01*
X118029505Y-97251964D01*
X118118036Y-97340495D01*
X118226464Y-97403095D01*
X118347399Y-97435500D01*
X118347401Y-97435500D01*
X118472599Y-97435500D01*
X118472601Y-97435500D01*
X118593536Y-97403095D01*
X118701964Y-97340495D01*
X118790495Y-97251964D01*
X118810378Y-97217525D01*
X161349500Y-97217525D01*
X161349500Y-97362475D01*
X161387016Y-97502485D01*
X161416181Y-97553001D01*
X161432652Y-97620901D01*
X161416181Y-97676999D01*
X161387016Y-97727514D01*
X161387016Y-97727515D01*
X161349500Y-97867525D01*
X161349500Y-98012475D01*
X161387016Y-98152485D01*
X161387017Y-98152488D01*
X161459488Y-98278011D01*
X161459490Y-98278013D01*
X161459491Y-98278015D01*
X161561985Y-98380509D01*
X161561986Y-98380510D01*
X161561988Y-98380511D01*
X161687511Y-98452982D01*
X161687512Y-98452982D01*
X161687515Y-98452984D01*
X161827525Y-98490500D01*
X161827528Y-98490500D01*
X161972472Y-98490500D01*
X161972475Y-98490500D01*
X162112485Y-98452984D01*
X162238015Y-98380509D01*
X162340509Y-98278015D01*
X162412984Y-98152485D01*
X162450500Y-98012475D01*
X162450500Y-97867525D01*
X162412984Y-97727515D01*
X162383818Y-97676999D01*
X162367346Y-97609101D01*
X162383818Y-97553000D01*
X162412984Y-97502485D01*
X162450500Y-97362475D01*
X162450500Y-97217525D01*
X162412984Y-97077515D01*
X162381279Y-97022601D01*
X162340511Y-96951988D01*
X162340506Y-96951982D01*
X162238017Y-96849493D01*
X162238011Y-96849488D01*
X162112488Y-96777017D01*
X162112489Y-96777017D01*
X162088201Y-96770509D01*
X161972475Y-96739500D01*
X161827525Y-96739500D01*
X161711799Y-96770509D01*
X161687511Y-96777017D01*
X161561988Y-96849488D01*
X161561982Y-96849493D01*
X161459493Y-96951982D01*
X161459488Y-96951988D01*
X161387017Y-97077511D01*
X161387016Y-97077515D01*
X161349500Y-97217525D01*
X118810378Y-97217525D01*
X118853095Y-97143536D01*
X118885500Y-97022601D01*
X118885500Y-96897399D01*
X118853095Y-96776464D01*
X118790495Y-96668036D01*
X118701964Y-96579505D01*
X118593536Y-96516905D01*
X118593537Y-96516905D01*
X118553224Y-96506103D01*
X118472601Y-96484500D01*
X118347399Y-96484500D01*
X118266775Y-96506103D01*
X118226463Y-96516905D01*
X118118037Y-96579504D01*
X118118034Y-96579506D01*
X118029506Y-96668034D01*
X118029504Y-96668037D01*
X117966905Y-96776463D01*
X117966905Y-96776464D01*
X117934500Y-96897399D01*
X100475000Y-96897399D01*
X100475000Y-95547525D01*
X119259500Y-95547525D01*
X119259500Y-95692475D01*
X119266743Y-95719505D01*
X119297017Y-95832488D01*
X119343501Y-95913000D01*
X119359974Y-95980900D01*
X119343501Y-96037000D01*
X119297017Y-96117511D01*
X119297016Y-96117515D01*
X119259500Y-96257525D01*
X119259500Y-96402475D01*
X119280406Y-96480495D01*
X119297017Y-96542488D01*
X119369488Y-96668011D01*
X119369490Y-96668013D01*
X119369491Y-96668015D01*
X119471985Y-96770509D01*
X119471986Y-96770510D01*
X119471988Y-96770511D01*
X119597511Y-96842982D01*
X119597512Y-96842982D01*
X119597515Y-96842984D01*
X119737525Y-96880500D01*
X119737528Y-96880500D01*
X119882472Y-96880500D01*
X119882475Y-96880500D01*
X120022485Y-96842984D01*
X120148015Y-96770509D01*
X120250509Y-96668015D01*
X120322984Y-96542485D01*
X120360500Y-96402475D01*
X120360500Y-96257525D01*
X120322984Y-96117515D01*
X120322982Y-96117511D01*
X120322982Y-96117510D01*
X120322981Y-96117509D01*
X120276499Y-96037001D01*
X120260025Y-95969101D01*
X120276499Y-95912999D01*
X120322981Y-95832490D01*
X120322982Y-95832489D01*
X120322982Y-95832487D01*
X120322984Y-95832485D01*
X120360500Y-95692475D01*
X120360500Y-95547525D01*
X120322984Y-95407515D01*
X120250509Y-95281985D01*
X120148015Y-95179491D01*
X120148013Y-95179490D01*
X120148011Y-95179488D01*
X120022488Y-95107017D01*
X120022489Y-95107017D01*
X120011006Y-95103940D01*
X119882475Y-95069500D01*
X119737525Y-95069500D01*
X119608993Y-95103940D01*
X119597511Y-95107017D01*
X119471988Y-95179488D01*
X119471982Y-95179493D01*
X119369493Y-95281982D01*
X119369488Y-95281988D01*
X119297017Y-95407511D01*
X119297016Y-95407515D01*
X119259500Y-95547525D01*
X100475000Y-95547525D01*
X100475000Y-94450000D01*
X100125000Y-94100000D01*
X98749500Y-94100000D01*
X98682461Y-94080315D01*
X98636706Y-94027511D01*
X98625500Y-93976000D01*
X98625500Y-91783799D01*
X182834500Y-91783799D01*
X182834500Y-91909001D01*
X182866905Y-92029936D01*
X182929505Y-92138364D01*
X183018036Y-92226895D01*
X183126464Y-92289495D01*
X183247399Y-92321900D01*
X183247401Y-92321900D01*
X183372599Y-92321900D01*
X183372601Y-92321900D01*
X183493536Y-92289495D01*
X183601964Y-92226895D01*
X183690495Y-92138364D01*
X183753095Y-92029936D01*
X183785500Y-91909001D01*
X183785500Y-91783799D01*
X183753095Y-91662864D01*
X183690495Y-91554436D01*
X183601964Y-91465905D01*
X183493536Y-91403305D01*
X183493537Y-91403305D01*
X183453224Y-91392503D01*
X183372601Y-91370900D01*
X183247399Y-91370900D01*
X183166775Y-91392503D01*
X183126463Y-91403305D01*
X183018037Y-91465904D01*
X183018034Y-91465906D01*
X182929506Y-91554434D01*
X182929504Y-91554437D01*
X182866905Y-91662863D01*
X182866905Y-91662864D01*
X182834500Y-91783799D01*
X98625500Y-91783799D01*
X98625500Y-88986899D01*
X98634144Y-88957458D01*
X98640668Y-88927472D01*
X98644422Y-88922456D01*
X98645185Y-88919860D01*
X98661819Y-88899218D01*
X98713512Y-88847525D01*
X117929500Y-88847525D01*
X117929500Y-88992475D01*
X117961790Y-89112982D01*
X117967017Y-89132488D01*
X118013501Y-89213000D01*
X118029974Y-89280900D01*
X118013501Y-89337000D01*
X117967017Y-89417511D01*
X117967016Y-89417515D01*
X117929500Y-89557525D01*
X117929500Y-89702475D01*
X117967016Y-89842485D01*
X117967017Y-89842488D01*
X118039488Y-89968011D01*
X118039490Y-89968013D01*
X118039491Y-89968015D01*
X118141985Y-90070509D01*
X118141986Y-90070510D01*
X118141988Y-90070511D01*
X118267511Y-90142982D01*
X118267512Y-90142982D01*
X118267515Y-90142984D01*
X118407525Y-90180500D01*
X118407528Y-90180500D01*
X118552472Y-90180500D01*
X118552475Y-90180500D01*
X118692485Y-90142984D01*
X118818015Y-90070509D01*
X118920509Y-89968015D01*
X118992984Y-89842485D01*
X119030500Y-89702475D01*
X119030500Y-89557525D01*
X118992984Y-89417515D01*
X118992982Y-89417511D01*
X118992982Y-89417510D01*
X118992981Y-89417509D01*
X118946499Y-89337001D01*
X118930025Y-89269101D01*
X118946499Y-89212999D01*
X118992981Y-89132490D01*
X118992982Y-89132489D01*
X118992982Y-89132487D01*
X118992984Y-89132485D01*
X119030500Y-88992475D01*
X119030500Y-88847525D01*
X118992984Y-88707515D01*
X118951151Y-88635059D01*
X118920511Y-88581988D01*
X118920506Y-88581982D01*
X118818017Y-88479493D01*
X118818011Y-88479488D01*
X118692488Y-88407017D01*
X118692489Y-88407017D01*
X118681006Y-88403940D01*
X118552475Y-88369500D01*
X118407525Y-88369500D01*
X118278993Y-88403940D01*
X118267511Y-88407017D01*
X118141988Y-88479488D01*
X118141982Y-88479493D01*
X118039493Y-88581982D01*
X118039488Y-88581988D01*
X117967017Y-88707511D01*
X117967016Y-88707515D01*
X117929500Y-88847525D01*
X98713512Y-88847525D01*
X98809320Y-88751717D01*
X99285137Y-88275901D01*
X99693513Y-87867525D01*
X160429500Y-87867525D01*
X160429500Y-88012475D01*
X160467016Y-88152485D01*
X160499068Y-88208001D01*
X160515540Y-88275901D01*
X160499068Y-88331999D01*
X160467016Y-88387514D01*
X160467016Y-88387515D01*
X160429500Y-88527525D01*
X160429500Y-88672475D01*
X160467016Y-88812485D01*
X160467017Y-88812488D01*
X160539488Y-88938011D01*
X160539490Y-88938013D01*
X160539491Y-88938015D01*
X160641985Y-89040509D01*
X160641986Y-89040510D01*
X160641988Y-89040511D01*
X160767511Y-89112982D01*
X160767512Y-89112982D01*
X160767515Y-89112984D01*
X160907525Y-89150500D01*
X160907528Y-89150500D01*
X161052472Y-89150500D01*
X161052475Y-89150500D01*
X161192485Y-89112984D01*
X161318015Y-89040509D01*
X161420509Y-88938015D01*
X161492984Y-88812485D01*
X161530500Y-88672475D01*
X161530500Y-88527525D01*
X161492984Y-88387515D01*
X161492982Y-88387512D01*
X161492982Y-88387510D01*
X161492981Y-88387509D01*
X161460933Y-88332001D01*
X161444459Y-88264101D01*
X161460933Y-88207999D01*
X161492981Y-88152490D01*
X161492982Y-88152489D01*
X161492982Y-88152487D01*
X161492984Y-88152485D01*
X161530500Y-88012475D01*
X161530500Y-87867525D01*
X161492984Y-87727515D01*
X161425430Y-87610509D01*
X161420511Y-87601988D01*
X161420506Y-87601982D01*
X161318017Y-87499493D01*
X161318011Y-87499488D01*
X161192488Y-87427017D01*
X161192489Y-87427017D01*
X161181006Y-87423940D01*
X161052475Y-87389500D01*
X160907525Y-87389500D01*
X160778993Y-87423940D01*
X160767511Y-87427017D01*
X160641988Y-87499488D01*
X160641982Y-87499493D01*
X160539493Y-87601982D01*
X160539488Y-87601988D01*
X160467017Y-87727511D01*
X160467016Y-87727515D01*
X160429500Y-87867525D01*
X99693513Y-87867525D01*
X99804219Y-87756819D01*
X99865542Y-87723334D01*
X99891900Y-87720500D01*
X99932472Y-87720500D01*
X99932475Y-87720500D01*
X100072485Y-87682984D01*
X100198015Y-87610509D01*
X100300509Y-87508015D01*
X100372984Y-87382485D01*
X100410500Y-87242475D01*
X100410500Y-87097525D01*
X100372984Y-86957515D01*
X100364600Y-86942994D01*
X100300511Y-86831988D01*
X100300506Y-86831982D01*
X100198017Y-86729493D01*
X100198011Y-86729488D01*
X100072488Y-86657017D01*
X100072489Y-86657017D01*
X100061006Y-86653940D01*
X99932475Y-86619500D01*
X99787525Y-86619500D01*
X99658993Y-86653940D01*
X99647511Y-86657017D01*
X99521988Y-86729488D01*
X99521982Y-86729493D01*
X99419493Y-86831982D01*
X99419488Y-86831988D01*
X99347017Y-86957511D01*
X99347016Y-86957515D01*
X99309500Y-87097525D01*
X99309500Y-87097527D01*
X99309500Y-87138100D01*
X99289815Y-87205139D01*
X99273181Y-87225781D01*
X98019438Y-88479525D01*
X97949526Y-88549436D01*
X97900091Y-88635059D01*
X97900091Y-88635060D01*
X97900090Y-88635062D01*
X97874500Y-88730565D01*
X97874500Y-88730567D01*
X97874500Y-93976000D01*
X97854815Y-94043039D01*
X97802011Y-94088794D01*
X97750500Y-94100000D01*
X95576362Y-94100000D01*
X95509323Y-94080315D01*
X95488681Y-94063681D01*
X95211319Y-93786319D01*
X95177834Y-93724996D01*
X95175000Y-93698638D01*
X95175000Y-84502525D01*
X103249500Y-84502525D01*
X103249500Y-84647475D01*
X103287016Y-84787485D01*
X103287017Y-84787488D01*
X103359488Y-84913011D01*
X103359490Y-84913013D01*
X103359491Y-84913015D01*
X103461985Y-85015509D01*
X103461986Y-85015510D01*
X103461988Y-85015511D01*
X103587511Y-85087982D01*
X103587512Y-85087982D01*
X103587515Y-85087984D01*
X103727525Y-85125500D01*
X103727528Y-85125500D01*
X103872472Y-85125500D01*
X103872475Y-85125500D01*
X104012485Y-85087984D01*
X104138015Y-85015509D01*
X104240509Y-84913015D01*
X104255298Y-84887399D01*
X148894500Y-84887399D01*
X148894500Y-85012601D01*
X148926905Y-85133536D01*
X148989505Y-85241964D01*
X149078036Y-85330495D01*
X149186464Y-85393095D01*
X149307399Y-85425500D01*
X149307401Y-85425500D01*
X149432599Y-85425500D01*
X149432601Y-85425500D01*
X149553536Y-85393095D01*
X149661964Y-85330495D01*
X149750495Y-85241964D01*
X149813095Y-85133536D01*
X149845500Y-85012601D01*
X149845500Y-84887399D01*
X149813095Y-84766464D01*
X149750495Y-84658036D01*
X149661964Y-84569505D01*
X149553536Y-84506905D01*
X149553537Y-84506905D01*
X149513224Y-84496103D01*
X149432601Y-84474500D01*
X149307399Y-84474500D01*
X149226775Y-84496103D01*
X149186463Y-84506905D01*
X149078037Y-84569504D01*
X149078034Y-84569506D01*
X148989506Y-84658034D01*
X148989504Y-84658037D01*
X148926905Y-84766463D01*
X148921271Y-84787489D01*
X148894500Y-84887399D01*
X104255298Y-84887399D01*
X104312984Y-84787485D01*
X104350500Y-84647475D01*
X104350500Y-84502525D01*
X104312984Y-84362515D01*
X104296252Y-84333535D01*
X104240511Y-84236988D01*
X104240506Y-84236982D01*
X104138017Y-84134493D01*
X104138011Y-84134488D01*
X104022028Y-84067525D01*
X152079500Y-84067525D01*
X152079500Y-84212475D01*
X152117016Y-84352485D01*
X152117017Y-84352488D01*
X152189488Y-84478011D01*
X152189490Y-84478013D01*
X152189491Y-84478015D01*
X152291985Y-84580509D01*
X152291986Y-84580510D01*
X152291988Y-84580511D01*
X152417511Y-84652982D01*
X152417512Y-84652982D01*
X152417515Y-84652984D01*
X152557525Y-84690500D01*
X152557528Y-84690500D01*
X152702472Y-84690500D01*
X152702475Y-84690500D01*
X152842485Y-84652984D01*
X152968015Y-84580509D01*
X153070509Y-84478015D01*
X153142984Y-84352485D01*
X153180500Y-84212475D01*
X153180500Y-84077524D01*
X153829500Y-84077524D01*
X153829500Y-84222474D01*
X153859259Y-84333535D01*
X153867017Y-84362487D01*
X153939482Y-84487999D01*
X153955955Y-84555899D01*
X153939482Y-84611999D01*
X153867017Y-84737511D01*
X153867016Y-84737515D01*
X153829500Y-84877525D01*
X153829500Y-85022475D01*
X153857106Y-85125500D01*
X153867017Y-85162488D01*
X153939488Y-85288011D01*
X153939490Y-85288013D01*
X153939491Y-85288015D01*
X154041985Y-85390509D01*
X154041986Y-85390510D01*
X154041988Y-85390511D01*
X154167511Y-85462982D01*
X154167512Y-85462982D01*
X154167515Y-85462984D01*
X154307525Y-85500500D01*
X154307528Y-85500500D01*
X154452472Y-85500500D01*
X154452475Y-85500500D01*
X154592485Y-85462984D01*
X154718015Y-85390509D01*
X154820509Y-85288015D01*
X154892984Y-85162485D01*
X154930500Y-85022475D01*
X154930500Y-84877525D01*
X154892984Y-84737515D01*
X154820516Y-84611998D01*
X154804044Y-84544099D01*
X154820515Y-84488002D01*
X154892984Y-84362484D01*
X154930500Y-84222474D01*
X154930500Y-84087398D01*
X160454500Y-84087398D01*
X160454500Y-84212600D01*
X160486905Y-84333535D01*
X160549505Y-84441963D01*
X160638036Y-84530494D01*
X160746464Y-84593094D01*
X160867399Y-84625499D01*
X160867401Y-84625499D01*
X160992599Y-84625499D01*
X160992601Y-84625499D01*
X161113536Y-84593094D01*
X161221964Y-84530494D01*
X161310495Y-84441963D01*
X161373095Y-84333535D01*
X161405500Y-84212600D01*
X161405500Y-84087398D01*
X161373095Y-83966463D01*
X161310495Y-83858035D01*
X161221964Y-83769504D01*
X161113536Y-83706904D01*
X161113537Y-83706904D01*
X161073224Y-83696102D01*
X160992601Y-83674499D01*
X160867399Y-83674499D01*
X160786775Y-83696102D01*
X160746463Y-83706904D01*
X160638037Y-83769503D01*
X160638034Y-83769505D01*
X160549506Y-83858033D01*
X160549504Y-83858036D01*
X160486905Y-83966462D01*
X160486905Y-83966463D01*
X160454500Y-84087398D01*
X154930500Y-84087398D01*
X154930500Y-84077524D01*
X154892984Y-83937514D01*
X154847095Y-83858033D01*
X154820511Y-83811987D01*
X154820506Y-83811981D01*
X154718017Y-83709492D01*
X154718011Y-83709487D01*
X154592488Y-83637016D01*
X154592489Y-83637016D01*
X154555172Y-83627017D01*
X154452475Y-83599499D01*
X154307525Y-83599499D01*
X154204828Y-83627017D01*
X154167511Y-83637016D01*
X154041988Y-83709487D01*
X154041982Y-83709492D01*
X153939493Y-83811981D01*
X153939488Y-83811987D01*
X153867017Y-83937510D01*
X153867016Y-83937514D01*
X153829500Y-84077524D01*
X153180500Y-84077524D01*
X153180500Y-84067525D01*
X153142984Y-83927515D01*
X153102868Y-83858033D01*
X153070511Y-83801988D01*
X153070506Y-83801982D01*
X152968017Y-83699493D01*
X152968011Y-83699488D01*
X152842488Y-83627017D01*
X152842489Y-83627017D01*
X152831006Y-83623940D01*
X152702475Y-83589500D01*
X152557525Y-83589500D01*
X152428993Y-83623940D01*
X152417511Y-83627017D01*
X152291988Y-83699488D01*
X152291982Y-83699493D01*
X152189493Y-83801982D01*
X152189488Y-83801988D01*
X152117017Y-83927511D01*
X152117016Y-83927515D01*
X152079500Y-84067525D01*
X104022028Y-84067525D01*
X104012488Y-84062017D01*
X104012489Y-84062017D01*
X104001006Y-84058940D01*
X103872475Y-84024500D01*
X103727525Y-84024500D01*
X103598993Y-84058940D01*
X103587511Y-84062017D01*
X103461988Y-84134488D01*
X103461982Y-84134493D01*
X103359493Y-84236982D01*
X103359488Y-84236988D01*
X103287017Y-84362511D01*
X103287016Y-84362515D01*
X103249500Y-84502525D01*
X95175000Y-84502525D01*
X95175000Y-82602525D01*
X117674500Y-82602525D01*
X117674500Y-82747475D01*
X117712016Y-82887485D01*
X117712017Y-82887488D01*
X117784488Y-83013011D01*
X117784490Y-83013013D01*
X117784491Y-83013015D01*
X117886985Y-83115509D01*
X117886986Y-83115510D01*
X117886988Y-83115511D01*
X118012511Y-83187982D01*
X118012512Y-83187982D01*
X118012515Y-83187984D01*
X118152525Y-83225500D01*
X118152528Y-83225500D01*
X118297472Y-83225500D01*
X118297475Y-83225500D01*
X118437485Y-83187984D01*
X118563015Y-83115509D01*
X118665509Y-83013015D01*
X118737984Y-82887485D01*
X118775500Y-82747475D01*
X118775500Y-82602525D01*
X118737984Y-82462515D01*
X118691597Y-82382171D01*
X118665511Y-82336988D01*
X118665506Y-82336982D01*
X118563017Y-82234493D01*
X118563011Y-82234488D01*
X118437488Y-82162017D01*
X118437489Y-82162017D01*
X118426006Y-82158940D01*
X118297475Y-82124500D01*
X118152525Y-82124500D01*
X118023993Y-82158940D01*
X118012511Y-82162017D01*
X117886988Y-82234488D01*
X117886982Y-82234493D01*
X117784493Y-82336982D01*
X117784488Y-82336988D01*
X117712017Y-82462511D01*
X117712016Y-82462515D01*
X117674500Y-82602525D01*
X95175000Y-82602525D01*
X95175000Y-81777399D01*
X153684500Y-81777399D01*
X153684500Y-81902601D01*
X153716905Y-82023536D01*
X153779505Y-82131964D01*
X153868036Y-82220495D01*
X153976464Y-82283095D01*
X154097399Y-82315500D01*
X154097401Y-82315500D01*
X154222599Y-82315500D01*
X154222601Y-82315500D01*
X154343536Y-82283095D01*
X154451964Y-82220495D01*
X154540495Y-82131964D01*
X154603095Y-82023536D01*
X154635500Y-81902601D01*
X154635500Y-81777399D01*
X154603095Y-81656464D01*
X154540495Y-81548036D01*
X154451964Y-81459505D01*
X154343536Y-81396905D01*
X154343537Y-81396905D01*
X154303224Y-81386103D01*
X154222601Y-81364500D01*
X154097399Y-81364500D01*
X154016775Y-81386103D01*
X153976463Y-81396905D01*
X153868037Y-81459504D01*
X153868034Y-81459506D01*
X153779506Y-81548034D01*
X153779504Y-81548037D01*
X153716905Y-81656463D01*
X153716905Y-81656464D01*
X153684500Y-81777399D01*
X95175000Y-81777399D01*
X95175000Y-80118389D01*
X119004500Y-80118389D01*
X119004500Y-80241610D01*
X119028535Y-80362444D01*
X119028538Y-80362454D01*
X119075687Y-80476283D01*
X119075691Y-80476290D01*
X119103957Y-80518593D01*
X119124834Y-80585270D01*
X119106349Y-80652650D01*
X119103958Y-80656372D01*
X119085687Y-80683716D01*
X119038538Y-80797545D01*
X119038535Y-80797555D01*
X119014500Y-80918389D01*
X119014500Y-81041610D01*
X119038535Y-81162444D01*
X119038538Y-81162454D01*
X119085687Y-81276283D01*
X119085692Y-81276292D01*
X119154141Y-81378732D01*
X119154144Y-81378736D01*
X119241263Y-81465855D01*
X119241267Y-81465858D01*
X119343707Y-81534307D01*
X119343713Y-81534310D01*
X119343714Y-81534311D01*
X119457548Y-81581463D01*
X119578389Y-81605499D01*
X119578393Y-81605500D01*
X119578394Y-81605500D01*
X119701607Y-81605500D01*
X119701608Y-81605499D01*
X119822452Y-81581463D01*
X119936286Y-81534311D01*
X120038733Y-81465858D01*
X120125858Y-81378733D01*
X120194311Y-81276286D01*
X120241463Y-81162452D01*
X120265500Y-81041606D01*
X120265500Y-80918394D01*
X120264544Y-80913586D01*
X120264544Y-80913584D01*
X120261350Y-80897525D01*
X124059500Y-80897525D01*
X124059500Y-81042475D01*
X124097016Y-81182485D01*
X124097017Y-81182488D01*
X124169488Y-81308011D01*
X124169490Y-81308013D01*
X124169491Y-81308015D01*
X124271985Y-81410509D01*
X124271986Y-81410510D01*
X124271988Y-81410511D01*
X124397511Y-81482982D01*
X124397512Y-81482982D01*
X124397515Y-81482984D01*
X124537525Y-81520500D01*
X124537528Y-81520500D01*
X124682472Y-81520500D01*
X124682475Y-81520500D01*
X124822485Y-81482984D01*
X124948015Y-81410509D01*
X125050509Y-81308015D01*
X125122984Y-81182485D01*
X125160500Y-81042475D01*
X125160500Y-80897525D01*
X125122984Y-80757515D01*
X125050509Y-80631985D01*
X124948015Y-80529491D01*
X124948013Y-80529490D01*
X124948011Y-80529488D01*
X124822488Y-80457017D01*
X124822489Y-80457017D01*
X124811006Y-80453940D01*
X124682475Y-80419500D01*
X124537525Y-80419500D01*
X124408993Y-80453940D01*
X124397511Y-80457017D01*
X124271988Y-80529488D01*
X124271982Y-80529493D01*
X124169493Y-80631982D01*
X124169488Y-80631988D01*
X124097017Y-80757511D01*
X124097016Y-80757515D01*
X124059500Y-80897525D01*
X120261350Y-80897525D01*
X120241464Y-80797555D01*
X120241463Y-80797548D01*
X120194311Y-80683714D01*
X120194310Y-80683713D01*
X120194307Y-80683707D01*
X120166043Y-80641407D01*
X120145165Y-80574729D01*
X120163650Y-80507349D01*
X120166043Y-80503625D01*
X120182769Y-80478593D01*
X120184311Y-80476286D01*
X120231463Y-80362452D01*
X120255500Y-80241606D01*
X120255500Y-80118394D01*
X120247543Y-80078389D01*
X161214500Y-80078389D01*
X161214500Y-80201610D01*
X161238535Y-80322444D01*
X161238538Y-80322454D01*
X161285687Y-80436283D01*
X161285691Y-80436290D01*
X161313957Y-80478593D01*
X161334834Y-80545270D01*
X161316349Y-80612650D01*
X161313958Y-80616372D01*
X161295687Y-80643716D01*
X161248538Y-80757545D01*
X161248535Y-80757555D01*
X161224500Y-80878389D01*
X161224500Y-81001610D01*
X161248535Y-81122444D01*
X161248538Y-81122454D01*
X161295687Y-81236283D01*
X161295692Y-81236292D01*
X161364141Y-81338732D01*
X161364144Y-81338736D01*
X161451263Y-81425855D01*
X161451267Y-81425858D01*
X161553707Y-81494307D01*
X161553713Y-81494310D01*
X161553714Y-81494311D01*
X161667548Y-81541463D01*
X161788389Y-81565499D01*
X161788393Y-81565500D01*
X161788394Y-81565500D01*
X161911607Y-81565500D01*
X161911608Y-81565499D01*
X162032452Y-81541463D01*
X162146286Y-81494311D01*
X162248733Y-81425858D01*
X162335858Y-81338733D01*
X162404311Y-81236286D01*
X162451463Y-81122452D01*
X162475500Y-81001606D01*
X162475500Y-80878394D01*
X162451463Y-80757548D01*
X162408988Y-80655004D01*
X162404312Y-80643716D01*
X162404307Y-80643707D01*
X162376043Y-80601407D01*
X162355165Y-80534729D01*
X162373650Y-80467349D01*
X162376043Y-80463625D01*
X162394311Y-80436286D01*
X162441463Y-80322452D01*
X162465500Y-80201606D01*
X162465500Y-80078394D01*
X162441463Y-79957548D01*
X162394311Y-79843714D01*
X162394310Y-79843713D01*
X162394307Y-79843707D01*
X162325858Y-79741267D01*
X162325855Y-79741263D01*
X162238736Y-79654144D01*
X162238732Y-79654141D01*
X162136292Y-79585692D01*
X162136283Y-79585687D01*
X162022454Y-79538538D01*
X162022455Y-79538538D01*
X162022452Y-79538537D01*
X162022448Y-79538536D01*
X162022444Y-79538535D01*
X161901610Y-79514500D01*
X161901606Y-79514500D01*
X161778394Y-79514500D01*
X161778389Y-79514500D01*
X161657555Y-79538535D01*
X161657545Y-79538538D01*
X161543716Y-79585687D01*
X161543707Y-79585692D01*
X161441267Y-79654141D01*
X161441263Y-79654144D01*
X161354144Y-79741263D01*
X161354141Y-79741267D01*
X161285692Y-79843707D01*
X161285687Y-79843716D01*
X161238538Y-79957545D01*
X161238535Y-79957555D01*
X161214500Y-80078389D01*
X120247543Y-80078389D01*
X120231463Y-79997548D01*
X120185051Y-79885500D01*
X120184312Y-79883716D01*
X120184307Y-79883707D01*
X120115858Y-79781267D01*
X120115855Y-79781263D01*
X120028736Y-79694144D01*
X120028732Y-79694141D01*
X119926292Y-79625692D01*
X119926283Y-79625687D01*
X119833477Y-79587246D01*
X119812452Y-79578537D01*
X119812448Y-79578536D01*
X119812444Y-79578535D01*
X119691610Y-79554500D01*
X119691606Y-79554500D01*
X119568394Y-79554500D01*
X119568389Y-79554500D01*
X119447555Y-79578535D01*
X119447545Y-79578538D01*
X119333716Y-79625687D01*
X119333707Y-79625692D01*
X119231267Y-79694141D01*
X119231263Y-79694144D01*
X119144144Y-79781263D01*
X119144141Y-79781267D01*
X119075692Y-79883707D01*
X119075687Y-79883716D01*
X119028538Y-79997545D01*
X119028535Y-79997555D01*
X119004500Y-80118389D01*
X95175000Y-80118389D01*
X95175000Y-79198389D01*
X166644500Y-79198389D01*
X166644500Y-79321610D01*
X166668535Y-79442444D01*
X166668538Y-79442454D01*
X166715687Y-79556283D01*
X166715692Y-79556292D01*
X166784141Y-79658732D01*
X166784144Y-79658736D01*
X166871263Y-79745855D01*
X166871267Y-79745858D01*
X166973707Y-79814307D01*
X166973713Y-79814310D01*
X166973714Y-79814311D01*
X167087548Y-79861463D01*
X167199380Y-79883707D01*
X167208389Y-79885499D01*
X167208393Y-79885500D01*
X167208394Y-79885500D01*
X167331607Y-79885500D01*
X167331608Y-79885499D01*
X167452452Y-79861463D01*
X167566286Y-79814311D01*
X167668733Y-79745858D01*
X167755858Y-79658733D01*
X167824311Y-79556286D01*
X167871463Y-79442452D01*
X167895500Y-79321606D01*
X167895500Y-79198394D01*
X167871463Y-79077548D01*
X167824311Y-78963714D01*
X167824310Y-78963713D01*
X167824307Y-78963707D01*
X167755858Y-78861267D01*
X167755855Y-78861263D01*
X167668736Y-78774144D01*
X167668732Y-78774141D01*
X167566292Y-78705692D01*
X167566283Y-78705687D01*
X167452454Y-78658538D01*
X167452455Y-78658538D01*
X167452452Y-78658537D01*
X167452448Y-78658536D01*
X167452444Y-78658535D01*
X167331610Y-78634500D01*
X167331606Y-78634500D01*
X167208394Y-78634500D01*
X167208389Y-78634500D01*
X167087555Y-78658535D01*
X167087545Y-78658538D01*
X166973716Y-78705687D01*
X166973707Y-78705692D01*
X166871267Y-78774141D01*
X166871263Y-78774144D01*
X166784144Y-78861263D01*
X166784141Y-78861267D01*
X166715692Y-78963707D01*
X166715687Y-78963716D01*
X166668538Y-79077545D01*
X166668535Y-79077555D01*
X166644500Y-79198389D01*
X95175000Y-79198389D01*
X95175000Y-78351362D01*
X95194685Y-78284323D01*
X95211319Y-78263681D01*
X95613681Y-77861319D01*
X95675004Y-77827834D01*
X95701362Y-77825000D01*
X186293638Y-77825000D01*
X186360677Y-77844685D01*
G37*
%TD.AperFunction*%
%TD*%
%TA.AperFunction,Conductor*%
%TO.N,AGND*%
G36*
X128804133Y-100059685D02*
G01*
X128849888Y-100112489D01*
X128851656Y-100116549D01*
X128855688Y-100126285D01*
X128855692Y-100126292D01*
X128924141Y-100228732D01*
X128924144Y-100228736D01*
X129011263Y-100315855D01*
X129011267Y-100315858D01*
X129113707Y-100384307D01*
X129113716Y-100384312D01*
X129116572Y-100385495D01*
X129227548Y-100431463D01*
X129328088Y-100451461D01*
X129348389Y-100455499D01*
X129348393Y-100455500D01*
X129348394Y-100455500D01*
X129471607Y-100455500D01*
X129471608Y-100455499D01*
X129592452Y-100431463D01*
X129706286Y-100384311D01*
X129808733Y-100315858D01*
X129837319Y-100287271D01*
X129898637Y-100253788D01*
X129968329Y-100258770D01*
X130012680Y-100287272D01*
X130061263Y-100335855D01*
X130061267Y-100335858D01*
X130163707Y-100404307D01*
X130163713Y-100404310D01*
X130163714Y-100404311D01*
X130277548Y-100451463D01*
X130398389Y-100475499D01*
X130398393Y-100475500D01*
X130398394Y-100475500D01*
X130521607Y-100475500D01*
X130521608Y-100475499D01*
X130642452Y-100451463D01*
X130756286Y-100404311D01*
X130858733Y-100335858D01*
X130858736Y-100335855D01*
X130887319Y-100307273D01*
X130948642Y-100273788D01*
X131018334Y-100278772D01*
X131062681Y-100307273D01*
X131091263Y-100335855D01*
X131091267Y-100335858D01*
X131193707Y-100404307D01*
X131193713Y-100404310D01*
X131193714Y-100404311D01*
X131307548Y-100451463D01*
X131428389Y-100475499D01*
X131428393Y-100475500D01*
X131428394Y-100475500D01*
X131551607Y-100475500D01*
X131551608Y-100475499D01*
X131672452Y-100451463D01*
X131786286Y-100404311D01*
X131888733Y-100335858D01*
X131975858Y-100248733D01*
X132044311Y-100146286D01*
X132056629Y-100116547D01*
X132100469Y-100062145D01*
X132166763Y-100040079D01*
X132171190Y-100040000D01*
X145572138Y-100040000D01*
X145639177Y-100059685D01*
X145673854Y-100096050D01*
X145674555Y-100095513D01*
X145679504Y-100101962D01*
X145679505Y-100101964D01*
X145768036Y-100190495D01*
X145876464Y-100253095D01*
X145997399Y-100285500D01*
X145997401Y-100285500D01*
X146122599Y-100285500D01*
X146122601Y-100285500D01*
X146243536Y-100253095D01*
X146351964Y-100190495D01*
X146440495Y-100101964D01*
X146440498Y-100101957D01*
X146445445Y-100095513D01*
X146446459Y-100096291D01*
X146491047Y-100053782D01*
X146547862Y-100040000D01*
X149468179Y-100040000D01*
X149535218Y-100059685D01*
X149580973Y-100112489D01*
X149590917Y-100181647D01*
X149561892Y-100245203D01*
X149555860Y-100251681D01*
X149519506Y-100288034D01*
X149519504Y-100288037D01*
X149456905Y-100396463D01*
X149456905Y-100396464D01*
X149424500Y-100517399D01*
X149424500Y-100642601D01*
X149456905Y-100763536D01*
X149519505Y-100871964D01*
X149608036Y-100960495D01*
X149716464Y-101023095D01*
X149837399Y-101055500D01*
X149837401Y-101055500D01*
X149892808Y-101055500D01*
X149959847Y-101075185D01*
X150005602Y-101127989D01*
X150012582Y-101147405D01*
X150016902Y-101163529D01*
X150016905Y-101163536D01*
X150079505Y-101271964D01*
X150168036Y-101360495D01*
X150276464Y-101423095D01*
X150397399Y-101455500D01*
X150397401Y-101455500D01*
X150522599Y-101455500D01*
X150522601Y-101455500D01*
X150643536Y-101423095D01*
X150751964Y-101360495D01*
X150840495Y-101271964D01*
X150903095Y-101163536D01*
X150935500Y-101042601D01*
X150935500Y-100917399D01*
X150903095Y-100796464D01*
X150840495Y-100688036D01*
X150840491Y-100688032D01*
X150835549Y-100681591D01*
X150837880Y-100679801D01*
X150811155Y-100630858D01*
X150816139Y-100561166D01*
X150858011Y-100505233D01*
X150923475Y-100480816D01*
X150932321Y-100480500D01*
X151037599Y-100480500D01*
X151037601Y-100480500D01*
X151158536Y-100448095D01*
X151266964Y-100385495D01*
X151355495Y-100296964D01*
X151418095Y-100188536D01*
X151433269Y-100131903D01*
X151469635Y-100072245D01*
X151532482Y-100041717D01*
X151553044Y-100040000D01*
X167058638Y-100040000D01*
X167125677Y-100059685D01*
X167146319Y-100076319D01*
X169648681Y-102578681D01*
X169682166Y-102640004D01*
X169685000Y-102666362D01*
X169685000Y-115952349D01*
X169665315Y-116019388D01*
X169612511Y-116065143D01*
X169593099Y-116072121D01*
X169544252Y-116085210D01*
X169537511Y-116087017D01*
X169411988Y-116159488D01*
X169411982Y-116159493D01*
X169309493Y-116261982D01*
X169309488Y-116261988D01*
X169237017Y-116387511D01*
X169237016Y-116387515D01*
X169199500Y-116527525D01*
X169199500Y-116672475D01*
X169237016Y-116812485D01*
X169237017Y-116812488D01*
X169309488Y-116938011D01*
X169309493Y-116938017D01*
X169353056Y-116981580D01*
X169386541Y-117042903D01*
X169381557Y-117112595D01*
X169353056Y-117156942D01*
X167596819Y-118913181D01*
X167535496Y-118946666D01*
X167509138Y-118949500D01*
X116640862Y-118949500D01*
X116573823Y-118929815D01*
X116553181Y-118913181D01*
X114836319Y-117196319D01*
X114802834Y-117134996D01*
X114800000Y-117108638D01*
X114800000Y-116813389D01*
X120149500Y-116813389D01*
X120149500Y-116986610D01*
X120176477Y-117156942D01*
X120176598Y-117157701D01*
X120230127Y-117322445D01*
X120308768Y-117476788D01*
X120410586Y-117616928D01*
X120533072Y-117739414D01*
X120673212Y-117841232D01*
X120827555Y-117919873D01*
X120992299Y-117973402D01*
X121163389Y-118000500D01*
X121163390Y-118000500D01*
X121336610Y-118000500D01*
X121336611Y-118000500D01*
X121507701Y-117973402D01*
X121672445Y-117919873D01*
X121826788Y-117841232D01*
X121915838Y-117776533D01*
X154664499Y-117776533D01*
X154690458Y-117907030D01*
X154690461Y-117907040D01*
X154741376Y-118029961D01*
X154741386Y-118029979D01*
X154815301Y-118140601D01*
X154815307Y-118140609D01*
X154909390Y-118234692D01*
X154909398Y-118234698D01*
X155020020Y-118308613D01*
X155020023Y-118308614D01*
X155020031Y-118308620D01*
X155142964Y-118359540D01*
X155142968Y-118359540D01*
X155142969Y-118359541D01*
X155273466Y-118385500D01*
X155273469Y-118385500D01*
X155406533Y-118385500D01*
X155494325Y-118368035D01*
X155537036Y-118359540D01*
X155659969Y-118308620D01*
X155692755Y-118286712D01*
X155771110Y-118234359D01*
X155837787Y-118213481D01*
X155905167Y-118231966D01*
X155908890Y-118234359D01*
X156020020Y-118308613D01*
X156020023Y-118308614D01*
X156020031Y-118308620D01*
X156142964Y-118359540D01*
X156142968Y-118359540D01*
X156142969Y-118359541D01*
X156273466Y-118385500D01*
X156273469Y-118385500D01*
X156406533Y-118385500D01*
X156494325Y-118368035D01*
X156537036Y-118359540D01*
X156659969Y-118308620D01*
X156692755Y-118286712D01*
X156771110Y-118234359D01*
X156837787Y-118213481D01*
X156905167Y-118231966D01*
X156908890Y-118234359D01*
X157020020Y-118308613D01*
X157020023Y-118308614D01*
X157020031Y-118308620D01*
X157142964Y-118359540D01*
X157142968Y-118359540D01*
X157142969Y-118359541D01*
X157273466Y-118385500D01*
X157273469Y-118385500D01*
X157406533Y-118385500D01*
X157494325Y-118368035D01*
X157537036Y-118359540D01*
X157659969Y-118308620D01*
X157692755Y-118286712D01*
X157771110Y-118234359D01*
X157837787Y-118213481D01*
X157905167Y-118231966D01*
X157908890Y-118234359D01*
X158020020Y-118308613D01*
X158020023Y-118308614D01*
X158020031Y-118308620D01*
X158142964Y-118359540D01*
X158142968Y-118359540D01*
X158142969Y-118359541D01*
X158273466Y-118385500D01*
X158273469Y-118385500D01*
X158406533Y-118385500D01*
X158494325Y-118368035D01*
X158537036Y-118359540D01*
X158659969Y-118308620D01*
X158770606Y-118234695D01*
X158864695Y-118140606D01*
X158938620Y-118029969D01*
X158989540Y-117907036D01*
X159015500Y-117776531D01*
X159015500Y-117643469D01*
X159015500Y-117643466D01*
X158989541Y-117512969D01*
X158989540Y-117512968D01*
X158989540Y-117512964D01*
X158938620Y-117390031D01*
X158884742Y-117309397D01*
X158864698Y-117279398D01*
X158864692Y-117279390D01*
X158770609Y-117185307D01*
X158770601Y-117185301D01*
X158659979Y-117111386D01*
X158659972Y-117111382D01*
X158659969Y-117111380D01*
X158659965Y-117111378D01*
X158659961Y-117111376D01*
X158537040Y-117060461D01*
X158537030Y-117060458D01*
X158406533Y-117034500D01*
X158406531Y-117034500D01*
X158273469Y-117034500D01*
X158273467Y-117034500D01*
X158142969Y-117060458D01*
X158142959Y-117060461D01*
X158020038Y-117111376D01*
X158020027Y-117111382D01*
X157908890Y-117185641D01*
X157842212Y-117206518D01*
X157774832Y-117188033D01*
X157771110Y-117185641D01*
X157659972Y-117111382D01*
X157659971Y-117111381D01*
X157659969Y-117111380D01*
X157659966Y-117111378D01*
X157659961Y-117111376D01*
X157537040Y-117060461D01*
X157537030Y-117060458D01*
X157406533Y-117034500D01*
X157406531Y-117034500D01*
X157273469Y-117034500D01*
X157273467Y-117034500D01*
X157142969Y-117060458D01*
X157142959Y-117060461D01*
X157020038Y-117111376D01*
X157020027Y-117111382D01*
X156908890Y-117185641D01*
X156842212Y-117206518D01*
X156774832Y-117188033D01*
X156771110Y-117185641D01*
X156659972Y-117111382D01*
X156659971Y-117111381D01*
X156659969Y-117111380D01*
X156659966Y-117111378D01*
X156659961Y-117111376D01*
X156537040Y-117060461D01*
X156537030Y-117060458D01*
X156406533Y-117034500D01*
X156406531Y-117034500D01*
X156273469Y-117034500D01*
X156273467Y-117034500D01*
X156142969Y-117060458D01*
X156142959Y-117060461D01*
X156020038Y-117111376D01*
X156020027Y-117111382D01*
X155908890Y-117185641D01*
X155842212Y-117206518D01*
X155774832Y-117188033D01*
X155771110Y-117185641D01*
X155659972Y-117111382D01*
X155659971Y-117111381D01*
X155659969Y-117111380D01*
X155659966Y-117111378D01*
X155659961Y-117111376D01*
X155537040Y-117060461D01*
X155537030Y-117060458D01*
X155406533Y-117034500D01*
X155406531Y-117034500D01*
X155273469Y-117034500D01*
X155273467Y-117034500D01*
X155142969Y-117060458D01*
X155142959Y-117060461D01*
X155020038Y-117111376D01*
X155020020Y-117111386D01*
X154909398Y-117185301D01*
X154909390Y-117185307D01*
X154815307Y-117279390D01*
X154815301Y-117279398D01*
X154741386Y-117390020D01*
X154741376Y-117390038D01*
X154690461Y-117512959D01*
X154690458Y-117512969D01*
X154664500Y-117643466D01*
X154664500Y-117643469D01*
X154664500Y-117776531D01*
X154664500Y-117776533D01*
X154664499Y-117776533D01*
X121915838Y-117776533D01*
X121966928Y-117739414D01*
X122089414Y-117616928D01*
X122191232Y-117476788D01*
X122269873Y-117322445D01*
X122323402Y-117157701D01*
X122350500Y-116986611D01*
X122350500Y-116813389D01*
X122323402Y-116642299D01*
X122284039Y-116521153D01*
X124929500Y-116521153D01*
X124929500Y-116678846D01*
X124960261Y-116833489D01*
X124960264Y-116833501D01*
X125020602Y-116979172D01*
X125020609Y-116979185D01*
X125108210Y-117110288D01*
X125108213Y-117110292D01*
X125219707Y-117221786D01*
X125219711Y-117221789D01*
X125350814Y-117309390D01*
X125350827Y-117309397D01*
X125496498Y-117369735D01*
X125496503Y-117369737D01*
X125651153Y-117400499D01*
X125651156Y-117400500D01*
X125651158Y-117400500D01*
X125808844Y-117400500D01*
X125808845Y-117400499D01*
X125963497Y-117369737D01*
X126109179Y-117309394D01*
X126240289Y-117221789D01*
X126351789Y-117110289D01*
X126439394Y-116979179D01*
X126499737Y-116833497D01*
X126530500Y-116678842D01*
X126530500Y-116521158D01*
X126530500Y-116521155D01*
X126530499Y-116521153D01*
X130009500Y-116521153D01*
X130009500Y-116678846D01*
X130040261Y-116833489D01*
X130040264Y-116833501D01*
X130100602Y-116979172D01*
X130100609Y-116979185D01*
X130188210Y-117110288D01*
X130188213Y-117110292D01*
X130299707Y-117221786D01*
X130299711Y-117221789D01*
X130430814Y-117309390D01*
X130430827Y-117309397D01*
X130576498Y-117369735D01*
X130576503Y-117369737D01*
X130731153Y-117400499D01*
X130731156Y-117400500D01*
X130731158Y-117400500D01*
X130888844Y-117400500D01*
X130888845Y-117400499D01*
X131043497Y-117369737D01*
X131189179Y-117309394D01*
X131320289Y-117221789D01*
X131431789Y-117110289D01*
X131519394Y-116979179D01*
X131579737Y-116833497D01*
X131610500Y-116678842D01*
X131610500Y-116521158D01*
X131610500Y-116521155D01*
X131610499Y-116521153D01*
X131601826Y-116477552D01*
X131579737Y-116366503D01*
X131579735Y-116366498D01*
X131519397Y-116220827D01*
X131519390Y-116220814D01*
X131431789Y-116089711D01*
X131431786Y-116089707D01*
X131320292Y-115978213D01*
X131320288Y-115978210D01*
X131189185Y-115890609D01*
X131189172Y-115890602D01*
X131043501Y-115830264D01*
X131043489Y-115830261D01*
X130888845Y-115799500D01*
X130888842Y-115799500D01*
X130731158Y-115799500D01*
X130731155Y-115799500D01*
X130576510Y-115830261D01*
X130576498Y-115830264D01*
X130430827Y-115890602D01*
X130430814Y-115890609D01*
X130299711Y-115978210D01*
X130299707Y-115978213D01*
X130188213Y-116089707D01*
X130188210Y-116089711D01*
X130100609Y-116220814D01*
X130100602Y-116220827D01*
X130040264Y-116366498D01*
X130040261Y-116366510D01*
X130009500Y-116521153D01*
X126530499Y-116521153D01*
X126521826Y-116477552D01*
X126499737Y-116366503D01*
X126499735Y-116366498D01*
X126439397Y-116220827D01*
X126439390Y-116220814D01*
X126351789Y-116089711D01*
X126351786Y-116089707D01*
X126240292Y-115978213D01*
X126240288Y-115978210D01*
X126109185Y-115890609D01*
X126109172Y-115890602D01*
X125963501Y-115830264D01*
X125963489Y-115830261D01*
X125808845Y-115799500D01*
X125808842Y-115799500D01*
X125651158Y-115799500D01*
X125651155Y-115799500D01*
X125496510Y-115830261D01*
X125496498Y-115830264D01*
X125350827Y-115890602D01*
X125350814Y-115890609D01*
X125219711Y-115978210D01*
X125219707Y-115978213D01*
X125108213Y-116089707D01*
X125108210Y-116089711D01*
X125020609Y-116220814D01*
X125020602Y-116220827D01*
X124960264Y-116366498D01*
X124960261Y-116366510D01*
X124929500Y-116521153D01*
X122284039Y-116521153D01*
X122269873Y-116477555D01*
X122191232Y-116323212D01*
X122089414Y-116183072D01*
X121966928Y-116060586D01*
X121826788Y-115958768D01*
X121672445Y-115880127D01*
X121507701Y-115826598D01*
X121507699Y-115826597D01*
X121507698Y-115826597D01*
X121376271Y-115805781D01*
X121336611Y-115799500D01*
X121163389Y-115799500D01*
X121123728Y-115805781D01*
X120992302Y-115826597D01*
X120827552Y-115880128D01*
X120673211Y-115958768D01*
X120646448Y-115978213D01*
X120533072Y-116060586D01*
X120533070Y-116060588D01*
X120533069Y-116060588D01*
X120410588Y-116183069D01*
X120410588Y-116183070D01*
X120410586Y-116183072D01*
X120366859Y-116243256D01*
X120308768Y-116323211D01*
X120230128Y-116477552D01*
X120176597Y-116642302D01*
X120149500Y-116813389D01*
X114800000Y-116813389D01*
X114800000Y-115657399D01*
X150784500Y-115657399D01*
X150784500Y-115782601D01*
X150816905Y-115903536D01*
X150879505Y-116011964D01*
X150968036Y-116100495D01*
X151076464Y-116163095D01*
X151197399Y-116195500D01*
X151197401Y-116195500D01*
X151322599Y-116195500D01*
X151322601Y-116195500D01*
X151443536Y-116163095D01*
X151551964Y-116100495D01*
X151640495Y-116011964D01*
X151703095Y-115903536D01*
X151735500Y-115782601D01*
X151735500Y-115657399D01*
X151703346Y-115537399D01*
X156534500Y-115537399D01*
X156534500Y-115662601D01*
X156566905Y-115783536D01*
X156629505Y-115891964D01*
X156718036Y-115980495D01*
X156826464Y-116043095D01*
X156947399Y-116075500D01*
X156947401Y-116075500D01*
X157072599Y-116075500D01*
X157072601Y-116075500D01*
X157193536Y-116043095D01*
X157301964Y-115980495D01*
X157390495Y-115891964D01*
X157453095Y-115783536D01*
X157485500Y-115662601D01*
X157485500Y-115537399D01*
X157453095Y-115416464D01*
X157390495Y-115308036D01*
X157301964Y-115219505D01*
X157193536Y-115156905D01*
X157193537Y-115156905D01*
X157153224Y-115146103D01*
X157072601Y-115124500D01*
X156947399Y-115124500D01*
X156866775Y-115146103D01*
X156826463Y-115156905D01*
X156718037Y-115219504D01*
X156718034Y-115219506D01*
X156629506Y-115308034D01*
X156629504Y-115308037D01*
X156566905Y-115416463D01*
X156566905Y-115416464D01*
X156534500Y-115537399D01*
X151703346Y-115537399D01*
X151703095Y-115536464D01*
X151640495Y-115428036D01*
X151551964Y-115339505D01*
X151443536Y-115276905D01*
X151443537Y-115276905D01*
X151403224Y-115266103D01*
X151322601Y-115244500D01*
X151197399Y-115244500D01*
X151116775Y-115266103D01*
X151076463Y-115276905D01*
X150968037Y-115339504D01*
X150968034Y-115339506D01*
X150879506Y-115428034D01*
X150879504Y-115428037D01*
X150816905Y-115536463D01*
X150816905Y-115536464D01*
X150784500Y-115657399D01*
X114800000Y-115657399D01*
X114800000Y-114697525D01*
X118699500Y-114697525D01*
X118699500Y-114842475D01*
X118731688Y-114962599D01*
X118737017Y-114982488D01*
X118809488Y-115108011D01*
X118809490Y-115108013D01*
X118809491Y-115108015D01*
X118911985Y-115210509D01*
X118911986Y-115210510D01*
X118911988Y-115210511D01*
X119037511Y-115282982D01*
X119037512Y-115282982D01*
X119037515Y-115282984D01*
X119177525Y-115320500D01*
X119177528Y-115320500D01*
X119322472Y-115320500D01*
X119322475Y-115320500D01*
X119462485Y-115282984D01*
X119588015Y-115210509D01*
X119690509Y-115108015D01*
X119762984Y-114982485D01*
X119800500Y-114842475D01*
X119800500Y-114697525D01*
X119762984Y-114557515D01*
X119741039Y-114519506D01*
X119690511Y-114431988D01*
X119690506Y-114431982D01*
X119588017Y-114329493D01*
X119588011Y-114329488D01*
X119490845Y-114273389D01*
X120149500Y-114273389D01*
X120149500Y-114446611D01*
X120157677Y-114498239D01*
X120169088Y-114570289D01*
X120176598Y-114617701D01*
X120230127Y-114782445D01*
X120308768Y-114936788D01*
X120410586Y-115076928D01*
X120533072Y-115199414D01*
X120673212Y-115301232D01*
X120827555Y-115379873D01*
X120992299Y-115433402D01*
X121163389Y-115460500D01*
X121163390Y-115460500D01*
X121336610Y-115460500D01*
X121336611Y-115460500D01*
X121507701Y-115433402D01*
X121672445Y-115379873D01*
X121826788Y-115301232D01*
X121966928Y-115199414D01*
X122089414Y-115076928D01*
X122191232Y-114936788D01*
X122269873Y-114782445D01*
X122323402Y-114617701D01*
X122350500Y-114446611D01*
X122350500Y-114273389D01*
X122323402Y-114102299D01*
X122284039Y-113981153D01*
X124929500Y-113981153D01*
X124929500Y-114138846D01*
X124960261Y-114293489D01*
X124960264Y-114293501D01*
X125020602Y-114439172D01*
X125020609Y-114439185D01*
X125108210Y-114570288D01*
X125108213Y-114570292D01*
X125219707Y-114681786D01*
X125219711Y-114681789D01*
X125350814Y-114769390D01*
X125350827Y-114769397D01*
X125496498Y-114829735D01*
X125496503Y-114829737D01*
X125651153Y-114860499D01*
X125651156Y-114860500D01*
X125651158Y-114860500D01*
X125808844Y-114860500D01*
X125808845Y-114860499D01*
X125963497Y-114829737D01*
X126109179Y-114769394D01*
X126240289Y-114681789D01*
X126351789Y-114570289D01*
X126439394Y-114439179D01*
X126499737Y-114293497D01*
X126530500Y-114138842D01*
X126530500Y-113981158D01*
X126530500Y-113981155D01*
X126530499Y-113981153D01*
X126522929Y-113943095D01*
X126499737Y-113826503D01*
X126485430Y-113791962D01*
X126439397Y-113680827D01*
X126439390Y-113680814D01*
X126351791Y-113549713D01*
X126351786Y-113549707D01*
X126287400Y-113485321D01*
X130009500Y-113485321D01*
X130009500Y-114634678D01*
X130024032Y-114707735D01*
X130024033Y-114707739D01*
X130024034Y-114707740D01*
X130079399Y-114790601D01*
X130149440Y-114837400D01*
X130162260Y-114845966D01*
X130162264Y-114845967D01*
X130235321Y-114860499D01*
X130235324Y-114860500D01*
X130235326Y-114860500D01*
X131384676Y-114860500D01*
X131384677Y-114860499D01*
X131457740Y-114845966D01*
X131470562Y-114837399D01*
X161724500Y-114837399D01*
X161724500Y-114962601D01*
X161756905Y-115083536D01*
X161819505Y-115191964D01*
X161908036Y-115280495D01*
X162016464Y-115343095D01*
X162137399Y-115375500D01*
X162137401Y-115375500D01*
X162262599Y-115375500D01*
X162262601Y-115375500D01*
X162383536Y-115343095D01*
X162491964Y-115280495D01*
X162580495Y-115191964D01*
X162643095Y-115083536D01*
X162675500Y-114962601D01*
X162675500Y-114837399D01*
X162643095Y-114716464D01*
X162580495Y-114608036D01*
X162491964Y-114519505D01*
X162383536Y-114456905D01*
X162383537Y-114456905D01*
X162317405Y-114439185D01*
X162262601Y-114424500D01*
X162137399Y-114424500D01*
X162082595Y-114439185D01*
X162016463Y-114456905D01*
X161908037Y-114519504D01*
X161908034Y-114519506D01*
X161819506Y-114608034D01*
X161819504Y-114608037D01*
X161756905Y-114716463D01*
X161745137Y-114760381D01*
X161724500Y-114837399D01*
X131470562Y-114837399D01*
X131540601Y-114790601D01*
X131595966Y-114707740D01*
X131610500Y-114634674D01*
X131610500Y-113485326D01*
X131600967Y-113437399D01*
X144764500Y-113437399D01*
X144764500Y-113562601D01*
X144796905Y-113683536D01*
X144859505Y-113791964D01*
X144948036Y-113880495D01*
X145056464Y-113943095D01*
X145177399Y-113975500D01*
X145177401Y-113975500D01*
X145302599Y-113975500D01*
X145302601Y-113975500D01*
X145423536Y-113943095D01*
X145531964Y-113880495D01*
X145620495Y-113791964D01*
X145683095Y-113683536D01*
X145715500Y-113562601D01*
X145715500Y-113437399D01*
X145683095Y-113316464D01*
X145620495Y-113208036D01*
X145531964Y-113119505D01*
X145423536Y-113056905D01*
X145423537Y-113056905D01*
X145383224Y-113046103D01*
X145302601Y-113024500D01*
X145177399Y-113024500D01*
X145096775Y-113046103D01*
X145056463Y-113056905D01*
X144948037Y-113119504D01*
X144948034Y-113119506D01*
X144859506Y-113208034D01*
X144859504Y-113208037D01*
X144796905Y-113316463D01*
X144787756Y-113350609D01*
X144764500Y-113437399D01*
X131600967Y-113437399D01*
X131595966Y-113412260D01*
X131540601Y-113329399D01*
X131457740Y-113274034D01*
X131457739Y-113274033D01*
X131457735Y-113274032D01*
X131384677Y-113259500D01*
X131384674Y-113259500D01*
X130235326Y-113259500D01*
X130235323Y-113259500D01*
X130162264Y-113274032D01*
X130162260Y-113274033D01*
X130079399Y-113329399D01*
X130024033Y-113412260D01*
X130024032Y-113412264D01*
X130009500Y-113485321D01*
X126287400Y-113485321D01*
X126240292Y-113438213D01*
X126240288Y-113438210D01*
X126109185Y-113350609D01*
X126109172Y-113350602D01*
X125963501Y-113290264D01*
X125963489Y-113290261D01*
X125808845Y-113259500D01*
X125808842Y-113259500D01*
X125651158Y-113259500D01*
X125651155Y-113259500D01*
X125496510Y-113290261D01*
X125496498Y-113290264D01*
X125350827Y-113350602D01*
X125350814Y-113350609D01*
X125219711Y-113438210D01*
X125219707Y-113438213D01*
X125108213Y-113549707D01*
X125108210Y-113549711D01*
X125020609Y-113680814D01*
X125020602Y-113680827D01*
X124960264Y-113826498D01*
X124960261Y-113826510D01*
X124929500Y-113981153D01*
X122284039Y-113981153D01*
X122269873Y-113937555D01*
X122191232Y-113783212D01*
X122089414Y-113643072D01*
X121966928Y-113520586D01*
X121826788Y-113418768D01*
X121672445Y-113340127D01*
X121507701Y-113286598D01*
X121507699Y-113286597D01*
X121507698Y-113286597D01*
X121376271Y-113265781D01*
X121336611Y-113259500D01*
X121163389Y-113259500D01*
X121123728Y-113265781D01*
X120992302Y-113286597D01*
X120827552Y-113340128D01*
X120673211Y-113418768D01*
X120646448Y-113438213D01*
X120533072Y-113520586D01*
X120533070Y-113520588D01*
X120533069Y-113520588D01*
X120410588Y-113643069D01*
X120410588Y-113643070D01*
X120410586Y-113643072D01*
X120381187Y-113683536D01*
X120308768Y-113783211D01*
X120230128Y-113937552D01*
X120176597Y-114102302D01*
X120158035Y-114219500D01*
X120149500Y-114273389D01*
X119490845Y-114273389D01*
X119462488Y-114257017D01*
X119462489Y-114257017D01*
X119451006Y-114253940D01*
X119322475Y-114219500D01*
X119177525Y-114219500D01*
X119048993Y-114253940D01*
X119037511Y-114257017D01*
X118911988Y-114329488D01*
X118911982Y-114329493D01*
X118809493Y-114431982D01*
X118809488Y-114431988D01*
X118737017Y-114557511D01*
X118737016Y-114557515D01*
X118699500Y-114697525D01*
X114800000Y-114697525D01*
X114800000Y-112807399D01*
X153654500Y-112807399D01*
X153654500Y-112932601D01*
X153686905Y-113053536D01*
X153749505Y-113161964D01*
X153838036Y-113250495D01*
X153946464Y-113313095D01*
X154067399Y-113345500D01*
X154067401Y-113345500D01*
X154192599Y-113345500D01*
X154192601Y-113345500D01*
X154313536Y-113313095D01*
X154421964Y-113250495D01*
X154510495Y-113161964D01*
X154573095Y-113053536D01*
X154605500Y-112932601D01*
X154605500Y-112807399D01*
X154573095Y-112686464D01*
X154510495Y-112578036D01*
X154421964Y-112489505D01*
X154313536Y-112426905D01*
X154313537Y-112426905D01*
X154273224Y-112416103D01*
X154192601Y-112394500D01*
X154067399Y-112394500D01*
X153986775Y-112416103D01*
X153946463Y-112426905D01*
X153838037Y-112489504D01*
X153838034Y-112489506D01*
X153749506Y-112578034D01*
X153749504Y-112578037D01*
X153686905Y-112686463D01*
X153686905Y-112686464D01*
X153654500Y-112807399D01*
X114800000Y-112807399D01*
X114800000Y-112087399D01*
X149974500Y-112087399D01*
X149974500Y-112212601D01*
X150006905Y-112333536D01*
X150069505Y-112441964D01*
X150158036Y-112530495D01*
X150266464Y-112593095D01*
X150387399Y-112625500D01*
X150387401Y-112625500D01*
X150512599Y-112625500D01*
X150512601Y-112625500D01*
X150633536Y-112593095D01*
X150741964Y-112530495D01*
X150830495Y-112441964D01*
X150893095Y-112333536D01*
X150925500Y-112212601D01*
X150925500Y-112087399D01*
X150893095Y-111966464D01*
X150830495Y-111858036D01*
X150741964Y-111769505D01*
X150633536Y-111706905D01*
X150633537Y-111706905D01*
X150593224Y-111696103D01*
X150512601Y-111674500D01*
X150387399Y-111674500D01*
X150306775Y-111696103D01*
X150266463Y-111706905D01*
X150158037Y-111769504D01*
X150158034Y-111769506D01*
X150069506Y-111858034D01*
X150069504Y-111858037D01*
X150006905Y-111966463D01*
X150006905Y-111966464D01*
X149974500Y-112087399D01*
X114800000Y-112087399D01*
X114800000Y-111337525D01*
X118019500Y-111337525D01*
X118019500Y-111482475D01*
X118057016Y-111622485D01*
X118057017Y-111622488D01*
X118129488Y-111748011D01*
X118129490Y-111748013D01*
X118129491Y-111748015D01*
X118231985Y-111850509D01*
X118231986Y-111850510D01*
X118231988Y-111850511D01*
X118357511Y-111922982D01*
X118357512Y-111922982D01*
X118357515Y-111922984D01*
X118497525Y-111960500D01*
X118497528Y-111960500D01*
X118642473Y-111960500D01*
X118642475Y-111960500D01*
X118782485Y-111922984D01*
X118908015Y-111850509D01*
X119010509Y-111748015D01*
X119082984Y-111622485D01*
X119120500Y-111482475D01*
X119120500Y-111337525D01*
X119082984Y-111197515D01*
X119013684Y-111077485D01*
X119010511Y-111071988D01*
X119010506Y-111071982D01*
X118908017Y-110969493D01*
X118908011Y-110969488D01*
X118782488Y-110897017D01*
X118782485Y-110897016D01*
X118642475Y-110859500D01*
X118497525Y-110859500D01*
X118368993Y-110893940D01*
X118357511Y-110897017D01*
X118231988Y-110969488D01*
X118231982Y-110969493D01*
X118129493Y-111071982D01*
X118129488Y-111071988D01*
X118057017Y-111197511D01*
X118057016Y-111197515D01*
X118019500Y-111337525D01*
X114800000Y-111337525D01*
X114800000Y-110792525D01*
X128424500Y-110792525D01*
X128424500Y-110937475D01*
X128460542Y-111071985D01*
X128462017Y-111077488D01*
X128534488Y-111203011D01*
X128534490Y-111203013D01*
X128534491Y-111203015D01*
X128636985Y-111305509D01*
X128636986Y-111305510D01*
X128636988Y-111305511D01*
X128762511Y-111377982D01*
X128762512Y-111377982D01*
X128762515Y-111377984D01*
X128902525Y-111415500D01*
X128902528Y-111415500D01*
X129047472Y-111415500D01*
X129047475Y-111415500D01*
X129187485Y-111377984D01*
X129313015Y-111305509D01*
X129415509Y-111203015D01*
X129487984Y-111077485D01*
X129525500Y-110937475D01*
X129525500Y-110792525D01*
X129487984Y-110652515D01*
X129415509Y-110526985D01*
X129313015Y-110424491D01*
X129313013Y-110424490D01*
X129313011Y-110424488D01*
X129187488Y-110352017D01*
X129187489Y-110352017D01*
X129176006Y-110348940D01*
X129047475Y-110314500D01*
X128902525Y-110314500D01*
X128773993Y-110348940D01*
X128762511Y-110352017D01*
X128636988Y-110424488D01*
X128636982Y-110424493D01*
X128534493Y-110526982D01*
X128534488Y-110526988D01*
X128462017Y-110652511D01*
X128462016Y-110652515D01*
X128424500Y-110792525D01*
X114800000Y-110792525D01*
X114800000Y-108751525D01*
X161649500Y-108751525D01*
X161649500Y-108896475D01*
X161687016Y-109036485D01*
X161687017Y-109036488D01*
X161759488Y-109162011D01*
X161759490Y-109162013D01*
X161759491Y-109162015D01*
X161861985Y-109264509D01*
X161861986Y-109264510D01*
X161861988Y-109264511D01*
X161987511Y-109336982D01*
X161987512Y-109336982D01*
X161987515Y-109336984D01*
X162127525Y-109374500D01*
X162127528Y-109374500D01*
X162272472Y-109374500D01*
X162272475Y-109374500D01*
X162412485Y-109336984D01*
X162538015Y-109264509D01*
X162640509Y-109162015D01*
X162712984Y-109036485D01*
X162750500Y-108896475D01*
X162750500Y-108751525D01*
X162712984Y-108611515D01*
X162640509Y-108485985D01*
X162538015Y-108383491D01*
X162538013Y-108383490D01*
X162538011Y-108383488D01*
X162412488Y-108311017D01*
X162412489Y-108311017D01*
X162401006Y-108307940D01*
X162272475Y-108273500D01*
X162127525Y-108273500D01*
X161998993Y-108307940D01*
X161987511Y-108311017D01*
X161861988Y-108383488D01*
X161861982Y-108383493D01*
X161759493Y-108485982D01*
X161759488Y-108485988D01*
X161687017Y-108611511D01*
X161687016Y-108611515D01*
X161649500Y-108751525D01*
X114800000Y-108751525D01*
X114800000Y-107757399D01*
X140984500Y-107757399D01*
X140984500Y-107882601D01*
X141016905Y-108003536D01*
X141079505Y-108111964D01*
X141168036Y-108200495D01*
X141276464Y-108263095D01*
X141397399Y-108295500D01*
X141397401Y-108295500D01*
X141522599Y-108295500D01*
X141522601Y-108295500D01*
X141643536Y-108263095D01*
X141643539Y-108263092D01*
X141649793Y-108260503D01*
X141719262Y-108253036D01*
X141781741Y-108284311D01*
X141784925Y-108287384D01*
X141838036Y-108340495D01*
X141946464Y-108403095D01*
X142067399Y-108435500D01*
X142067401Y-108435500D01*
X142192599Y-108435500D01*
X142192601Y-108435500D01*
X142313536Y-108403095D01*
X142421964Y-108340495D01*
X142510495Y-108251964D01*
X142573095Y-108143536D01*
X142605500Y-108022601D01*
X142605500Y-107897399D01*
X142573095Y-107776464D01*
X142510495Y-107668036D01*
X142421964Y-107579505D01*
X142313536Y-107516905D01*
X142313537Y-107516905D01*
X142273224Y-107506103D01*
X142192601Y-107484500D01*
X142067399Y-107484500D01*
X142025642Y-107495689D01*
X141946462Y-107516905D01*
X141940207Y-107519497D01*
X141870738Y-107526964D01*
X141808259Y-107495689D01*
X141805075Y-107492616D01*
X141759858Y-107447399D01*
X145574500Y-107447399D01*
X145574500Y-107572601D01*
X145606905Y-107693536D01*
X145669505Y-107801964D01*
X145758036Y-107890495D01*
X145866464Y-107953095D01*
X145987399Y-107985500D01*
X145987401Y-107985500D01*
X146112599Y-107985500D01*
X146112601Y-107985500D01*
X146233536Y-107953095D01*
X146341964Y-107890495D01*
X146430495Y-107801964D01*
X146493095Y-107693536D01*
X146525500Y-107572601D01*
X146525500Y-107447399D01*
X146522820Y-107437399D01*
X147074500Y-107437399D01*
X147074500Y-107562601D01*
X147106905Y-107683536D01*
X147169505Y-107791964D01*
X147258036Y-107880495D01*
X147366464Y-107943095D01*
X147487399Y-107975500D01*
X147487401Y-107975500D01*
X147612599Y-107975500D01*
X147612601Y-107975500D01*
X147733536Y-107943095D01*
X147841964Y-107880495D01*
X147930495Y-107791964D01*
X147993095Y-107683536D01*
X148025500Y-107562601D01*
X148025500Y-107437399D01*
X148009423Y-107377399D01*
X148334500Y-107377399D01*
X148334500Y-107502601D01*
X148366905Y-107623536D01*
X148429505Y-107731964D01*
X148518036Y-107820495D01*
X148626464Y-107883095D01*
X148747399Y-107915500D01*
X148747401Y-107915500D01*
X148872599Y-107915500D01*
X148872601Y-107915500D01*
X148993536Y-107883095D01*
X149101964Y-107820495D01*
X149190495Y-107731964D01*
X149253095Y-107623536D01*
X149285500Y-107502601D01*
X149285500Y-107377399D01*
X149253095Y-107256464D01*
X149225136Y-107208037D01*
X149215456Y-107191270D01*
X149215455Y-107191268D01*
X149190497Y-107148039D01*
X149190496Y-107148037D01*
X149190495Y-107148036D01*
X149179858Y-107137399D01*
X157634500Y-107137399D01*
X157634500Y-107262601D01*
X157666905Y-107383536D01*
X157729505Y-107491964D01*
X157818036Y-107580495D01*
X157926464Y-107643095D01*
X158047399Y-107675500D01*
X158047401Y-107675500D01*
X158172599Y-107675500D01*
X158172601Y-107675500D01*
X158293536Y-107643095D01*
X158401964Y-107580495D01*
X158490495Y-107491964D01*
X158553095Y-107383536D01*
X158585500Y-107262601D01*
X158585500Y-107137399D01*
X158553095Y-107016464D01*
X158490495Y-106908036D01*
X158401964Y-106819505D01*
X158293536Y-106756905D01*
X158293537Y-106756905D01*
X158253224Y-106746103D01*
X158172601Y-106724500D01*
X158047399Y-106724500D01*
X157966775Y-106746103D01*
X157926463Y-106756905D01*
X157818037Y-106819504D01*
X157818034Y-106819506D01*
X157729506Y-106908034D01*
X157729504Y-106908037D01*
X157666905Y-107016463D01*
X157662072Y-107034500D01*
X157634500Y-107137399D01*
X149179858Y-107137399D01*
X149101964Y-107059505D01*
X148993536Y-106996905D01*
X148993537Y-106996905D01*
X148953224Y-106986103D01*
X148872601Y-106964500D01*
X148747399Y-106964500D01*
X148666775Y-106986103D01*
X148626463Y-106996905D01*
X148518037Y-107059504D01*
X148518034Y-107059506D01*
X148429506Y-107148034D01*
X148429504Y-107148037D01*
X148366905Y-107256463D01*
X148350828Y-107316463D01*
X148334500Y-107377399D01*
X148009423Y-107377399D01*
X147993095Y-107316464D01*
X147930495Y-107208036D01*
X147841964Y-107119505D01*
X147733536Y-107056905D01*
X147733537Y-107056905D01*
X147693224Y-107046103D01*
X147612601Y-107024500D01*
X147487399Y-107024500D01*
X147406775Y-107046103D01*
X147366463Y-107056905D01*
X147258037Y-107119504D01*
X147258034Y-107119506D01*
X147169506Y-107208034D01*
X147169504Y-107208037D01*
X147106905Y-107316463D01*
X147106905Y-107316464D01*
X147074500Y-107437399D01*
X146522820Y-107437399D01*
X146493095Y-107326464D01*
X146430495Y-107218036D01*
X146341964Y-107129505D01*
X146233536Y-107066905D01*
X146233537Y-107066905D01*
X146193224Y-107056103D01*
X146112601Y-107034500D01*
X145987399Y-107034500D01*
X145906775Y-107056103D01*
X145866463Y-107066905D01*
X145758037Y-107129504D01*
X145758034Y-107129506D01*
X145669506Y-107218034D01*
X145669504Y-107218037D01*
X145606905Y-107326463D01*
X145591612Y-107383536D01*
X145574500Y-107447399D01*
X141759858Y-107447399D01*
X141751965Y-107439506D01*
X141751964Y-107439505D01*
X141643536Y-107376905D01*
X141643537Y-107376905D01*
X141603224Y-107366103D01*
X141522601Y-107344500D01*
X141397399Y-107344500D01*
X141316775Y-107366103D01*
X141276463Y-107376905D01*
X141168037Y-107439504D01*
X141168034Y-107439506D01*
X141079506Y-107528034D01*
X141079504Y-107528037D01*
X141016905Y-107636463D01*
X141016905Y-107636464D01*
X140984500Y-107757399D01*
X114800000Y-107757399D01*
X114800000Y-106377399D01*
X136524500Y-106377399D01*
X136524500Y-106502601D01*
X136556905Y-106623536D01*
X136619505Y-106731964D01*
X136708036Y-106820495D01*
X136816464Y-106883095D01*
X136937399Y-106915500D01*
X136937401Y-106915500D01*
X137062599Y-106915500D01*
X137062601Y-106915500D01*
X137183536Y-106883095D01*
X137291964Y-106820495D01*
X137380495Y-106731964D01*
X137443095Y-106623536D01*
X137475500Y-106502601D01*
X137475500Y-106377399D01*
X137443095Y-106256464D01*
X137443092Y-106256459D01*
X137441831Y-106251752D01*
X137443494Y-106181902D01*
X137482656Y-106124039D01*
X137499600Y-106112273D01*
X137571964Y-106070495D01*
X137660495Y-105981964D01*
X137723095Y-105873536D01*
X137755500Y-105752601D01*
X137755500Y-105627399D01*
X137723095Y-105506464D01*
X137660495Y-105398036D01*
X137571964Y-105309505D01*
X137463536Y-105246905D01*
X137463537Y-105246905D01*
X137407769Y-105231962D01*
X137342601Y-105214500D01*
X137217399Y-105214500D01*
X137152231Y-105231962D01*
X137096463Y-105246905D01*
X136988037Y-105309504D01*
X136988034Y-105309506D01*
X136899506Y-105398034D01*
X136899504Y-105398037D01*
X136836905Y-105506463D01*
X136836905Y-105506464D01*
X136804500Y-105627399D01*
X136804500Y-105752601D01*
X136828056Y-105840511D01*
X136838168Y-105878248D01*
X136836505Y-105948098D01*
X136797343Y-106005961D01*
X136780393Y-106017729D01*
X136708039Y-106059502D01*
X136708034Y-106059506D01*
X136619506Y-106148034D01*
X136619504Y-106148037D01*
X136556905Y-106256463D01*
X136556905Y-106256464D01*
X136524500Y-106377399D01*
X114800000Y-106377399D01*
X114800000Y-106149442D01*
X114816612Y-106087443D01*
X114882984Y-105972485D01*
X114920500Y-105832475D01*
X114920500Y-105687525D01*
X114882984Y-105547515D01*
X114816613Y-105432557D01*
X114800000Y-105370557D01*
X114800000Y-104307399D01*
X137194500Y-104307399D01*
X137194500Y-104432601D01*
X137226905Y-104553536D01*
X137289505Y-104661964D01*
X137378036Y-104750495D01*
X137486464Y-104813095D01*
X137607399Y-104845500D01*
X137607401Y-104845500D01*
X137732599Y-104845500D01*
X137732601Y-104845500D01*
X137853536Y-104813095D01*
X137961964Y-104750495D01*
X138050495Y-104661964D01*
X138113095Y-104553536D01*
X138145500Y-104432601D01*
X138145500Y-104307399D01*
X138124064Y-104227399D01*
X141894500Y-104227399D01*
X141894500Y-104352601D01*
X141915936Y-104432599D01*
X141926905Y-104473536D01*
X141992783Y-104587642D01*
X142009254Y-104655542D01*
X141992784Y-104711639D01*
X141966905Y-104756464D01*
X141934500Y-104877399D01*
X141934500Y-105002601D01*
X141966905Y-105123536D01*
X142029505Y-105231964D01*
X142118036Y-105320495D01*
X142226464Y-105383095D01*
X142347399Y-105415500D01*
X142347401Y-105415500D01*
X142472599Y-105415500D01*
X142472601Y-105415500D01*
X142593536Y-105383095D01*
X142689788Y-105327525D01*
X159139500Y-105327525D01*
X159139500Y-105472475D01*
X159177016Y-105612485D01*
X159177017Y-105612488D01*
X159249488Y-105738011D01*
X159249490Y-105738013D01*
X159249491Y-105738015D01*
X159351985Y-105840509D01*
X159351986Y-105840510D01*
X159351988Y-105840511D01*
X159477511Y-105912982D01*
X159477512Y-105912982D01*
X159477515Y-105912984D01*
X159617525Y-105950500D01*
X159617528Y-105950500D01*
X159762472Y-105950500D01*
X159762475Y-105950500D01*
X159902485Y-105912984D01*
X160028015Y-105840509D01*
X160130509Y-105738015D01*
X160202984Y-105612485D01*
X160240500Y-105472475D01*
X160240500Y-105327525D01*
X160202984Y-105187515D01*
X160130509Y-105061985D01*
X160028015Y-104959491D01*
X160028013Y-104959490D01*
X160028011Y-104959488D01*
X159902488Y-104887017D01*
X159902489Y-104887017D01*
X159891006Y-104883940D01*
X159762475Y-104849500D01*
X159617525Y-104849500D01*
X159488993Y-104883940D01*
X159477511Y-104887017D01*
X159351988Y-104959488D01*
X159351982Y-104959493D01*
X159249493Y-105061982D01*
X159249488Y-105061988D01*
X159177017Y-105187511D01*
X159177016Y-105187515D01*
X159139500Y-105327525D01*
X142689788Y-105327525D01*
X142701964Y-105320495D01*
X142790495Y-105231964D01*
X142853095Y-105123536D01*
X142885500Y-105002601D01*
X142885500Y-104877399D01*
X142853095Y-104756464D01*
X142790495Y-104648036D01*
X142790494Y-104648035D01*
X142787216Y-104642357D01*
X142770744Y-104574457D01*
X142787217Y-104518358D01*
X142813095Y-104473536D01*
X142845500Y-104352601D01*
X142845500Y-104227399D01*
X142813095Y-104106464D01*
X142750495Y-103998036D01*
X142661964Y-103909505D01*
X142553536Y-103846905D01*
X142553537Y-103846905D01*
X142513224Y-103836103D01*
X142432601Y-103814500D01*
X142307399Y-103814500D01*
X142226775Y-103836103D01*
X142186463Y-103846905D01*
X142078037Y-103909504D01*
X142078034Y-103909506D01*
X141989506Y-103998034D01*
X141989504Y-103998037D01*
X141926905Y-104106463D01*
X141926905Y-104106464D01*
X141894500Y-104227399D01*
X138124064Y-104227399D01*
X138113095Y-104186464D01*
X138050495Y-104078036D01*
X137961964Y-103989505D01*
X137853536Y-103926905D01*
X137853537Y-103926905D01*
X137788599Y-103909505D01*
X137732601Y-103894500D01*
X137607399Y-103894500D01*
X137551401Y-103909505D01*
X137486463Y-103926905D01*
X137378037Y-103989504D01*
X137378034Y-103989506D01*
X137289506Y-104078034D01*
X137289504Y-104078037D01*
X137226905Y-104186463D01*
X137226905Y-104186464D01*
X137194500Y-104307399D01*
X114800000Y-104307399D01*
X114800000Y-102517525D01*
X120089500Y-102517525D01*
X120089500Y-102662475D01*
X120127016Y-102802485D01*
X120127017Y-102802488D01*
X120199488Y-102928011D01*
X120199490Y-102928013D01*
X120199491Y-102928015D01*
X120301985Y-103030509D01*
X120301986Y-103030510D01*
X120301988Y-103030511D01*
X120427511Y-103102982D01*
X120427512Y-103102982D01*
X120427515Y-103102984D01*
X120567525Y-103140500D01*
X120567528Y-103140500D01*
X120712472Y-103140500D01*
X120712475Y-103140500D01*
X120852485Y-103102984D01*
X120978015Y-103030509D01*
X121080509Y-102928015D01*
X121152984Y-102802485D01*
X121190500Y-102662475D01*
X121190500Y-102517525D01*
X121152984Y-102377515D01*
X121104243Y-102293094D01*
X121080511Y-102251988D01*
X121080506Y-102251982D01*
X120978017Y-102149493D01*
X120978011Y-102149488D01*
X120852488Y-102077017D01*
X120852489Y-102077017D01*
X120841006Y-102073940D01*
X120712475Y-102039500D01*
X120567525Y-102039500D01*
X120438993Y-102073940D01*
X120427511Y-102077017D01*
X120301988Y-102149488D01*
X120301982Y-102149493D01*
X120199493Y-102251982D01*
X120199488Y-102251988D01*
X120127017Y-102377511D01*
X120127016Y-102377515D01*
X120089500Y-102517525D01*
X114800000Y-102517525D01*
X114800000Y-101787399D01*
X134134500Y-101787399D01*
X134134500Y-101912601D01*
X134166905Y-102033536D01*
X134229505Y-102141964D01*
X134318036Y-102230495D01*
X134426464Y-102293095D01*
X134547399Y-102325500D01*
X134547401Y-102325500D01*
X134672599Y-102325500D01*
X134672601Y-102325500D01*
X134793536Y-102293095D01*
X134901964Y-102230495D01*
X134990495Y-102141964D01*
X135053095Y-102033536D01*
X135085500Y-101912601D01*
X135085500Y-101787399D01*
X135053095Y-101666464D01*
X134990495Y-101558036D01*
X134901964Y-101469505D01*
X134793536Y-101406905D01*
X134793537Y-101406905D01*
X134753224Y-101396103D01*
X134672601Y-101374500D01*
X134547399Y-101374500D01*
X134466775Y-101396103D01*
X134426463Y-101406905D01*
X134318037Y-101469504D01*
X134318034Y-101469506D01*
X134229506Y-101558034D01*
X134229504Y-101558037D01*
X134166905Y-101666463D01*
X134154596Y-101712400D01*
X134134500Y-101787399D01*
X114800000Y-101787399D01*
X114800000Y-101661362D01*
X114819685Y-101594323D01*
X114836319Y-101573681D01*
X115247604Y-101162396D01*
X141684500Y-101162396D01*
X141684500Y-101287598D01*
X141704033Y-101360495D01*
X141716905Y-101408533D01*
X141733917Y-101437999D01*
X141750388Y-101505900D01*
X141733918Y-101561994D01*
X141716908Y-101591458D01*
X141716905Y-101591464D01*
X141684500Y-101712399D01*
X141684500Y-101837601D01*
X141716905Y-101958536D01*
X141779504Y-102066962D01*
X141779506Y-102066965D01*
X141869405Y-102156864D01*
X141902890Y-102218187D01*
X141901498Y-102276639D01*
X141874500Y-102377399D01*
X141874500Y-102502601D01*
X141906905Y-102623536D01*
X141969505Y-102731964D01*
X142058036Y-102820495D01*
X142166464Y-102883095D01*
X142287399Y-102915500D01*
X142287401Y-102915500D01*
X142412599Y-102915500D01*
X142412601Y-102915500D01*
X142533536Y-102883095D01*
X142641964Y-102820495D01*
X142730495Y-102731964D01*
X142738904Y-102717399D01*
X149754500Y-102717399D01*
X149754500Y-102842601D01*
X149786905Y-102963536D01*
X149849505Y-103071964D01*
X149938036Y-103160495D01*
X150046464Y-103223095D01*
X150167399Y-103255500D01*
X150167401Y-103255500D01*
X150292599Y-103255500D01*
X150292601Y-103255500D01*
X150413536Y-103223095D01*
X150521964Y-103160495D01*
X150610495Y-103071964D01*
X150673095Y-102963536D01*
X150705500Y-102842601D01*
X150705500Y-102717399D01*
X150673095Y-102596464D01*
X150610495Y-102488036D01*
X150521964Y-102399505D01*
X150413536Y-102336905D01*
X150413537Y-102336905D01*
X150370973Y-102325500D01*
X150292601Y-102304500D01*
X150167399Y-102304500D01*
X150089027Y-102325500D01*
X150046463Y-102336905D01*
X149938037Y-102399504D01*
X149938034Y-102399506D01*
X149849506Y-102488034D01*
X149849504Y-102488037D01*
X149786905Y-102596463D01*
X149786905Y-102596464D01*
X149754500Y-102717399D01*
X142738904Y-102717399D01*
X142793095Y-102623536D01*
X142825500Y-102502601D01*
X142825500Y-102377399D01*
X142793095Y-102256464D01*
X142730495Y-102148036D01*
X142641964Y-102059505D01*
X142640594Y-102058135D01*
X142607109Y-101996812D01*
X142608500Y-101938361D01*
X142635500Y-101837601D01*
X142635500Y-101712399D01*
X142603095Y-101591464D01*
X142586082Y-101561997D01*
X142569610Y-101494097D01*
X142586081Y-101438000D01*
X142603095Y-101408533D01*
X142635500Y-101287598D01*
X142635500Y-101162396D01*
X142603095Y-101041461D01*
X142540495Y-100933033D01*
X142451964Y-100844502D01*
X142343536Y-100781902D01*
X142343537Y-100781902D01*
X142274994Y-100763536D01*
X142222601Y-100749497D01*
X142097399Y-100749497D01*
X142045006Y-100763536D01*
X141976463Y-100781902D01*
X141868037Y-100844501D01*
X141868034Y-100844503D01*
X141779506Y-100933031D01*
X141779504Y-100933034D01*
X141716905Y-101041460D01*
X141700702Y-101101928D01*
X141684500Y-101162396D01*
X115247604Y-101162396D01*
X116333681Y-100076319D01*
X116395004Y-100042834D01*
X116421362Y-100040000D01*
X128737094Y-100040000D01*
X128804133Y-100059685D01*
G37*
%TD.AperFunction*%
%TD*%
M02*
